<svg width="26" height="32" viewBox="0 0 26 32" fill="none" xmlns="http://www.w3.org/2000/svg">
<path fill-rule="evenodd" clip-rule="evenodd" d="M13 32C14.76 32 16.2 30.56 16.2 28.8H9.79995C9.79995 30.56 11.24 32 13 32ZM24.1999 24C23.32 24 22.5999 23.28 22.5999 22.4V12.8C22.5999 8.624 19.9279 5.104 16.2 3.792V3.2C16.2 1.44 14.76 0 13 0C11.24 0 9.79995 1.44 9.79995 3.2V3.792C6.07195 5.104 3.39995 8.624 3.39995 12.8V22.4C3.39995 23.28 2.67995 24 1.79995 24C0.919951 24 0.199951 24.72 0.199951 25.6C0.199951 26.48 0.919951 27.2 1.79995 27.2H24.1999C25.08 27.2 25.7999 26.48 25.7999 25.6C25.7999 24.72 25.08 24 24.1999 24Z" fill="#4A4B57"/>
</svg>
