<svg width="15" height="13" viewBox="0 0 15 13" fill="none" xmlns="http://www.w3.org/2000/svg">
<path d="M4.71885 12.5938C10.3778 12.5938 13.4739 7.90422 13.4739 3.83869C13.4739 3.70686 13.471 3.57209 13.4651 3.44026C14.0674 3.00469 14.5872 2.46519 15 1.84709C14.4391 2.09666 13.8435 2.25964 13.2337 2.33049C13.8758 1.9456 14.3566 1.34095 14.5869 0.628635C13.9828 0.986629 13.3222 1.23916 12.6334 1.37541C12.1693 0.882256 11.5556 0.555728 10.8873 0.446312C10.219 0.336897 9.53324 0.450687 8.93609 0.770091C8.33893 1.08949 7.86363 1.59672 7.58365 2.21335C7.30368 2.82998 7.23464 3.52166 7.38721 4.18147C6.16406 4.12009 4.96746 3.80235 3.87499 3.24884C2.78252 2.69534 1.81856 1.91843 1.04561 0.968479C0.65275 1.64581 0.532535 2.44731 0.709394 3.21009C0.886253 3.97287 1.34691 4.63968 1.99775 5.07502C1.50914 5.05951 1.03123 4.92796 0.603516 4.69123V4.72932C0.603078 5.44012 0.848811 6.12915 1.29894 6.67926C1.74908 7.22938 2.37583 7.60663 3.07266 7.7469C2.62003 7.87074 2.14499 7.88878 1.68428 7.79963C1.88091 8.41093 2.26348 8.94559 2.77861 9.32899C3.29373 9.71239 3.9157 9.9254 4.55771 9.9383C3.46777 10.7945 2.12136 11.2589 0.735352 11.2567C0.489554 11.2563 0.243999 11.2412 0 11.2115C1.40804 12.1149 3.04596 12.5946 4.71885 12.5938Z" fill="black"/>
</svg>
