<?xml version="1.0" standalone="no"?>
<!DOCTYPE svg PUBLIC "-//W3C//DTD SVG 1.1//EN" "http://www.w3.org/Graphics/SVG/1.1/DTD/svg11.dtd" >
<svg xmlns="http://www.w3.org/2000/svg" xmlns:xlink="http://www.w3.org/1999/xlink" version="1.1">
<metadata>
Created by FontForge 20170731 at Wed May 11 17:04:30 2022
 By Aleksey,,,
Copyright (c) 2016 by Martin Va'cha. All rights reserved.
</metadata>
<defs>
<font id="HafferXHTRIAL-Regular" horiz-adv-x="1376" >
  <font-face 
    font-family="Haffer XH TRIAL"
    font-weight="400"
    font-stretch="normal"
    units-per-em="2048"
    panose-1="0 0 5 0 0 0 0 0 0 0"
    ascent="1659"
    descent="-389"
    x-height="1135"
    cap-height="1434"
    bbox="-25 -389.115 2126 1659"
    underline-thickness="102"
    underline-position="-307"
    unicode-range="U+000D-00A0"
  />
<missing-glyph horiz-adv-x="2205" 
d="M78 633q0 202 78 388.5t210 323.5t314.5 222t384.5 92v-2048q-202 7 -385 90.5t-315 220t-209.5 322.5t-77.5 389zM1139 -383v2034q83 -28 153 -172t111 -368.5t41 -477.5t-41 -477t-111 -367t-153 -172zM1802 633q0 -344 -142 -617t-366 -366q103 134 164.5 398.5
t61.5 584.5t-61 584.5t-165 402.5q146 -62 262 -207.5t181 -349.5t65 -430zM2126 633q0 -310 -171 -566t-452 -374q172 150 273.5 400t101.5 540q0 289 -101.5 541t-273.5 401q281 -119 452 -376t171 -566z" />
    <glyph glyph-name=".notdef" horiz-adv-x="2205" 
d="M78 633q0 202 78 388.5t210 323.5t314.5 222t384.5 92v-2048q-202 7 -385 90.5t-315 220t-209.5 322.5t-77.5 389zM1139 -383v2034q83 -28 153 -172t111 -368.5t41 -477.5t-41 -477t-111 -367t-153 -172zM1802 633q0 -344 -142 -617t-366 -366q103 134 164.5 398.5
t61.5 584.5t-61 584.5t-165 402.5q146 -62 262 -207.5t181 -349.5t65 -430zM2126 633q0 -310 -171 -566t-452 -374q172 150 273.5 400t101.5 540q0 289 -101.5 541t-273.5 401q281 -119 452 -376t171 -566z" />
    <glyph glyph-name=".null" horiz-adv-x="0" 
 />
    <glyph glyph-name="nonmarkingreturn" horiz-adv-x="682" 
 />
    <glyph glyph-name="CR" unicode="&#xd;" horiz-adv-x="493" 
 />
    <glyph glyph-name="space" unicode=" " horiz-adv-x="493" 
 />
    <glyph glyph-name="comma" unicode="," horiz-adv-x="415" 
d="M156 -223h-78l86 221q-35 8 -55.5 34t-20.5 66q0 51 31 82t82 31q49 0 80.5 -31.5t31.5 -79.5q0 -41 -28 -92z" />
    <glyph glyph-name="hyphen" unicode="-" horiz-adv-x="757" 
d="M676 541h-594v139h594v-139z" />
    <glyph glyph-name="period" unicode="." horiz-adv-x="428" 
d="M215 -8q-50 0 -81.5 30.5t-31.5 79.5q0 46 32 77.5t81 31.5q47 0 79 -31.5t32 -77.5q0 -49 -31.5 -79.5t-79.5 -30.5z" />
    <glyph glyph-name="zero" unicode="0" horiz-adv-x="1263" 
d="M631 -18q-251 0 -397 196.5t-146 538.5t146 538.5t397 196.5t398 -196.5t147 -538.5t-147 -538.5t-398 -196.5zM631 135q175 0 271.5 152t96.5 430t-96.5 429.5t-271.5 151.5t-271 -151.5t-96 -429.5t96 -430t271 -152z" />
    <glyph glyph-name="one" unicode="1" horiz-adv-x="739" 
d="M571 0h-176v1227q-100 -126 -342 -183v154q99 23 198 84t171 152h149v-1434z" />
    <glyph glyph-name="two" unicode="2" horiz-adv-x="1138" 
d="M1028 0h-973v141l549 498q126 114 185 203.5t59 179.5q0 123 -83 199.5t-212 76.5q-152 0 -236 -98t-73 -260h-174q-17 227 117 368.5t366 141.5q205 0 338 -119.5t133 -308.5q0 -129 -78 -248.5t-241 -255.5l-404 -366h727v-152z" />
    <glyph glyph-name="three" unicode="3" horiz-adv-x="1161" 
d="M637 856q203 0 319.5 -111.5t116.5 -306.5q0 -201 -143.5 -327.5t-370.5 -126.5q-216 0 -357 118t-153 326h166q9 -134 103.5 -213.5t240.5 -79.5q149 0 244.5 86t95.5 221q0 136 -85.5 215.5t-225.5 79.5q-101 0 -189 -45v148l424 442h-731v152h948v-142l-442 -438
q12 2 39 2z" />
    <glyph glyph-name="four" unicode="4" horiz-adv-x="1245" 
d="M977 0h-176v362h-758v140l731 932h203v-920h207v-152h-207v-362zM801 1233l-576 -719h576v719z" />
    <glyph glyph-name="five" unicode="5" horiz-adv-x="1167" 
d="M612 956q206 0 337.5 -135.5t131.5 -347.5q0 -217 -139 -353t-360 -136q-210 0 -352.5 116t-159.5 306h159q19 -123 114 -197t232 -74q146 0 239 95t93 243q0 152 -94 248t-242 96q-106 0 -188.5 -46.5t-128.5 -125.5h-143l110 789h758v-152h-629l-74 -475
q63 73 151.5 111t184.5 38z" />
    <glyph glyph-name="six" unicode="6" horiz-adv-x="1234" 
d="M653 946q214 0 353 -135t139 -344q0 -210 -144 -346.5t-366 -136.5q-174 0 -299 83.5t-186.5 229t-61.5 338.5q0 375 158.5 595t431.5 220q197 0 321 -92t146 -258h-166q-20 94 -102 148.5t-197 54.5q-91 0 -164.5 -35.5t-123 -95.5t-82.5 -143.5t-48 -176t-14 -195.5
q41 140 150.5 214.5t254.5 74.5zM973 471q1 149 -94.5 243.5t-245.5 94.5q-149 0 -245.5 -95.5t-96.5 -244.5q0 -148 96.5 -244t245.5 -96t244.5 96.5t95.5 245.5z" />
    <glyph glyph-name="seven" unicode="7" horiz-adv-x="1142" 
d="M483 0h-174q23 344 175.5 684t398.5 598h-815v152h1001v-152q-261 -288 -417 -628t-169 -654z" />
    <glyph glyph-name="eight" unicode="8" horiz-adv-x="1185" 
d="M596 -16q-217 0 -362.5 115t-145.5 294q0 136 80.5 236.5t226.5 130.5q-124 31 -199 121.5t-75 193.5q0 161 133 268t342 107q206 0 338.5 -107t132.5 -268q0 -106 -73.5 -196.5t-196.5 -118.5q143 -29 223 -130t80 -237q0 -179 -144.5 -294t-359.5 -115zM596 827
q131 0 215.5 67.5t85.5 174.5q2 107 -82 175.5t-219 68.5q-136 0 -222.5 -68.5t-84.5 -175.5q3 -107 89 -174.5t218 -67.5zM596 127q148 0 241 77t93 199q0 123 -93 200t-241 77q-149 0 -243.5 -77t-94.5 -200q0 -122 94.5 -199t243.5 -77z" />
    <glyph glyph-name="nine" unicode="9" horiz-adv-x="1234" 
d="M600 1450q174 0 299 -83.5t186.5 -229t61.5 -338.5q0 -375 -158.5 -595t-431.5 -220q-197 0 -321 92t-146 258h166q20 -94 102 -148.5t197 -54.5q91 0 164.5 35t123 95.5t82.5 143.5t48 175.5t14 195.5q-41 -140 -150.5 -214.5t-254.5 -74.5q-214 0 -353 135.5
t-139 344.5q0 210 144 346.5t366 136.5zM602 625q149 0 245.5 95.5t96.5 244.5q0 148 -96.5 244t-245.5 96t-244.5 -96.5t-95.5 -245.5q-1 -149 94.5 -243.5t245.5 -94.5z" />
    <glyph glyph-name="A" unicode="A" horiz-adv-x="1384" 
d="M1366 0h-190l-148 375h-678l-149 -375h-183l574 1434h205zM596 989l-184 -463h555l-183 463l-90 244h-8q-37 -109 -90 -244z" />
    <glyph glyph-name="B" unicode="B" horiz-adv-x="1277" 
d="M719 0h-551v1434h549q178 0 291.5 -98.5t113.5 -254.5q0 -111 -70.5 -197.5t-174.5 -111.5q133 -24 222 -125t89 -235q0 -182 -132.5 -297t-336.5 -115zM344 1282v-451h350q110 0 184 64.5t74 163.5q0 97 -74 160t-184 63h-350zM344 690v-538h361q133 0 220 76t87 194
t-87 193t-220 75h-361z" />
    <glyph glyph-name="C" unicode="C" horiz-adv-x="1464" 
d="M782 -18q-152 0 -280.5 51.5t-220 145t-142.5 232t-51 306.5t52 306.5t144 232t220 145t278 51.5q247 0 408.5 -124.5t187.5 -336.5h-180q-23 138 -138 222.5t-280 84.5q-231 0 -373.5 -157t-142.5 -424t142.5 -424.5t373.5 -157.5q169 0 286.5 89t137.5 227h180
q-29 -220 -193 -344.5t-409 -124.5z" />
    <glyph glyph-name="D" unicode="D" horiz-adv-x="1378" 
d="M586 0h-436v1434h436q148 0 277 -49.5t225 -140t151 -226.5t55 -301t-55 -301t-151 -226.5t-225 -140t-277 -49.5zM326 1282v-1130h243q238 0 393.5 152.5t155.5 412.5t-155.5 412.5t-393.5 152.5h-243z" />
    <glyph glyph-name="E" unicode="E" horiz-adv-x="1216" 
d="M1087 0h-919v1434h915v-152h-739v-461h606v-151h-606v-518h743v-152z" />
    <glyph glyph-name="F" unicode="F" horiz-adv-x="1181" 
d="M344 0h-176v1434h915v-152h-739v-461h606v-151h-606v-670z" />
    <glyph glyph-name="G" unicode="G" horiz-adv-x="1519" 
d="M776 -16q-149 0 -275 50.5t-218 143.5t-143.5 231.5t-51.5 307.5t53 308t146 232t221.5 144t279.5 51q240 0 402 -126t188 -335h-178q-25 139 -139.5 223t-282.5 84q-231 0 -372.5 -158.5t-141.5 -422.5q0 -265 142.5 -423.5t377.5 -158.5q200 0 323 126.5t126 326.5
h-514v143h674v-731h-160v287q-49 -150 -171.5 -226.5t-285.5 -76.5z" />
    <glyph glyph-name="H" unicode="H" horiz-adv-x="1460" 
d="M1118 836v598h176v-1434h-176v682h-774v-682h-176v1434h176v-598h774z" />
    <glyph glyph-name="I" unicode="I" horiz-adv-x="509" 
d="M344 0h-176v1434h176v-1434z" />
    <glyph glyph-name="J" unicode="J" horiz-adv-x="716" 
d="M59 2v156q46 -19 115 -19q92 0 145.5 62.5t53.5 167.5v1065h176v-1072q0 -178 -92 -278t-248 -100q-83 0 -150 18z" />
    <glyph glyph-name="K" unicode="K" horiz-adv-x="1323" 
d="M1305 0h-215l-531 752l-213 -215v-537h-176l-2 1434h176v-664l664 664h233l-563 -564z" />
    <glyph glyph-name="L" unicode="L" horiz-adv-x="1175" 
d="M1047 0h-879v1434h176v-1282h703v-152z" />
    <glyph glyph-name="M" unicode="M" horiz-adv-x="1839" 
d="M344 0h-176v1434h256l502 -1192l499 1192h248v-1434h-176v932q0 64 2 134t4 108l2 38l-6 2q-45 -129 -102 -264l-398 -950h-155l-400 950q-25 60 -50.5 125.5t-38.5 100.5l-13 36l-6 -2q8 -135 8 -280v-930z" />
    <glyph glyph-name="N" unicode="N" horiz-adv-x="1425" 
d="M326 0h-176v1434h231l588 -977q33 -56 66.5 -117.5t50.5 -95.5l18 -33l6 2q-10 136 -10 281v940h176v-1434h-229l-588 977q-34 56 -68 117.5t-51 95.5l-18 33l-7 -2q11 -136 11 -281v-940z" />
    <glyph glyph-name="O" unicode="O" horiz-adv-x="1585" 
d="M791 -18q-200 0 -361 94.5t-251.5 262.5t-90.5 378t90.5 378t251.5 262.5t361 94.5q150 0 281 -55.5t224.5 -152t147 -233.5t53.5 -294t-53.5 -294t-147 -233.5t-224.5 -152t-281 -55.5zM791 135q231 0 380.5 164.5t149.5 417.5q0 252 -149.5 416.5t-380.5 164.5
q-229 0 -378 -164t-149 -417t149 -417.5t378 -164.5z" />
    <glyph glyph-name="P" unicode="P" horiz-adv-x="1204" 
d="M326 0h-176v1434h552q199 0 324 -114.5t125 -297.5t-125 -297.5t-324 -114.5h-376v-610zM326 1282v-518h360q129 0 210 71.5t81 186.5t-81 187.5t-210 72.5h-360z" />
    <glyph glyph-name="Q" unicode="Q" horiz-adv-x="1652" 
d="M1337 152h260v-152h-651q-74 -18 -155 -18q-200 0 -361 94.5t-251.5 262.5t-90.5 378t90.5 378t251.5 262.5t361 94.5q150 0 281 -55.5t224.5 -152t147 -233.5t53.5 -294q0 -172 -71 -322t-195 -252q88 9 106 9zM264 717q0 -253 149 -417.5t378 -164.5q231 0 380.5 164.5
t149.5 417.5q0 252 -149.5 416.5t-380.5 164.5q-229 0 -378 -164t-149 -417z" />
    <glyph glyph-name="R" unicode="R" horiz-adv-x="1267" 
d="M809 666l432 -666h-205l-413 649h-297v-649h-176v1434h528q191 0 311.5 -109.5t120.5 -282.5q0 -135 -82 -237t-219 -139zM651 1282h-325v-481h325q126 0 204.5 67t78.5 174q0 106 -78.5 173t-204.5 67z" />
    <glyph glyph-name="S" unicode="S" horiz-adv-x="1204" 
d="M616 -18q-141 0 -258.5 55.5t-195.5 163.5t-96 252h172q24 -141 126.5 -229.5t251.5 -88.5q153 0 243.5 66t90.5 180q0 63 -28.5 111t-76 78t-109.5 53.5t-131 42.5t-137.5 40t-130.5 51t-109.5 70t-76 102.5t-28.5 143.5q0 171 135 275t350 104q189 0 325.5 -103.5
t166.5 -285.5h-172q-25 104 -111.5 169.5t-208.5 65.5q-147 0 -228 -58t-81 -161q0 -55 28.5 -95.5t76 -66t109.5 -45.5t130.5 -38t137.5 -39t131 -54t109.5 -77t76 -114t28.5 -159q0 -185 -140 -297t-370 -112z" />
    <glyph glyph-name="T" unicode="T" horiz-adv-x="1165" 
d="M39 1434h1089v-152h-456v-1282h-176v1282h-457v152z" />
    <glyph glyph-name="U" unicode="U" horiz-adv-x="1435" 
d="M719 -16q-244 0 -397.5 143.5t-153.5 372.5v934h176v-934q0 -160 105 -262.5t270 -102.5t270 102.5t105 262.5v934h176v-934q0 -229 -153.5 -372.5t-397.5 -143.5z" />
    <glyph glyph-name="V" unicode="V" horiz-adv-x="1368" 
d="M786 0h-206l-545 1434h188l373 -990l88 -245h6q37 110 88 245l373 990h182z" />
    <glyph glyph-name="W" unicode="W" horiz-adv-x="2091" 
d="M686 0h-207l-444 1434h186l293 -983l70 -252h6q28 115 67 252l285 983h211l289 -983q18 -62 35 -125t25 -95l7 -32h9q26 113 67 252l291 983h178l-442 -1434h-207l-287 965l-69 249h-7q-28 -112 -69 -249z" />
    <glyph glyph-name="X" unicode="X" horiz-adv-x="1236" 
d="M717 768l489 -768h-207l-385 606l-387 -606h-196l485 760l-430 674h207l325 -512l326 512h197z" />
    <glyph glyph-name="Y" unicode="Y" horiz-adv-x="1232" 
d="M1026 1434h197l-518 -834v-600h-177v596l-518 838h207l404 -662z" />
    <glyph glyph-name="Z" unicode="Z" horiz-adv-x="1208" 
d="M1128 0h-1077v141l871 1141h-824v152h1028v-142l-870 -1140h872v-152z" />
    <glyph glyph-name="a" unicode="a" horiz-adv-x="1189" 
d="M578 1153q204 0 333 -114.5t129 -307.5v-731h-161v217q-44 -107 -152 -171t-246 -64q-163 0 -267.5 88.5t-104.5 224.5q0 174 133.5 260.5t412.5 116.5l224 24v56q0 119 -85.5 195.5t-215.5 76.5t-215.5 -75.5t-94.5 -192.5h-157q15 181 146.5 289t320.5 108zM514 121
q169 0 267 112.5t98 301.5v34l-222 -24q-202 -21 -295.5 -74t-93.5 -166q0 -83 67.5 -133.5t178.5 -50.5z" />
    <glyph glyph-name="b" unicode="b" 
d="M729 1151q238 0 394.5 -164t156.5 -420t-157 -419.5t-396 -163.5q-129 0 -242 63.5t-170 167.5v-215h-165v1450h165v-530q58 104 170.5 167.5t243.5 63.5zM715 129q173 0 285 123t112 315t-112 315.5t-285 123.5q-174 0 -287 -123t-113 -316t113 -315.5t287 -122.5z" />
    <glyph glyph-name="c" unicode="c" horiz-adv-x="1245" 
d="M649 -16q-239 0 -396 164t-157 419t157 419.5t396 164.5q197 0 334.5 -102.5t167.5 -280.5h-166q-22 104 -114 171t-222 67q-166 0 -275.5 -123.5t-109.5 -315.5t110.5 -315t274.5 -123q138 0 231.5 69t112.5 177h170q-25 -177 -166 -284t-348 -107z" />
    <glyph glyph-name="d" unicode="d" 
d="M1061 920v530h166v-1450h-166v215q-57 -104 -170 -167.5t-242 -63.5q-239 0 -396 163.5t-157 419.5t156.5 420t394.5 164q131 0 243.5 -63.5t170.5 -167.5zM662 129q174 0 286.5 122.5t112.5 315.5t-112.5 316t-286.5 123q-173 0 -285.5 -123.5t-112.5 -315.5t112 -315
t286 -123z" />
    <glyph glyph-name="e" unicode="e" horiz-adv-x="1257" 
d="M1161 645l-6 -90h-897q3 -195 110 -313.5t279 -118.5q134 0 223 62.5t115 174.5h168q-33 -186 -170 -282t-340 -96q-124 0 -228 47t-173.5 127t-107.5 186t-38 225q0 160 63.5 292t189 213t292.5 81q123 0 223.5 -42.5t164 -113.5t98 -161.5t34.5 -190.5zM268 682h719
q-2 150 -96 246t-250 96q-146 0 -245.5 -91.5t-127.5 -250.5z" />
    <glyph glyph-name="f" unicode="f" horiz-adv-x="811" 
d="M616 1378q-79 0 -126.5 -54t-47.5 -155v-34h299v-138h-299v-997h-166v997h-194v138h194v47q0 165 88 253.5t232 88.5q88 0 147 -27v-145q-63 26 -127 26z" />
    <glyph glyph-name="g" unicode="g" horiz-adv-x="1335" 
d="M1028 922v213h166v-1020q0 -154 -73.5 -270t-196 -175t-275.5 -59q-209 0 -353 96t-167 262h162q15 -97 116 -158t242 -61q161 0 270 98.5t109 266.5v180q-47 -106 -155 -169t-242 -63q-237 0 -385 150.5t-148 392.5q0 245 147.5 396t383.5 151q131 0 239.5 -62.5
t159.5 -168.5zM651 205q170 0 278.5 112t108.5 289q0 180 -108.5 294t-278.5 114t-278.5 -114t-108.5 -294q0 -177 108.5 -289t278.5 -112z" />
    <glyph glyph-name="h" unicode="h" horiz-adv-x="1294" 
d="M721 1151q195 0 309.5 -107.5t114.5 -287.5v-756h-166v721q0 127 -80.5 203.5t-214.5 76.5q-158 0 -263.5 -147.5t-105.5 -368.5v-485h-165v1450h165v-567q57 123 167 195.5t239 72.5z" />
    <glyph glyph-name="i" unicode="i" horiz-adv-x="464" 
d="M233 1321q-51 0 -83.5 31.5t-32.5 81.5q0 46 33 78t83 32q47 0 81 -32t34 -78q0 -49 -33.5 -81t-81.5 -32zM315 0h-165v1135h165v-1135z" />
    <glyph glyph-name="j" unicode="j" horiz-adv-x="464" 
d="M229 1321q-51 0 -83.5 31.5t-32.5 81.5q0 46 33 78t83 32q47 0 81 -32t34 -78q0 -49 -33.5 -81t-81.5 -32zM18 -389l-43 2v141h35q140 0 140 172v1209h165v-1227q0 -149 -81 -224.5t-216 -72.5z" />
    <glyph glyph-name="k" unicode="k" horiz-adv-x="1175" 
d="M1145 0h-203l-453 590l-174 -156v-434h-165v1450h165v-809l564 494h225l-490 -435z" />
    <glyph glyph-name="l" unicode="l" horiz-adv-x="464" 
d="M315 0h-165v1450h165v-1450z" />
    <glyph glyph-name="m" unicode="m" horiz-adv-x="2000" 
d="M1462 1151q177 0 284 -107.5t107 -287.5v-756h-165v721q0 127 -74.5 203.5t-196.5 76.5q-150 0 -242 -141t-92 -375v-485h-165v721q0 127 -73.5 203.5t-195.5 76.5q-151 0 -242.5 -141t-91.5 -375v-485h-165v1135h165v-279q37 128 141.5 211.5t237.5 83.5
q150 0 252 -83.5t115 -221.5q56 140 164 222.5t237 82.5z" />
    <glyph glyph-name="n" unicode="n" horiz-adv-x="1294" 
d="M721 1151q195 0 309.5 -107.5t114.5 -287.5v-756h-166v721q0 127 -80.5 203.5t-214.5 76.5q-158 0 -263.5 -147.5t-105.5 -368.5v-485h-165v1135h165v-252q57 123 167 195.5t239 72.5z" />
    <glyph glyph-name="o" unicode="o" horiz-adv-x="1325" 
d="M662 -16q-248 0 -407 163.5t-159 419.5t159 420t407 164t407.5 -164t159.5 -420t-159.5 -419.5t-407.5 -163.5zM662 129q174 0 286.5 122.5t112.5 315.5t-112.5 316t-286.5 123t-286 -123t-112 -316t112 -315.5t286 -122.5z" />
    <glyph glyph-name="p" unicode="p" 
d="M727 1151q239 0 396 -164t157 -420t-156.5 -419.5t-394.5 -163.5q-131 0 -243.5 63.5t-170.5 167.5v-526h-165v1446h165v-215q57 104 170 167.5t242 63.5zM715 129q173 0 285 123t112 315t-112 315.5t-285 123.5q-174 0 -287 -123t-113 -316t113 -315.5t287 -122.5z" />
    <glyph glyph-name="q" unicode="q" 
d="M1061 920v215h166v-1446h-166v526q-58 -104 -170.5 -167.5t-243.5 -63.5q-238 0 -394.5 163.5t-156.5 419.5t157 420t396 164q129 0 242 -63.5t170 -167.5zM662 129q174 0 286.5 122.5t112.5 315.5t-112.5 316t-286.5 123q-173 0 -285.5 -123.5t-112.5 -315.5t112 -315
t286 -123z" />
    <glyph glyph-name="r" unicode="r" horiz-adv-x="870" 
d="M807 1128v-159q-86 28 -152 28q-153 0 -246.5 -148.5t-93.5 -412.5v-436h-165v1135h165v-316q35 155 133 244.5t224 89.5q87 0 135 -25z" />
    <glyph glyph-name="s" unicode="s" horiz-adv-x="1024" 
d="M522 -18q-192 0 -315.5 101t-130.5 277h157q4 -116 84 -181.5t205 -65.5q117 0 186.5 53.5t69.5 142.5q0 66 -37.5 110t-97 66.5t-131.5 40t-144 38.5t-131.5 52t-97 91.5t-37.5 146.5q0 133 109 216t281 83t286 -90.5t127 -245.5h-162q-7 95 -78.5 153t-170.5 58
q-107 0 -172.5 -46.5t-65.5 -123.5q0 -45 23 -77t62 -50t90 -31.5t107 -25.5t112 -26.5t107 -40.5t90 -62t62 -96t23 -138q0 -148 -113.5 -238.5t-296.5 -90.5z" />
    <glyph glyph-name="t" unicode="t" horiz-adv-x="770" 
d="M692 1135v-138h-299v-661q0 -100 46 -153.5t124 -53.5q77 0 129 25v-144q-51 -28 -145 -28q-144 0 -232 89t-88 253v673h-194v138h194v235h166v-235h299z" />
    <glyph glyph-name="u" unicode="u" horiz-adv-x="1294" 
d="M979 649v486h166v-1135h-166v252q-57 -123 -167 -195.5t-239 -72.5q-194 0 -308.5 107t-114.5 288v756h165v-721q0 -127 80.5 -204t214.5 -77q158 0 263.5 147.5t105.5 368.5z" />
    <glyph glyph-name="v" unicode="v" horiz-adv-x="1122" 
d="M647 0h-172l-442 1135h180l260 -689q24 -61 46 -122t32 -92l10 -31h6q37 110 88 245l260 689h175z" />
    <glyph glyph-name="w" unicode="w" horiz-adv-x="1812" 
d="M1380 451l228 684h172l-400 -1135h-166l-225 666q-21 61 -40.5 122.5t-28.5 93.5l-9 31h-8q-31 -110 -78 -247l-225 -666h-168l-399 1135h178l227 -684q21 -62 40.5 -124.5t28.5 -94.5l9 -31h6q33 113 78 250l227 684h164l228 -684q21 -62 40 -124.5t28 -94.5l9 -31h7
q32 113 77 250z" />
    <glyph glyph-name="x" unicode="x" horiz-adv-x="1081" 
d="M639 594l401 -594h-200l-301 446l-303 -446h-195l399 590l-368 545h200l269 -398l268 398h195z" />
    <glyph glyph-name="y" unicode="y" horiz-adv-x="1118" 
d="M651 471l258 664h176l-573 -1446h-172l133 331l-440 1115h178l256 -664l90 -246h6q37 111 88 246z" />
    <glyph glyph-name="z" unicode="z" horiz-adv-x="1099" 
d="M1016 0h-938v129l727 868h-688v138h897v-129l-727 -869h729v-137z" />
    <glyph glyph-name="uni00A0" unicode="&#xa0;" horiz-adv-x="493" 
 />
    <glyph glyph-name="G.ss05" horiz-adv-x="1490" 
d="M776 -16q-210 0 -369 91.5t-244 256.5t-85 381q0 331 192 534t506 203q241 0 403.5 -124t186.5 -335h-176q-22 138 -136.5 222.5t-277.5 84.5q-236 0 -379 -160.5t-143 -422.5q0 -261 142 -420.5t382 -159.5q208 0 322 119t117 334h-508v143h690v-61q0 -172 -47.5 -305
t-133 -215.5t-197 -124t-245.5 -41.5z" />
    <glyph glyph-name="a.ss01" horiz-adv-x="1386" 
d="M1061 920v215h166v-1135h-166v215q-57 -104 -170 -167.5t-242 -63.5q-239 0 -396 163.5t-157 419.5t156.5 420t394.5 164q131 0 243.5 -63.5t170.5 -167.5zM662 129q174 0 286.5 122.5t112.5 315.5t-112.5 316t-286.5 123q-173 0 -285.5 -123.5t-112.5 -315.5t112 -315
t286 -123z" />
    <glyph glyph-name="g.ss02" horiz-adv-x="1081" 
d="M379 250h313q179 0 275 -78.5t96 -220.5q0 -91 -39 -158t-109.5 -106t-160 -57.5t-199.5 -18.5q-154 0 -267.5 34t-179 106.5t-65.5 178.5q0 148 127 242q-88 59 -88 160q0 121 139 215q-80 96 -80 235q0 165 110.5 266t289.5 101q66 0 118 -14h379v-138h-102
q-41 0 -68 2q72 -94 72 -217q0 -167 -110.5 -268.5t-288.5 -101.5q-128 0 -224 55q-79 -62 -79 -115q0 -45 38 -73.5t103 -28.5zM539 1018q-110 0 -177 -65t-67 -171q0 -107 67 -173t177 -66q112 0 179.5 65.5t67.5 173.5q0 106 -67.5 171t-179.5 65zM555 -266
q170 0 260 52.5t90 156.5q0 87 -60.5 131.5t-164.5 44.5h-307q-28 0 -68 4q-102 -71 -102 -180q0 -103 91.5 -156t260.5 -53z" />
    <glyph glyph-name="l.ss04" horiz-adv-x="495" 
d="M430 135v-147q-133 -16 -213 43.5t-80 210.5v1208h164v-1192q0 -77 33 -103.5t96 -19.5z" />
    <glyph glyph-name="y.ss06" horiz-adv-x="1118" 
d="M213 1135l254 -662l90 -246h6q37 111 88 246l256 662h176l-503 -1272q-86 -215 -322 -215q-81 0 -182 49v149q98 -53 176 -53q130 0 180 129l41 103l-440 1110h180z" />
    <glyph glyph-name="three.ss03" horiz-adv-x="1175" 
d="M594 -16q-217 0 -359 117.5t-157 320.5h174q11 -129 100.5 -208t237.5 -79t239 74.5t91 193.5q0 126 -90 195.5t-242 69.5h-111v141h82q135 0 221 69t86 183q0 106 -77 171.5t-201 65.5q-134 0 -220 -77.5t-85 -204.5h-166q-1 193 133 313.5t342 120.5q192 0 318 -105
t126 -272q0 -116 -69 -202t-193 -126q145 -19 230.5 -115t85.5 -239q0 -179 -139.5 -293t-356.5 -114z" />
    </font>
</defs>
</svg>
