<?xml version="1.0" standalone="no"?>
<!DOCTYPE svg PUBLIC "-//W3C//DTD SVG 1.1//EN" "http://www.w3.org/Graphics/SVG/1.1/DTD/svg11.dtd" >
<svg xmlns="http://www.w3.org/2000/svg" xmlns:xlink="http://www.w3.org/1999/xlink" version="1.1">
<metadata>
Created by FontForge 20170731 at Wed May 11 17:04:30 2022
 By Aleksey,,,
Copyright (c) 2016 by Martin Va'cha. All rights reserved.
</metadata>
<defs>
<font id="HafferXHTRIAL-Light" horiz-adv-x="450" >
  <font-face 
    font-family="Haffer XH TRIAL Light"
    font-weight="300"
    font-stretch="normal"
    units-per-em="2048"
    panose-1="0 0 4 0 0 0 0 0 0 0"
    ascent="1659"
    descent="-389"
    x-height="1135"
    cap-height="1434"
    bbox="-12 -389.059 2134 1659"
    underline-thickness="102"
    underline-position="-307"
    unicode-range="U+000D-00A0"
  />
<missing-glyph horiz-adv-x="2220" 
d="M86 633q0 202 78 388.5t210 323.5t314.5 222t384.5 92v-2048q-202 7 -385 90.5t-315 220t-209.5 322.5t-77.5 389zM1147 -383v2034q83 -28 153 -172t111 -368.5t41 -477.5t-41 -477t-111 -367t-153 -172zM1810 633q0 -227 -64.5 -430.5t-180 -347.5t-262.5 -205
q103 134 164 398t61 585t-61 585.5t-164 401.5q146 -62 261.5 -207.5t180.5 -349.5t65 -430zM2134 633q0 -310 -171 -566t-452 -374q172 150 273.5 400t101.5 540q0 289 -101.5 541t-273.5 401q281 -119 452 -376t171 -566z" />
    <glyph glyph-name=".notdef" horiz-adv-x="2220" 
d="M86 633q0 202 78 388.5t210 323.5t314.5 222t384.5 92v-2048q-202 7 -385 90.5t-315 220t-209.5 322.5t-77.5 389zM1147 -383v2034q83 -28 153 -172t111 -368.5t41 -477.5t-41 -477t-111 -367t-153 -172zM1810 633q0 -227 -64.5 -430.5t-180 -347.5t-262.5 -205
q103 134 164 398t61 585t-61 585.5t-164 401.5q146 -62 261.5 -207.5t180.5 -349.5t65 -430zM2134 633q0 -310 -171 -566t-452 -374q172 150 273.5 400t101.5 540q0 289 -101.5 541t-273.5 401q281 -119 452 -376t171 -566z" />
    <glyph glyph-name=".null" horiz-adv-x="0" 
 />
    <glyph glyph-name="nonmarkingreturn" horiz-adv-x="682" 
 />
    <glyph glyph-name="CR" unicode="&#xd;" horiz-adv-x="495" 
 />
    <glyph glyph-name="space" unicode=" " horiz-adv-x="495" 
 />
    <glyph glyph-name="comma" unicode="," horiz-adv-x="395" 
d="M141 -209h-63l84 207q-32 6 -50 29.5t-18 58.5q0 43 26.5 69.5t67.5 26.5q42 0 69.5 -27t27.5 -67q0 -34 -23 -78z" />
    <glyph glyph-name="hyphen" unicode="-" horiz-adv-x="739" 
d="M653 555h-567v109h567v-109z" />
    <glyph glyph-name="period" unicode="." horiz-adv-x="409" 
d="M207 -6q-44 0 -71 26t-27 68q0 40 27 67t71 27q40 0 67 -27t27 -67q0 -41 -27 -67.5t-67 -26.5z" />
    <glyph glyph-name="zero" unicode="0" horiz-adv-x="1243" 
d="M621 -18q-245 0 -387 196t-142 539t142 539t387 196q248 0 389 -195.5t141 -539.5t-141 -539.5t-389 -195.5zM621 102q186 0 289.5 161.5t103.5 453.5q0 291 -103.5 452.5t-289.5 161.5t-289 -161t-103 -453t103 -453.5t289 -161.5z" />
    <glyph glyph-name="one" unicode="1" horiz-adv-x="710" 
d="M530 0h-137v1264q-103 -136 -346 -191v121q104 21 198.5 82.5t164.5 157.5h120v-1434z" />
    <glyph glyph-name="two" unicode="2" horiz-adv-x="1126" 
d="M1012 0h-955v113l559 516q131 122 191.5 214.5t60.5 188.5q0 133 -90.5 215t-230.5 82q-163 0 -253.5 -103.5t-78.5 -273.5h-137q-15 223 115 360.5t354 137.5q201 0 330 -116t129 -302q0 -127 -75.5 -243.5t-234.5 -253.5l-448 -414h764v-121z" />
    <glyph glyph-name="three" unicode="3" horiz-adv-x="1144" 
d="M621 852q198 0 315 -111.5t117 -306.5q0 -199 -141 -324.5t-361 -125.5q-210 0 -348.5 116t-153.5 314h131q10 -140 112 -225t257 -85q160 0 263 92.5t103 239.5q0 149 -90.5 234.5t-238.5 85.5q-101 0 -193 -45v118l461 484h-762v121h932v-113l-465 -475q27 6 62 6z" />
    <glyph glyph-name="four" unicode="4" horiz-adv-x="1228" 
d="M952 0h-139v383h-772v115l743 936h168v-930h215v-121h-215v-383zM813 1282l-627 -778h627v778z" />
    <glyph glyph-name="five" unicode="5" horiz-adv-x="1161" 
d="M596 958q207 0 340 -136.5t133 -350.5q0 -215 -138 -351t-356 -136q-205 0 -344 113t-159 300h125q19 -133 122.5 -213t253.5 -80q157 0 258 103t101 264q0 164 -101.5 269.5t-259.5 105.5q-118 0 -207.5 -51t-138.5 -138h-110l108 777h746v-121h-643l-80 -516
q66 78 158 119.5t192 41.5z" />
    <glyph glyph-name="six" unicode="6" horiz-adv-x="1224" 
d="M641 946q214 0 351.5 -135t137.5 -344q0 -212 -141 -347.5t-360 -135.5q-259 0 -398 176t-139 471q0 377 158 598t428 221q188 0 309.5 -86.5t142.5 -245.5h-131q-21 102 -109.5 158.5t-211.5 56.5q-99 0 -179 -39t-133 -105.5t-88 -158.5t-50 -195t-13 -217
q40 160 155.5 244t270.5 84zM627 100q162 0 265 103.5t103 265.5q0 161 -102.5 264t-265.5 103q-161 0 -265 -104t-104 -265q0 -160 104 -263.5t265 -103.5z" />
    <glyph glyph-name="seven" unicode="7" horiz-adv-x="1136" 
d="M455 0h-138q23 354 180 701.5t412 611.5h-839v121h987v-121q-268 -288 -427.5 -635t-174.5 -678z" />
    <glyph glyph-name="eight" unicode="8" horiz-adv-x="1181" 
d="M596 -16q-142 0 -257 51t-181 144.5t-66 211.5q0 135 85.5 238t236.5 131q-132 31 -210.5 123t-78.5 196q0 161 132.5 266t338.5 105q200 0 330.5 -105.5t130.5 -265.5q0 -108 -76 -199.5t-205 -119.5q147 -27 230.5 -130t83.5 -239q0 -178 -141.5 -292.5t-352.5 -114.5z
M596 815q140 0 232.5 72.5t93.5 187.5q3 117 -88 190.5t-238 73.5q-151 0 -245 -73.5t-91 -190.5q1 -115 96 -187.5t240 -72.5zM594 98q158 0 260 84t102 215q0 132 -102 216.5t-260 84.5q-161 0 -265 -84.5t-104 -216.5q0 -131 104 -215t265 -84z" />
    <glyph glyph-name="nine" unicode="9" horiz-adv-x="1224" 
d="M596 1450q259 0 398 -176t139 -471q0 -377 -158 -598t-428 -221q-188 0 -310 86.5t-143 244.5h131q21 -102 109.5 -158.5t212.5 -56.5q99 0 179 39t133 105.5t88 158.5t50 195t13 217q-40 -160 -155.5 -244t-270.5 -84q-214 0 -352 135.5t-138 344.5q0 212 141.5 347.5
t360.5 135.5zM598 598q161 0 265 104t104 265q0 160 -104 263t-265 103q-162 0 -265.5 -103.5t-103.5 -264.5t103 -264t266 -103z" />
    <glyph glyph-name="A" unicode="A" horiz-adv-x="1363" 
d="M1341 0h-147l-160 397h-710l-162 -397h-142l580 1434h166zM592 1059l-219 -541h612l-217 541l-84 225h-8q-35 -98 -84 -225z" />
    <glyph glyph-name="B" unicode="B" horiz-adv-x="1271" 
d="M713 0h-533v1434h531q173 0 287 -98.5t114 -252.5q0 -115 -75 -202.5t-183 -108.5q135 -22 228.5 -124.5t93.5 -239.5q0 -179 -132 -293.5t-331 -114.5zM317 1313v-492h379q120 0 201.5 70t81.5 178q0 106 -81.5 175t-201.5 69h-379zM317 707v-586h385q142 0 238 83.5
t96 211.5q0 126 -96 208.5t-238 82.5h-385z" />
    <glyph glyph-name="C" unicode="C" horiz-adv-x="1449" 
d="M780 -18q-203 0 -358.5 89t-242.5 256.5t-87 389.5q0 336 190 535.5t498 199.5q239 0 397.5 -121.5t186.5 -326.5h-139q-25 148 -146.5 237.5t-298.5 89.5q-248 0 -399.5 -166.5t-151.5 -447.5t151.5 -448t399.5 -167q180 0 304.5 93.5t146.5 242.5h139
q-29 -211 -190 -333.5t-400 -122.5z" />
    <glyph glyph-name="D" unicode="D" horiz-adv-x="1363" 
d="M575 0h-419v1434h419q197 0 355.5 -87t251 -251.5t92.5 -378.5t-92.5 -378.5t-251 -251.5t-355.5 -87zM293 1313v-1192h270q250 0 412 163.5t162 432.5t-162 432.5t-412 163.5h-270z" />
    <glyph glyph-name="E" unicode="E" horiz-adv-x="1214" 
d="M1077 0h-897v1434h893v-121h-756v-504h625v-121h-625v-567h760v-121z" />
    <glyph glyph-name="F" unicode="F" horiz-adv-x="1177" 
d="M317 0h-137v1434h893v-121h-756v-504h625v-121h-625v-688z" />
    <glyph glyph-name="G" unicode="G" horiz-adv-x="1511" 
d="M774 -16q-199 0 -353 87.5t-241.5 255t-87.5 390.5q0 168 51.5 306.5t142.5 232t218.5 145t277.5 51.5q236 0 395 -122t187 -326h-139q-25 147 -147 237t-300 90q-248 0 -398.5 -167.5t-150.5 -446.5t151 -447t400 -168q217 0 347 139.5t130 362.5h-546v115h671v-719
h-127v317q-51 -167 -179 -250t-302 -83z" />
    <glyph glyph-name="H" unicode="H" horiz-adv-x="1460" 
d="M1141 823v611h139v-1434h-139v705h-824v-705h-137v1434h137v-611h824z" />
    <glyph glyph-name="I" unicode="I" horiz-adv-x="497" 
d="M317 0h-137v1434h137v-1434z" />
    <glyph glyph-name="J" unicode="J" horiz-adv-x="702" 
d="M61 4v121q55 -19 119 -19q94 0 149.5 66t55.5 178v1084h137v-1090q0 -168 -86 -264t-233 -96q-84 0 -142 20z" />
    <glyph glyph-name="K" unicode="K" horiz-adv-x="1298" 
d="M1276 0h-168l-559 780l-230 -225l3 -555h-140l-2 1434h137l2 -697l707 697h184l-567 -560z" />
    <glyph glyph-name="L" unicode="L" horiz-adv-x="1173" 
d="M1036 0h-856v1434h137v-1313h719v-121z" />
    <glyph glyph-name="M" unicode="M" horiz-adv-x="1826" 
d="M319 0h-139v1434h205l533 -1258l532 1258h197v-1434h-138v1014q0 61 1.5 124.5t3.5 96.5l2 33l-7 2q-39 -113 -92 -238l-436 -1032h-133l-436 1032q-24 56 -47 115t-35 90l-11 31l-6 -2q6 -117 6 -254v-1012z" />
    <glyph glyph-name="N" unicode="N" horiz-adv-x="1409" 
d="M293 0h-137v1434h188l649 -1059q32 -52 63.5 -106.5t46.5 -83.5l15 -29l6 2q-8 117 -8 252v1024h139v-1434h-188l-649 1059q-32 52 -64 107t-48 84l-15 28l-6 -2q8 -117 8 -252v-1024z" />
    <glyph glyph-name="O" unicode="O" horiz-adv-x="1576" 
d="M786 -18q-198 0 -356.5 94.5t-248 262.5t-89.5 378t89.5 378t248 262.5t356.5 94.5q148 0 278 -55.5t222.5 -152t145.5 -233.5t53 -294t-53 -294t-145.5 -233.5t-222.5 -152t-278 -55.5zM786 102q244 0 403 174t159 441t-159 440.5t-403 173.5q-119 0 -222.5 -46
t-177 -127t-115.5 -195t-42 -246q0 -176 71.5 -316.5t199 -219.5t286.5 -79z" />
    <glyph glyph-name="P" unicode="P" horiz-adv-x="1191" 
d="M293 0h-137v1434h540q195 0 318 -112.5t123 -289.5q0 -178 -123 -289.5t-318 -111.5h-403v-631zM293 1313v-563h393q138 0 225.5 79t87.5 203t-87.5 202.5t-225.5 78.5h-393z" />
    <glyph glyph-name="Q" unicode="Q" horiz-adv-x="1644" 
d="M1294 121h293v-121h-645q-76 -18 -156 -18q-198 0 -356.5 94.5t-248 262.5t-89.5 378t89.5 378t248 262.5t356.5 94.5q148 0 278 -55.5t222.5 -152t145.5 -233.5t53 -294q0 -188 -81.5 -346.5t-221.5 -259.5q68 10 112 10zM229 717q0 -176 71.5 -316.5t199 -219.5
t286.5 -79q244 0 403 174t159 441t-159 440.5t-403 173.5q-119 0 -222.5 -46t-177 -127t-115.5 -195t-42 -246z" />
    <glyph glyph-name="R" unicode="R" horiz-adv-x="1249" 
d="M768 680l453 -680h-162l-438 672h-328v-672h-137v1434h514q188 0 306 -106t118 -275q0 -140 -89 -242t-237 -131zM653 1313h-360v-520h360q135 0 219 72t84 188t-84 188t-219 72z" />
    <glyph glyph-name="S" unicode="S" horiz-adv-x="1196" 
d="M612 -18q-138 0 -253.5 54t-193 160t-97.5 248h135q26 -154 137.5 -248t271.5 -94q166 0 265.5 74.5t99.5 198.5q0 87 -47 147.5t-122 94t-165.5 59t-181 54t-165.5 68t-122 111.5t-47 174q0 167 131.5 268t347.5 101q183 0 314 -100.5t163 -274.5h-133q-28 112 -122 183
t-222 71q-161 0 -250.5 -65t-89.5 -179q0 -59 29 -103.5t78 -72t112.5 -49t134 -40.5t141 -40t134 -53.5t112.5 -76.5t78 -113t29 -158q0 -181 -138 -290t-364 -109z" />
    <glyph glyph-name="T" unicode="T" horiz-adv-x="1150" 
d="M41 1434h1069v-121h-465v-1313h-139v1313h-465v121z" />
    <glyph glyph-name="U" unicode="U" horiz-adv-x="1435" 
d="M719 -16q-238 0 -388.5 142t-150.5 366v942h137v-942q0 -170 112.5 -279t289.5 -109q175 0 287 109t112 279v942h137v-942q0 -224 -150 -366t-386 -142z" />
    <glyph glyph-name="V" unicode="V" horiz-adv-x="1347" 
d="M754 0h-164l-553 1434h147l406 -1059l82 -228h6q33 99 82 226l407 1061h142z" />
    <glyph glyph-name="W" unicode="W" horiz-adv-x="2070" 
d="M653 0h-168l-448 1434h147l320 -1055q18 -58 34.5 -116t23.5 -87l7 -29h6q27 103 66 232l311 1055h172l316 -1055l65 -232h6q27 103 66 232l317 1055h140l-447 -1434h-168l-313 1040q-18 59 -34.5 117.5t-23.5 87.5l-8 29h-6q-26 -103 -65 -234z" />
    <glyph glyph-name="X" unicode="X" horiz-adv-x="1216" 
d="M686 770l496 -770h-162l-416 645l-416 -645h-153l493 764l-432 670h162l350 -543l350 543h154z" />
    <glyph glyph-name="Y" unicode="Y" horiz-adv-x="1202" 
d="M1034 1434h154l-518 -828v-606h-140v606l-516 828h162l428 -695z" />
    <glyph glyph-name="Z" unicode="Z" horiz-adv-x="1200" 
d="M1118 0h-1067v113l905 1200h-856v121h1018v-113l-907 -1200h907v-121z" />
    <glyph glyph-name="a" unicode="a" horiz-adv-x="1191" 
d="M580 1153q198 0 325 -112.5t127 -297.5v-743h-129v240q-44 -118 -156 -188t-258 -70q-163 0 -267.5 86.5t-104.5 220.5q0 176 137 262t424 117l225 24v64q0 128 -92 209.5t-231 81.5q-140 0 -232 -81t-100 -206h-129q17 179 146 286t315 107zM510 94q182 0 287.5 120
t105.5 325v49l-223 -23q-227 -25 -331.5 -83.5t-104.5 -186.5q0 -89 74 -145t192 -56z" />
    <glyph glyph-name="b" unicode="b" horiz-adv-x="1378" 
d="M727 1151q237 0 393 -164.5t156 -419.5t-156 -419t-395 -164q-137 0 -257 72t-177 188v-244h-131v1450h131v-559q57 116 177 188t259 72zM719 98q186 0 306 133t120 336t-120 336t-306 133t-307 -132t-121 -337t121 -337t307 -132z" />
    <glyph glyph-name="c" unicode="c" horiz-adv-x="1234" 
d="M647 -16q-154 0 -279 74t-196.5 207.5t-71.5 301.5t71.5 302t196.5 208t279 74q191 0 325 -100t165 -269h-129q-25 110 -124.5 182t-236.5 72q-176 0 -295 -132.5t-119 -336.5t119 -336.5t295 -132.5q149 0 250.5 74t120.5 190h133q-25 -171 -162.5 -274.5t-341.5 -103.5
z" />
    <glyph glyph-name="d" unicode="d" horiz-adv-x="1376" 
d="M1085 891v559h134v-1450h-134v242q-57 -115 -176.5 -186.5t-257.5 -71.5q-156 0 -281.5 74t-197.5 207.5t-72 301.5q0 255 156.5 419.5t392.5 164.5q139 0 259 -72t177 -188zM659 98q186 0 306 132t120 337t-120 337t-306 132t-306 -133t-120 -336t120 -336t306 -133z
" />
    <glyph glyph-name="e" unicode="e" horiz-adv-x="1251" 
d="M1145 573h-916v-6q-1 -210 114 -341.5t300 -131.5q145 0 242 68.5t123 191.5h135q-34 -181 -169 -276.5t-333 -95.5q-160 0 -284.5 78.5t-190.5 211t-66 295.5q0 122 38 229t107 186t171.5 125t224.5 46q118 0 215.5 -40.5t161.5 -109t98.5 -159t34.5 -191.5zM641 1049
q-156 0 -264.5 -101.5t-136.5 -271.5h774q-2 163 -104 268t-269 105z" />
    <glyph glyph-name="f" unicode="f" horiz-adv-x="798" 
d="M596 1397q-81 0 -128.5 -55.5t-47.5 -161.5v-45h303v-111h-303v-1024h-131v1024h-199v111h199v53q0 158 80 241.5t215 83.5q87 0 141 -26v-117q-66 27 -129 27z" />
    <glyph glyph-name="g" unicode="g" horiz-adv-x="1335" 
d="M1055 893v242h131v-1020q0 -118 -42.5 -214.5t-116 -159t-171 -96.5t-207.5 -34q-205 0 -347.5 94t-166.5 254h131q15 -104 123.5 -169.5t259.5 -65.5q172 0 289 104.5t117 286.5v204q-47 -118 -162.5 -189t-257.5 -71q-236 0 -384.5 152t-148.5 395t148 395t383 152
q139 0 255 -70.5t167 -189.5zM647 172q183 0 298.5 121.5t115.5 312.5q0 192 -115.5 314t-298.5 122t-298.5 -122t-115.5 -314q0 -191 115.5 -312.5t298.5 -121.5z" />
    <glyph glyph-name="h" unicode="h" horiz-adv-x="1292" 
d="M711 1151q193 0 308.5 -107t115.5 -284v-760h-134v737q0 133 -86 214t-229 81q-170 0 -282.5 -156.5t-112.5 -392.5v-483h-131v1450h131v-606q52 141 166 224t254 83z" />
    <glyph glyph-name="i" unicode="i" 
d="M225 1335q-43 0 -70.5 27.5t-27.5 69.5q0 41 27.5 68.5t70.5 27.5q42 0 70.5 -27.5t28.5 -68.5t-29 -69t-70 -28zM291 0h-131v1135h131v-1135z" />
    <glyph glyph-name="j" unicode="j" 
d="M221 1335q-43 0 -70.5 27.5t-27.5 69.5q0 41 27.5 68.5t70.5 27.5q41 0 69.5 -27.5t28.5 -68.5t-28.5 -69t-69.5 -28zM29 -389h-41v115h35q67 0 102 37t35 128v1244h131v-1256q0 -139 -70 -204.5t-192 -63.5z" />
    <glyph glyph-name="k" unicode="k" horiz-adv-x="1148" 
d="M1114 0h-162l-483 612l-178 -157v-455h-131v1450h131v-834l600 519h180l-502 -437z" />
    <glyph glyph-name="l" unicode="l" 
d="M291 0h-131v1450h131v-1450z" />
    <glyph glyph-name="m" unicode="m" horiz-adv-x="2007" 
d="M1458 1151q177 0 283 -107t106 -284v-760h-131v737q0 133 -79 214t-210 81q-160 0 -259 -150.5t-99 -398.5v-483h-131v737q0 133 -79 214t-210 81q-160 0 -259 -150.5t-99 -398.5v-483h-131v1135h131v-308q39 142 146.5 233t244.5 91q157 0 260.5 -90t110.5 -240
q53 150 162 240t243 90z" />
    <glyph glyph-name="n" unicode="n" horiz-adv-x="1292" 
d="M711 1151q193 0 308.5 -107t115.5 -284v-760h-134v737q0 133 -86 214t-229 81q-170 0 -282.5 -156.5t-112.5 -392.5v-483h-131v1135h131v-291q52 141 166 224t254 83z" />
    <glyph glyph-name="o" unicode="o" horiz-adv-x="1318" 
d="M659 -16q-245 0 -402 163.5t-157 419.5t157 420t402 164q160 0 288 -74t200 -207.5t72 -302.5t-72 -302t-200 -207t-288 -74zM659 98q186 0 306 132t120 337t-120 337t-306 132t-306 -132t-120 -337t120 -337t306 -132z" />
    <glyph glyph-name="p" unicode="p" horiz-adv-x="1376" 
d="M725 1151q239 0 395 -164.5t156 -419.5t-156 -419t-393 -164q-139 0 -259 72t-177 188v-557h-131v1448h131v-244q57 116 177 188t257 72zM719 98q186 0 306 133t120 336t-120 336t-306 133t-307 -132t-121 -337t121 -337t307 -132z" />
    <glyph glyph-name="q" unicode="q" horiz-adv-x="1378" 
d="M1085 893v242h134v-1448h-134v557q-57 -116 -177 -188t-259 -72q-236 0 -392.5 164t-156.5 419q0 126 42 235t115 185.5t175 120t219 43.5q138 0 257.5 -71.5t176.5 -186.5zM659 98q186 0 306 132t120 337t-120 337t-306 132t-306 -133t-120 -336t120 -336t306 -133z" />
    <glyph glyph-name="r" unicode="r" horiz-adv-x="858" 
d="M791 1126v-127q-82 31 -150 31q-158 0 -254 -158t-96 -432v-440h-131v1135h131v-338q35 167 132.5 261.5t227.5 94.5q91 0 140 -27z" />
    <glyph glyph-name="s" unicode="s" horiz-adv-x="1019" 
d="M520 -18q-187 0 -307 98.5t-129 273.5h127q4 -124 90 -195t219 -71q126 0 202.5 59.5t76.5 157.5q0 56 -23.5 98t-63.5 67t-92 43t-109 31.5t-114 28t-109 36.5t-92 52.5t-63.5 81t-23.5 117.5q0 132 106 212.5t277 80.5q165 0 273.5 -87t125.5 -239h-129
q-9 100 -85.5 162t-182.5 62q-118 0 -189.5 -51t-71.5 -136q0 -48 23.5 -82.5t63.5 -54.5t91.5 -34t108.5 -26.5t114.5 -27t109 -40t91.5 -61t63.5 -94.5t23.5 -137q0 -147 -110.5 -236t-291.5 -89z" />
    <glyph glyph-name="t" unicode="t" horiz-adv-x="745" 
d="M537 98q79 0 131 27v-115q-51 -28 -142 -28q-136 0 -216.5 84t-80.5 243v715h-196v111h196v237h133v-237h304v-111h-304v-707q0 -107 47 -163t128 -56z" />
    <glyph glyph-name="u" unicode="u" horiz-adv-x="1294" 
d="M1001 651v484h134v-1135h-134v285q-54 -138 -167.5 -219.5t-251.5 -81.5q-193 0 -307.5 106.5t-114.5 284.5v760h131v-738q0 -133 86 -214t229 -81q170 0 282.5 156.5t112.5 392.5z" />
    <glyph glyph-name="v" unicode="v" horiz-adv-x="1093" 
d="M616 0h-141l-438 1135h143l285 -758l82 -225h6q33 98 80 225l287 758h137z" />
    <glyph glyph-name="w" unicode="w" horiz-adv-x="1794" 
d="M1370 381l252 754h133l-395 -1135h-135l-250 737l-74 230h-6q-31 -101 -74 -228l-252 -739h-137l-395 1135h141l252 -754l72 -229h6q29 100 72 229l251 754h136l252 -754l73 -229h6q29 100 72 229z" />
    <glyph glyph-name="x" unicode="x" horiz-adv-x="1048" 
d="M602 596l404 -596h-158l-326 479l-325 -479h-154l403 594l-368 541h158l288 -426l289 426h154z" />
    <glyph glyph-name="y" unicode="y" horiz-adv-x="1087" 
d="M631 406l280 729h140l-570 -1448h-135l131 329l-442 1119h141l283 -729l82 -226h6q33 99 84 226z" />
    <glyph glyph-name="z" unicode="z" horiz-adv-x="1093" 
d="M1008 0h-928v104l764 920h-725v111h889v-105l-764 -919h764v-111z" />
    <glyph glyph-name="uni00A0" unicode="&#xa0;" horiz-adv-x="495" 
 />
    <glyph glyph-name="G.ss05" horiz-adv-x="1484" 
d="M776 -16q-317 0 -503.5 199.5t-186.5 529.5q0 333 189.5 535t500.5 202q235 0 394.5 -121t185.5 -325h-137q-23 146 -145.5 235.5t-297.5 89.5q-250 0 -401.5 -168.5t-151.5 -445.5t150 -444t405 -167q224 0 344 131t123 369h-543v115h682v-53q0 -142 -31 -257t-86 -193
t-132 -131t-166.5 -77t-192.5 -24z" />
    <glyph glyph-name="a.ss01" horiz-adv-x="1382" 
d="M1085 891v244h134v-1135h-134v242q-57 -115 -176.5 -186.5t-257.5 -71.5q-156 0 -281.5 74t-197.5 207.5t-72 301.5q0 255 156.5 419.5t392.5 164.5q139 0 259 -72t177 -188zM659 98q186 0 306 132t120 337t-120 337t-306 132t-306 -133t-120 -336t120 -336t306 -133z
" />
    <glyph glyph-name="g.ss02" horiz-adv-x="1069" 
d="M358 244h332q174 0 268.5 -78t94.5 -217q0 -89 -37.5 -155.5t-106.5 -105.5t-158 -58t-200 -19q-233 0 -368.5 81.5t-135.5 239.5q0 154 131 250q-94 56 -94 160q0 116 137 211q-78 94 -78 231q0 164 108.5 264.5t283.5 100.5q64 0 116 -14h371v-111h-113q-46 0 -73 4
q90 -99 90 -244q0 -165 -108.5 -265.5t-282.5 -100.5q-135 0 -240 65q-88 -67 -88 -127q0 -50 40.5 -81t110.5 -31zM532 1044q-120 0 -193 -71.5t-73 -188.5t73 -188.5t193 -71.5q122 0 196.5 71.5t74.5 188.5t-74.5 188.5t-196.5 71.5zM551 -289q181 0 279 58t98 174
q0 94 -64.5 144t-181.5 50h-326q-25 0 -65 4q-119 -76 -119 -200q0 -114 99.5 -172t279.5 -58z" />
    <glyph glyph-name="l.ss04" horiz-adv-x="477" 
d="M406 104v-114q-119 -15 -190 39.5t-71 191.5v1229h131v-1219q0 -79 33.5 -106.5t96.5 -20.5z" />
    <glyph glyph-name="y.ss06" horiz-adv-x="1087" 
d="M178 1135l281 -727l82 -228h6q33 101 82 228l282 727h140l-506 -1278q-80 -203 -293 -203q-74 0 -180 49v123q95 -57 176 -57q64 0 108.5 32.5t73.5 104.5l45 112l-438 1117h141z" />
    <glyph glyph-name="three.ss03" horiz-adv-x="1169" 
d="M590 -16q-212 0 -351.5 115t-154.5 313h135q11 -138 109.5 -223t259.5 -85t258.5 81t97.5 212q0 136 -98 210.5t-262 74.5h-115v115h84q147 0 241.5 74.5t94.5 197.5q0 117 -83.5 188.5t-217.5 71.5q-145 0 -239 -83.5t-91 -219.5h-131q0 189 130.5 306.5t332.5 117.5
q189 0 310.5 -104t121.5 -269q0 -117 -68.5 -203t-197.5 -129q150 -20 235.5 -115.5t85.5 -240.5q0 -180 -135.5 -292.5t-351.5 -112.5z" />
    </font>
</defs>
</svg>
