<?xml version="1.0" standalone="no"?>
<!DOCTYPE svg PUBLIC "-//W3C//DTD SVG 1.1//EN" "http://www.w3.org/Graphics/SVG/1.1/DTD/svg11.dtd" >
<svg xmlns="http://www.w3.org/2000/svg" xmlns:xlink="http://www.w3.org/1999/xlink" version="1.1">
<metadata>
Created by FontForge 20170731 at Wed May 11 17:04:30 2022
 By Aleksey,,,
Copyright (c) 2016 by Martin Va'cha. All rights reserved.
</metadata>
<defs>
<font id="HafferXHTRIAL-Thin" horiz-adv-x="1378" >
  <font-face 
    font-family="Haffer XH TRIAL Thin"
    font-weight="100"
    font-stretch="normal"
    units-per-em="2048"
    panose-1="0 0 2 0 0 0 0 0 0 0"
    ascent="1659"
    descent="-389"
    x-height="1135"
    cap-height="1434"
    bbox="12 -389 2150 1659"
    underline-thickness="102"
    underline-position="-307"
    unicode-range="U+000D-00A0"
  />
<missing-glyph horiz-adv-x="2252" 
d="M102 633q0 162 49.5 315t141 278t213 221t272.5 151t312 61v-2048q-202 7 -385 90.5t-315 220t-210 322.5t-78 389zM1163 -383v2034q83 -28 153 -172t111 -368.5t41 -477.5t-41 -477t-111 -367t-153 -172zM1827 633q0 -344 -142 -617t-366 -366q103 134 164 398t61 585
t-61 585.5t-164 401.5q146 -62 262 -207.5t181 -349.5t65 -430zM2150 633q0 -311 -170.5 -566.5t-451.5 -373.5q172 150 273.5 400t101.5 540q0 289 -101.5 541t-273.5 401q281 -119 451.5 -376t170.5 -566z" />
    <glyph glyph-name=".notdef" horiz-adv-x="2252" 
d="M102 633q0 162 49.5 315t141 278t213 221t272.5 151t312 61v-2048q-202 7 -385 90.5t-315 220t-210 322.5t-78 389zM1163 -383v2034q83 -28 153 -172t111 -368.5t41 -477.5t-41 -477t-111 -367t-153 -172zM1827 633q0 -344 -142 -617t-366 -366q103 134 164 398t61 585
t-61 585.5t-164 401.5q146 -62 262 -207.5t181 -349.5t65 -430zM2150 633q0 -311 -170.5 -566.5t-451.5 -373.5q172 150 273.5 400t101.5 540q0 289 -101.5 541t-273.5 401q281 -119 451.5 -376t170.5 -566z" />
    <glyph glyph-name=".null" horiz-adv-x="0" 
 />
    <glyph glyph-name="nonmarkingreturn" horiz-adv-x="682" 
 />
    <glyph glyph-name="CR" unicode="&#xd;" horiz-adv-x="497" 
 />
    <glyph glyph-name="space" unicode=" " horiz-adv-x="497" 
 />
    <glyph glyph-name="comma" unicode="," horiz-adv-x="352" 
d="M115 -178h-37l76 174q-52 9 -52 61q0 29 18 46.5t46 17.5t45.5 -17t17.5 -45q0 -21 -12 -45z" />
    <glyph glyph-name="hyphen" unicode="-" horiz-adv-x="704" 
d="M612 582h-520v51h520v-51z" />
    <glyph glyph-name="period" unicode="." horiz-adv-x="372" 
d="M188 -4q-31 0 -48 17t-17 46q0 27 17.5 44.5t47.5 17.5q26 0 44 -18t18 -44q0 -29 -17.5 -46t-44.5 -17z" />
    <glyph glyph-name="zero" unicode="0" horiz-adv-x="1206" 
d="M602 -18q-235 0 -367.5 194t-132.5 541t132.5 541t367.5 194q236 0 369 -194t133 -541t-133 -541t-369 -194zM602 39q207 0 323.5 179.5t116.5 498.5t-116.5 498.5t-323.5 179.5t-322.5 -179t-115.5 -499t115.5 -499t322.5 -179z" />
    <glyph glyph-name="one" unicode="1" horiz-adv-x="651" 
d="M446 0h-61v1337q-90 -151 -348 -209v58q228 41 352 248h57v-1434z" />
    <glyph glyph-name="two" unicode="2" horiz-adv-x="1101" 
d="M979 0h-916v57l580 553q139 132 202.5 233.5t63.5 207.5q0 153 -104 247.5t-266 94.5q-186 0 -290.5 -113.5t-92.5 -302.5h-62q-10 215 111.5 344t333.5 129q190 0 311 -109.5t121 -289.5q0 -118 -69.5 -230t-219.5 -254l-541 -510h838v-57z" />
    <glyph glyph-name="three" unicode="3" horiz-adv-x="1114" 
d="M588 848q191 0 307.5 -113t116.5 -309q0 -195 -135.5 -318.5t-346.5 -123.5q-198 0 -328.5 109.5t-150.5 295.5h60q15 -158 129 -253t288 -95q185 0 303.5 107.5t118.5 277.5q0 172 -101 269.5t-271 97.5q-102 0 -193 -48v64l528 567h-821v58h901v-58l-512 -545
q49 17 107 17z" />
    <glyph glyph-name="four" unicode="4" horiz-adv-x="1193" 
d="M899 0h-61v428h-801v57l768 949h94v-949h234v-57h-234v-428zM838 1382l-729 -897h729v897z" />
    <glyph glyph-name="five" unicode="5" horiz-adv-x="1144" 
d="M567 961q209 0 343 -139t134 -355q0 -212 -134 -347.5t-343 -135.5q-199 0 -333.5 108t-157.5 287h55q20 -151 141.5 -244.5t294.5 -93.5q182 0 299 120t117 306q0 190 -117 313t-299 123q-135 0 -238 -60.5t-161 -162.5h-45l102 754h723v-58h-676l-90 -602
q69 89 171.5 138t213.5 49z" />
    <glyph glyph-name="six" unicode="6" horiz-adv-x="1204" 
d="M616 946q212 0 349 -135t137 -344q0 -212 -136.5 -347.5t-349.5 -135.5q-253 0 -383.5 172.5t-130.5 468.5q0 383 154 604t420 221q171 0 286.5 -75t139.5 -222h-60q-25 119 -125.5 179.5t-240.5 60.5q-116 0 -208 -46.5t-152 -125.5t-98.5 -188t-53 -230.5t-8.5 -255.5
q22 130 91 221.5t163.5 134.5t205.5 43zM616 41q186 0 305 119t119 305t-119 305t-305 119t-304.5 -120t-118.5 -306q0 -185 118.5 -303.5t304.5 -118.5z" />
    <glyph glyph-name="seven" unicode="7" horiz-adv-x="1126" 
d="M395 0h-61q25 376 190 736.5t439 639.5h-891v58h962v-58q-283 -292 -451 -653t-188 -723z" />
    <glyph glyph-name="eight" unicode="8" horiz-adv-x="1173" 
d="M592 -16q-214 0 -352 113t-138 288q0 137 93 244.5t254 132.5q-145 29 -230.5 124.5t-85.5 203.5q0 158 129 259t330 101q195 0 320.5 -101t125.5 -259q0 -72 -33.5 -138.5t-104 -119t-165.5 -70.5q156 -24 246 -132t90 -245q0 -175 -135 -288t-344 -113zM592 788
q163 0 270.5 85t110.5 217q3 133 -104 218t-277 85q-175 0 -285.5 -85t-107.5 -218q3 -132 114 -217t279 -85zM590 41q183 0 301.5 96.5t118.5 247.5q0 152 -118.5 249t-301.5 97q-186 0 -306 -97t-120 -249q0 -151 120 -247.5t306 -96.5z" />
    <glyph glyph-name="nine" unicode="9" horiz-adv-x="1204" 
d="M588 1450q253 0 383.5 -172.5t130.5 -468.5q0 -383 -154 -604t-420 -221q-171 0 -286.5 75t-139.5 222h60q25 -119 125.5 -179.5t240.5 -60.5q116 0 208 46.5t152.5 125.5t99 188t53 230.5t8.5 255.5q-22 -130 -91.5 -222t-164 -135t-205.5 -43q-212 0 -349 135.5
t-137 344.5q0 212 136.5 347.5t349.5 135.5zM588 545q186 0 305 120t119 306q0 185 -119 303.5t-305 118.5t-305 -119t-119 -305t119 -305t305 -119z" />
    <glyph glyph-name="A" unicode="A" horiz-adv-x="1318" 
d="M1294 0h-67l-180 440h-779l-182 -440h-61l593 1434h87zM584 1200l-291 -702h729l-287 702l-73 186h-5q-28 -75 -73 -186z" />
    <glyph glyph-name="B" unicode="B" horiz-adv-x="1259" 
d="M698 0h-493v1434h493q167 0 280.5 -97.5t113.5 -246.5q0 -123 -83 -215t-198 -107q138 -15 237 -120.5t99 -248.5q0 -173 -129 -286t-320 -113zM266 1376v-579h432q140 0 236 83.5t96 209.5q0 124 -96 205t-236 81h-432zM266 739v-682h432q164 0 275.5 97t111.5 245
t-111.5 244t-275.5 96h-432z" />
    <glyph glyph-name="C" unicode="C" horiz-adv-x="1425" 
d="M776 -18q-306 0 -490 201t-184 534t184 534t490 201q226 0 378 -115.5t181 -308.5h-57q-28 165 -165.5 266t-336.5 101q-278 0 -445 -185t-167 -493t167 -493t445 -185q204 0 343.5 104t164.5 273h59q-28 -196 -183 -315t-384 -119z" />
    <glyph glyph-name="D" unicode="D" horiz-adv-x="1333" 
d="M553 0h-387v1434h387q147 0 274 -53.5t216.5 -148t140.5 -227.5t51 -288t-51 -288t-140.5 -227.5t-216.5 -148t-274 -53.5zM227 1376v-1319h326q179 0 320.5 84t221 235t79.5 341t-79.5 340.5t-221 234.5t-320.5 84h-326z" />
    <glyph glyph-name="E" unicode="E" horiz-adv-x="1210" 
d="M1057 0h-852v1434h852v-58h-791v-594h658v-57h-658v-668h791v-57z" />
    <glyph glyph-name="F" unicode="F" horiz-adv-x="1169" 
d="M266 0h-61v1434h852v-58h-791v-594h658v-57h-658v-725z" />
    <glyph glyph-name="G" unicode="G" horiz-adv-x="1492" 
d="M774 -16q-306 0 -489 200t-183 533t183 534t489 201q226 0 379 -115t182 -309h-57q-29 165 -167 266t-337 101q-278 0 -444 -185t-166 -493t166 -493t444 -185q247 0 392.5 166.5t140.5 431.5h-613v57h666v-694h-57v377q-36 -133 -115.5 -223t-183.5 -130t-230 -40z" />
    <glyph glyph-name="H" unicode="H" horiz-adv-x="1456" 
d="M1190 803v631h61v-1434h-61v745h-924v-745h-61v1434h61v-631h924z" />
    <glyph glyph-name="I" unicode="I" horiz-adv-x="471" 
d="M266 0h-61v1434h61v-1434z" />
    <glyph glyph-name="J" unicode="J" horiz-adv-x="673" 
d="M63 4v57q48 -20 130 -20q99 0 157 73t58 195v1125h61v-1125q0 -150 -74 -237.5t-202 -87.5q-78 0 -130 20z" />
    <glyph glyph-name="K" unicode="K" horiz-adv-x="1245" 
d="M1221 0h-76l-617 842l-260 -248l2 -594h-61l-4 1434h61l2 -760l795 760h84l-576 -551z" />
    <glyph glyph-name="L" unicode="L" horiz-adv-x="1171" 
d="M1018 0h-813v1434h61v-1377h752v-57z" />
    <glyph glyph-name="M" unicode="M" horiz-adv-x="1802" 
d="M268 0h-63v1434h106l594 -1389l592 1389h100v-1434h-61v1180l2 200h-4l-76 -184l-510 -1196h-90l-510 1194l-78 184h-4q2 -81 2 -200v-1178z" />
    <glyph glyph-name="N" unicode="N" 
d="M227 0h-61v1434h104l774 -1219l105 -170h4q-2 82 -2 201v1188h61v-1434h-102l-774 1219l-107 170h-4q2 -82 2 -201v-1188z" />
    <glyph glyph-name="O" unicode="O" horiz-adv-x="1562" 
d="M778 -18q-194 0 -348.5 94t-241 262t-86.5 379t86.5 379t241 262t348.5 94t350 -94t244 -262t88 -379t-88 -379t-244 -262t-350 -94zM778 39q178 0 320 87t221.5 242t79.5 349t-79.5 349t-221.5 242t-320 87q-131 0 -245 -51t-195 -139.5t-127.5 -215t-46.5 -272.5
t46.5 -272.5t127.5 -215t195 -139.5t245 -51z" />
    <glyph glyph-name="P" unicode="P" horiz-adv-x="1171" 
d="M227 0h-61v1434h518q184 0 303 -108t119 -275t-119 -275t-303 -108h-457v-668zM227 1376v-651h457q158 0 259 91.5t101 234.5t-101 234t-259 91h-457z" />
    <glyph glyph-name="Q" unicode="Q" horiz-adv-x="1628" 
d="M1210 57h357v-57h-635q-76 -18 -154 -18q-194 0 -348.5 94t-241 262t-86.5 379t86.5 379t241 262t348.5 94t350 -94t244 -262t88 -379q0 -232 -112.5 -411t-294.5 -263q96 14 157 14zM164 717q0 -146 46.5 -272.5t127.5 -215t195 -139.5t245 -51q178 0 320 87t221.5 242
t79.5 349t-79.5 349t-221.5 242t-320 87q-131 0 -245 -51t-195 -139.5t-127.5 -215t-46.5 -272.5z" />
    <glyph glyph-name="R" unicode="R" horiz-adv-x="1210" 
d="M686 717l494 -717h-74l-490 717h-389v-717h-61v1434h491q178 0 293 -101t115 -258q0 -150 -105.5 -249.5t-273.5 -108.5zM657 1376h-430v-602h430q152 0 249.5 84.5t97.5 216.5t-97.5 216.5t-249.5 84.5z" />
    <glyph glyph-name="S" unicode="S" horiz-adv-x="1183" 
d="M600 -18q-201 0 -345.5 118t-180.5 326h59q31 -175 158.5 -281t308.5 -106q196 0 313 87.5t117 233.5q0 80 -30.5 140.5t-82.5 98.5t-119 66.5t-141.5 49t-148.5 41t-141 48.5t-119 65t-82.5 96.5t-30.5 138.5q0 160 125 254t340 94q171 0 294 -94.5t157 -253.5h-58
q-34 131 -141 211t-252 80q-191 0 -297 -78t-106 -213q0 -87 49.5 -147t128.5 -92.5t174.5 -58.5t190.5 -56.5t174 -73.5t128.5 -123t49.5 -193q0 -172 -134 -275t-358 -103z" />
    <glyph glyph-name="T" unicode="T" horiz-adv-x="1122" 
d="M45 1434h1032v-58h-485v-1376h-62v1376h-485v58z" />
    <glyph glyph-name="U" unicode="U" horiz-adv-x="1433" 
d="M719 -16q-225 0 -369.5 137t-144.5 350v963h61v-963q0 -188 127.5 -309t325.5 -121q196 0 322 121t126 309v963h62v-963q0 -214 -143.5 -350.5t-366.5 -136.5z" />
    <glyph glyph-name="V" unicode="V" horiz-adv-x="1302" 
d="M692 0h-86l-565 1434h65l472 -1203l71 -186h4l72 186l475 1203h62z" />
    <glyph glyph-name="W" unicode="W" horiz-adv-x="2033" 
d="M588 0h-90l-457 1434h65l379 -1198l58 -191h4q22 78 57 193l367 1196h96l371 -1196l57 -193h4q22 78 57 193l375 1196h62l-455 -1434h-90l-371 1196l-57 193h-4q-23 -78 -58 -193z" />
    <glyph glyph-name="X" unicode="X" horiz-adv-x="1175" 
d="M623 774l512 -774h-74l-475 719l-475 -719h-70l510 770l-438 664h73l402 -607l401 607h70z" />
    <glyph glyph-name="Y" unicode="Y" horiz-adv-x="1140" 
d="M1053 1434h67l-520 -816v-618h-61v618l-519 816h74l477 -760z" />
    <glyph glyph-name="Z" unicode="Z" horiz-adv-x="1183" 
d="M1098 0h-1049v57l979 1319h-924v58h996v-58l-979 -1319h977v-57z" />
    <glyph glyph-name="a" unicode="a" horiz-adv-x="1193" 
d="M586 1153q184 0 306 -108.5t122 -276.5v-768h-62v285q-46 -139 -166.5 -221t-279.5 -82q-163 0 -268 83.5t-105 213.5q0 75 25.5 132.5t72 98.5t121 70.5t162 47.5t205.5 31l233 25v82q0 142 -105 235t-261 93q-161 0 -266.5 -91.5t-116.5 -234.5h-66q19 174 142.5 279.5
t306.5 105.5zM506 39q207 0 326.5 134t119.5 374v80l-227 -25q-109 -12 -188 -27t-146.5 -40t-108.5 -59.5t-64 -83.5t-23 -113q0 -105 87.5 -172.5t223.5 -67.5z" />
    <glyph glyph-name="b" unicode="b" 
d="M725 1151q154 0 278.5 -75.5t194.5 -209t70 -299.5t-70 -299.5t-194.5 -208.5t-278.5 -75q-167 0 -302 97.5t-181 248.5v-330h-62v1450h62v-645q46 151 181 248.5t302 97.5zM725 41q209 0 345 149t136 377t-136 377.5t-345 149.5q-210 0 -346.5 -148.5t-136.5 -378.5
t136.5 -378t346.5 -148z" />
    <glyph glyph-name="c" unicode="c" horiz-adv-x="1214" 
d="M643 -16q-228 0 -380 164.5t-152 418.5t152 419t380 165q177 0 306 -94t161 -246h-57q-28 122 -142 202.5t-268 80.5q-201 0 -336 -149t-135 -378t135 -377.5t336 -148.5q167 0 284.5 84.5t137.5 216.5h59q-23 -159 -155 -258.5t-326 -99.5z" />
    <glyph glyph-name="d" unicode="d" 
d="M1137 805v645h61v-1450h-61v330q-46 -151 -181.5 -248.5t-302.5 -97.5q-154 0 -278 75t-194 208.5t-70 299.5t70 299.5t194 209t278 75.5q167 0 302.5 -97.5t181.5 -248.5zM653 41q210 0 347 148t137 378t-137 378.5t-347 148.5q-209 0 -345 -149.5t-136 -377.5t136 -377
t345 -149z" />
    <glyph glyph-name="e" unicode="e" horiz-adv-x="1236" 
d="M1120 606h-946q-2 -14 -2 -41q-1 -230 129 -378t334 -148q168 0 280.5 81.5t141.5 225.5h61q-33 -175 -161.5 -269.5t-321.5 -94.5q-229 0 -376.5 164.5t-147.5 420.5q0 257 149.5 421.5t382.5 164.5q217 0 350 -135.5t133 -345.5zM643 1096q-181 0 -308 -119.5
t-155 -312.5h887q0 188 -116.5 310t-307.5 122z" />
    <glyph glyph-name="f" unicode="f" horiz-adv-x="772" 
d="M557 1436q-86 0 -135 -60.5t-49 -177.5v-63h315v-54h-315v-1081h-62v1081h-205v54h205v63q0 146 66 220.5t182 74.5q82 0 131 -27v-59q-63 29 -133 29z" />
    <glyph glyph-name="g" unicode="g" horiz-adv-x="1337" 
d="M1108 815v320h61v-1020q0 -119 -42.5 -216t-115 -159t-166 -95.5t-198.5 -33.5q-194 0 -333.5 91t-163.5 241h63q18 -122 142.5 -198.5t291.5 -76.5q125 0 228.5 50.5t168 154t64.5 242.5v276q-50 -157 -177.5 -247.5t-287.5 -90.5q-235 0 -383.5 154.5t-148.5 394.5
q0 243 148 397t384 154q158 0 286.5 -90.5t178.5 -247.5zM641 111q205 0 336 138t131 353q0 218 -131 357t-336 139q-207 0 -338 -139t-131 -357q0 -216 131 -353.5t338 -137.5z" />
    <glyph glyph-name="h" unicode="h" horiz-adv-x="1290" 
d="M692 1151q190 0 304 -105t114 -280v-766h-61v766q0 149 -97.5 238.5t-259.5 89.5q-128 0 -231 -79.5t-161 -220t-58 -315.5v-479h-62v1450h62v-707q44 191 166 299.5t284 108.5z" />
    <glyph glyph-name="i" unicode="i" horiz-adv-x="421" 
d="M213 1366q-31 0 -49.5 18.5t-18.5 47.5q0 27 19 45t49 18q26 0 44.5 -18.5t18.5 -44.5q0 -29 -18 -47.5t-45 -18.5zM242 0h-62v1135h62v-1135z" />
    <glyph glyph-name="j" unicode="j" horiz-adv-x="421" 
d="M207 1366q-31 0 -49.5 18.5t-18.5 47.5q0 27 19 45t49 18q26 0 44.5 -18.5t18.5 -44.5q0 -29 -18 -47.5t-45 -18.5zM47 -389h-35v53h35q66 0 99.5 33.5t33.5 122.5v1315h62v-1315q0 -114 -51 -161.5t-144 -47.5z" />
    <glyph glyph-name="k" unicode="k" horiz-adv-x="1093" 
d="M1053 0h-80l-541 655l-190 -155v-500h-62v1450h62v-877l673 562h93l-531 -441z" />
    <glyph glyph-name="l" unicode="l" horiz-adv-x="421" 
d="M242 0h-62v1450h62v-1450z" />
    <glyph glyph-name="m" unicode="m" horiz-adv-x="2019" 
d="M1452 1151q175 0 281 -105t106 -280v-766h-61v766q0 149 -90 238.5t-238 89.5q-181 0 -295.5 -170.5t-114.5 -444.5v-479h-61v766q0 149 -90 238.5t-238 89.5q-181 0 -295 -170.5t-114 -444.5v-479h-62v1135h62v-365q40 169 154 275t259 106q170 0 277 -103.5t106 -277.5
q42 169 155.5 275t258.5 106z" />
    <glyph glyph-name="n" unicode="n" horiz-adv-x="1290" 
d="M692 1151q190 0 304 -105t114 -280v-766h-61v766q0 149 -97.5 238.5t-259.5 89.5q-128 0 -231 -79.5t-161 -220t-58 -315.5v-479h-62v1135h62v-392q44 191 166 299.5t284 108.5z" />
    <glyph glyph-name="o" unicode="o" horiz-adv-x="1308" 
d="M653 -16q-237 0 -389.5 163.5t-152.5 419.5t152.5 420t389.5 164t391 -164t154 -420t-154 -419.5t-391 -163.5zM653 41q210 0 347 148t137 378t-137 378.5t-347 148.5q-209 0 -345 -148.5t-136 -378.5t135.5 -378t345.5 -148z" />
    <glyph glyph-name="p" unicode="p" 
d="M725 1151q154 0 278.5 -75.5t194.5 -209t70 -299.5t-70 -299.5t-194.5 -208.5t-278.5 -75q-167 0 -302 97.5t-181 248.5v-647h-62v1452h62v-330q46 151 181 248.5t302 97.5zM725 41q209 0 345 149t136 377t-136 377.5t-345 149.5q-210 0 -346.5 -148.5t-136.5 -378.5
t136.5 -378t346.5 -148z" />
    <glyph glyph-name="q" unicode="q" 
d="M1137 805v330h61v-1452h-61v647q-46 -151 -181.5 -248.5t-302.5 -97.5q-154 0 -278 75t-194 208.5t-70 299.5t70 299.5t194 209t278 75.5q167 0 302.5 -97.5t181.5 -248.5zM653 41q210 0 347 148t137 378t-137 378.5t-347 148.5q-209 0 -345 -149.5t-136 -377.5t136 -377
t345 -149z" />
    <glyph glyph-name="r" unicode="r" horiz-adv-x="833" 
d="M762 1124v-59q-88 31 -150 31q-170 0 -270 -175t-100 -468v-453h-62v1135h62v-381q35 191 134 295t236 104q96 0 150 -29z" />
    <glyph glyph-name="s" unicode="s" horiz-adv-x="1013" 
d="M514 -18q-176 0 -289.5 94.5t-122.5 269.5h62q4 -145 101.5 -226t248.5 -81q148 0 237 70.5t89 187.5q0 66 -24.5 115t-66 78t-95.5 50t-113 35t-118.5 27.5t-113.5 33.5t-95.5 48.5t-66 76.5t-24.5 113q0 126 101 202.5t268 76.5q148 0 249 -82t121 -227h-63
q-12 113 -97.5 182.5t-209.5 69.5q-139 0 -223.5 -61t-84.5 -161q0 -54 24.5 -93t66 -61.5t95.5 -38.5t113.5 -29.5t118.5 -28.5t113 -39.5t95.5 -60t66 -93.5t24.5 -135q0 -142 -106 -227.5t-281 -85.5z" />
    <glyph glyph-name="t" unicode="t" horiz-adv-x="698" 
d="M481 39q81 0 133 27v-58q-47 -26 -131 -26q-116 0 -181.5 74t-65.5 220v805h-205v54h205v237h61v-237h315v-54h-315v-805q0 -117 49 -177t135 -60z" />
    <glyph glyph-name="u" unicode="u" horiz-adv-x="1290" 
d="M1049 655v480h61v-1135h-61v391q-44 -191 -166.5 -299t-284.5 -108q-190 0 -304 105t-114 280v766h62v-766q0 -149 97.5 -238.5t258.5 -89.5q195 0 323 174.5t128 439.5z" />
    <glyph glyph-name="v" unicode="v" horiz-adv-x="1036" 
d="M559 0h-82l-432 1135h66l338 -895l69 -189h4q27 76 70 189l338 895h61z" />
    <glyph glyph-name="w" unicode="w" horiz-adv-x="1755" 
d="M1348 242l303 893h59l-389 -1135h-76l-301 885l-63 190h-4q-25 -77 -64 -190l-301 -885h-78l-389 1135h64l303 -893l61 -191h4l62 191l303 893h76l303 -893l61 -191h4z" />
    <glyph glyph-name="x" unicode="x" horiz-adv-x="983" 
d="M526 600l410 -600h-74l-373 547l-372 -547h-70l408 598l-367 537h74l330 -484l329 484h70z" />
    <glyph glyph-name="y" unicode="y" horiz-adv-x="1026" 
d="M586 274l334 861h63l-567 -1452h-58l125 323l-440 1129h63l334 -861l70 -188h4z" />
    <glyph glyph-name="z" unicode="z" horiz-adv-x="1085" 
d="M989 0h-905v51l838 1030h-799v54h874v-52l-837 -1030h829v-53z" />
    <glyph glyph-name="uni00A0" unicode="&#xa0;" horiz-adv-x="497" 
 />
    <glyph glyph-name="G.ss05" horiz-adv-x="1472" 
d="M776 -16q-313 0 -493.5 198.5t-180.5 528.5q0 336 184 537.5t490 201.5q226 0 378 -115t181 -307h-57q-28 163 -165.5 264t-336.5 101q-278 0 -445 -185t-167 -493q0 -307 165 -490.5t449 -183.5q257 0 388.5 154t131.5 442h-604v57h666v-37q0 -150 -31.5 -267
t-84.5 -192.5t-128.5 -124.5t-159 -69t-180.5 -20z" />
    <glyph glyph-name="a.ss01" horiz-adv-x="1376" 
d="M1137 805v330h61v-1135h-61v330q-46 -151 -181.5 -248.5t-302.5 -97.5q-154 0 -278 75t-194 208.5t-70 299.5t70 299.5t194 209t278 75.5q167 0 302.5 -97.5t181.5 -248.5zM653 41q210 0 347 148t137 378t-137 378.5t-347 148.5q-209 0 -345 -149.5t-136 -377.5t136 -377
t345 -149z" />
    <glyph glyph-name="g.ss02" horiz-adv-x="1042" 
d="M319 231h369q166 0 254 -75t88 -211q0 -168 -128.5 -251t-356.5 -83q-229 0 -360.5 83t-131.5 245t146 262q-52 23 -80.5 65t-28.5 96q0 106 129 201q-72 94 -72 228q0 161 103 259.5t272 98.5q65 0 117 -14h350v-54h-133q-44 0 -115 11q73 -46 113.5 -124t40.5 -177
q0 -163 -103 -263t-270 -100q-161 0 -266 94q-113 -80 -113 -160q0 -57 48 -94t128 -37zM520 1094q-141 0 -227 -83.5t-86 -219.5q0 -138 86 -223t227 -85t228.5 85t87.5 223q0 136 -87.5 219.5t-228.5 83.5zM545 -336q201 0 315.5 69t114.5 210q0 111 -73.5 172t-213.5 61
h-369q-21 0 -53 4q-157 -89 -157 -243q0 -134 117.5 -203.5t318.5 -69.5z" />
    <glyph glyph-name="l.ss04" horiz-adv-x="436" 
d="M354 47v-57q-91 -11 -140.5 34.5t-49.5 155.5v1270h59v-1270q0 -86 34 -114.5t97 -18.5z" />
    <glyph glyph-name="y.ss06" horiz-adv-x="1026" 
d="M109 1135l331 -861l70 -186h4q27 75 70 186l334 861h63l-504 -1287q-37 -95 -94 -138.5t-145 -43.5q-71 0 -170 51v64q90 -57 172 -57q69 0 112 34.5t74 112.5l55 139l-436 1125h64z" />
    <glyph glyph-name="three.ss03" horiz-adv-x="1157" 
d="M584 -16q-205 0 -337.5 108t-154.5 299h60q15 -158 128.5 -254t299.5 -96q187 0 301 94.5t114 245.5q0 158 -114 244t-306 86h-120v57h84q172 0 282.5 88t110.5 234q0 135 -96 219t-250 84q-167 0 -275 -96.5t-104 -249.5h-57q-1 182 121.5 292.5t314.5 110.5
q181 0 294 -102t113 -265q0 -246 -274 -335q161 -23 248.5 -120.5t87.5 -246.5q0 -178 -130 -287.5t-341 -109.5z" />
    </font>
</defs>
</svg>
