<?xml version="1.0" standalone="no"?>
<!DOCTYPE svg PUBLIC "-//W3C//DTD SVG 1.1//EN" "http://www.w3.org/Graphics/SVG/1.1/DTD/svg11.dtd" >
<svg xmlns="http://www.w3.org/2000/svg" xmlns:xlink="http://www.w3.org/1999/xlink" version="1.1">
<metadata>
Created by FontForge 20170731 at Wed May 11 17:04:30 2022
 By Aleksey,,,
Copyright (c) 2016 by Martin Va'cha. All rights reserved.
</metadata>
<defs>
<font id="HafferXHTRIAL-SemiBold" horiz-adv-x="1374" >
  <font-face 
    font-family="Haffer XH TRIAL SemiBold"
    font-weight="600"
    font-stretch="normal"
    units-per-em="2048"
    panose-1="0 0 7 0 0 0 0 0 0 0"
    ascent="1659"
    descent="-389"
    x-height="1135"
    cap-height="1434"
    bbox="-57 -389.338 2111 1659"
    underline-thickness="102"
    underline-position="-307"
    unicode-range="U+000D-00A0"
  />
<missing-glyph horiz-adv-x="2162" 
d="M57 633q0 202 78 388.5t210 323.5t314.5 222t384.5 92v-2048q-202 7 -385 90.5t-315 220t-209.5 322.5t-77.5 389zM1118 -383v2034q83 -28 153 -172t111 -368.5t41 -477.5t-41 -477t-111 -367t-153 -172zM1782 633q0 -344 -142 -617t-366 -366q103 134 164 398t61 585
t-61 585.5t-164 401.5q146 -62 262 -207.5t181 -349.5t65 -430zM2105 633q0 -311 -170.5 -566.5t-451.5 -373.5q172 150 273.5 400t101.5 540q0 289 -101.5 541t-273.5 401q281 -119 451.5 -376t170.5 -566z" />
    <glyph glyph-name=".notdef" horiz-adv-x="2162" 
d="M57 633q0 202 78 388.5t210 323.5t314.5 222t384.5 92v-2048q-202 7 -385 90.5t-315 220t-209.5 322.5t-77.5 389zM1118 -383v2034q83 -28 153 -172t111 -368.5t41 -477.5t-41 -477t-111 -367t-153 -172zM1782 633q0 -344 -142 -617t-366 -366q103 134 164 398t61 585
t-61 585.5t-164 401.5q146 -62 262 -207.5t181 -349.5t65 -430zM2105 633q0 -311 -170.5 -566.5t-451.5 -373.5q172 150 273.5 400t101.5 540q0 289 -101.5 541t-273.5 401q281 -119 451.5 -376t170.5 -566z" />
    <glyph glyph-name=".null" horiz-adv-x="0" 
 />
    <glyph glyph-name="nonmarkingreturn" horiz-adv-x="682" 
 />
    <glyph glyph-name="CR" unicode="&#xd;" horiz-adv-x="489" 
 />
    <glyph glyph-name="space" unicode=" " horiz-adv-x="489" 
 />
    <glyph glyph-name="comma" unicode="," horiz-adv-x="473" 
d="M193 -264h-115l96 264q-46 11 -72 47t-26 90q0 69 42.5 112.5t112.5 43.5q69 0 113.5 -44.5t44.5 -109.5q0 -61 -43 -135z" />
    <glyph glyph-name="hyphen" unicode="-" horiz-adv-x="804" 
d="M731 504h-657v219h657v-219z" />
    <glyph glyph-name="period" unicode="." horiz-adv-x="477" 
d="M240 -12q-67 0 -111.5 43.5t-44.5 109.5q0 65 44.5 108.5t111.5 43.5q66 0 109.5 -43.5t43.5 -108.5q0 -66 -43.5 -109.5t-109.5 -43.5z" />
    <glyph glyph-name="zero" unicode="0" horiz-adv-x="1314" 
d="M655 -16q-264 0 -422.5 198t-158.5 535q0 338 158.5 535.5t422.5 197.5q266 0 426 -198t160 -535q0 -336 -160 -534.5t-426 -198.5zM655 221q147 0 226.5 128t79.5 368t-79.5 367.5t-226.5 127.5q-146 0 -224.5 -127.5t-78.5 -367.5t79 -368t224 -128z" />
    <glyph glyph-name="one" unicode="1" horiz-adv-x="819" 
d="M686 0h-280v1126q-112 -103 -338 -155v239q85 23 193 84.5t190 139.5h235v-1434z" />
    <glyph glyph-name="two" unicode="2" horiz-adv-x="1173" 
d="M1073 0h-1026v215l522 449q114 100 168 178t54 153q0 97 -63.5 157t-162.5 60q-122 0 -187 -84t-54 -223h-277q-23 239 122 392t396 153q220 0 363 -128t143 -327q0 -139 -85.5 -265t-262.5 -255l-277 -237h627v-238z" />
    <glyph glyph-name="three" unicode="3" horiz-adv-x="1202" 
d="M1081 1219l-387 -357q209 -4 322.5 -113t113.5 -300q0 -207 -151 -336t-393 -129q-150 0 -269.5 53.5t-193 163t-76.5 260.5h264q1 -110 78.5 -175t198.5 -65q116 0 191 66t75 170t-72 166.5t-184 62.5q-102 0 -186 -41v223l329 328h-649v238h989v-215z" />
    <glyph glyph-name="four" unicode="4" horiz-adv-x="1292" 
d="M1049 0h-281v303h-721v215l701 916h301v-893h182v-238h-182v-303zM768 1098l-436 -557h436v557z" />
    <glyph glyph-name="five" unicode="5" horiz-adv-x="1189" 
d="M651 952q204 0 334.5 -131.5t130.5 -341.5q0 -222 -144 -358.5t-378 -136.5q-144 0 -261.5 55.5t-188.5 157.5t-78 233h251q17 -96 89.5 -152.5t177.5 -56.5q113 0 184.5 72t71.5 186q0 117 -74 189.5t-191 72.5q-81 0 -144 -34t-99 -93h-232l117 820h791v-238h-586
l-60 -360q113 116 289 116z" />
    <glyph glyph-name="six" unicode="6" horiz-adv-x="1263" 
d="M686 946q215 0 355.5 -136t140.5 -343q0 -210 -150 -346.5t-381 -136.5q-178 0 -309.5 84.5t-199.5 233t-68 341.5q0 241 73 423.5t211 283t322 100.5q221 0 353 -107t153 -290h-266q-12 71 -77.5 119.5t-160.5 48.5q-85 0 -152 -39t-108.5 -107t-64 -151.5t-27.5 -180.5
q50 100 142 151.5t214 51.5zM913 475q1 115 -74 189.5t-192 74.5t-192.5 -74.5t-75.5 -189.5q0 -116 75.5 -191t192.5 -75q116 0 190 75t76 191z" />
    <glyph glyph-name="seven" unicode="7" horiz-adv-x="1157" 
d="M563 0h-276q22 315 163 636.5t361 559.5h-745v238h1034v-238q-240 -282 -384 -602.5t-153 -593.5z" />
    <glyph glyph-name="eight" unicode="8" horiz-adv-x="1198" 
d="M600 -16q-143 0 -262.5 51t-191.5 147t-72 219q0 133 71.5 227.5t202.5 127.5q-105 35 -172 121.5t-67 185.5q0 164 138 275.5t353 111.5q214 0 353 -112t139 -275q0 -100 -66.5 -186.5t-171.5 -120.5q128 -32 199 -126.5t71 -228.5q0 -123 -71.5 -219t-190.5 -147
t-262 -51zM600 864q100 0 164 51.5t65 135.5q0 84 -63.5 136t-165.5 52q-103 0 -166 -51.5t-63 -136.5q1 -84 65 -135.5t164 -51.5zM602 205q114 0 184 59.5t70 155.5q0 97 -70 156t-184 59q-116 0 -188 -59.5t-72 -155.5q0 -95 72.5 -155t187.5 -60z" />
    <glyph glyph-name="nine" unicode="9" horiz-adv-x="1263" 
d="M612 1450q179 0 311 -84.5t199.5 -233t67.5 -341.5q0 -241 -73 -423.5t-211 -283t-322 -100.5q-221 0 -353 107t-153 290h266q12 -71 77.5 -119.5t160.5 -48.5q85 0 152 39t108.5 106.5t64 151t27.5 180.5q-50 -100 -142 -151.5t-214 -51.5q-215 0 -355.5 136.5
t-140.5 343.5q0 211 150 347t380 136zM616 694q117 0 193 74.5t76 189.5q0 116 -76 191.5t-193 75.5q-116 0 -190 -75.5t-76 -191.5q-1 -115 74 -189.5t192 -74.5z" />
    <glyph glyph-name="A" unicode="A" horiz-adv-x="1443" 
d="M1432 0h-302l-120 315h-586l-121 -315h-289l553 1434h314zM608 797l-94 -244h406l-93 244q-27 70 -53.5 145t-39.5 114l-13 40h-6q-48 -141 -107 -299z" />
    <glyph glyph-name="B" unicode="B" horiz-adv-x="1292" 
d="M737 0h-604v1434h600q186 0 302 -100t116 -261q0 -100 -60.5 -182t-154.5 -115q126 -31 208.5 -129.5t82.5 -224.5q0 -188 -136.5 -305t-353.5 -117zM414 1196v-332h278q83 0 137 47t54 121q0 72 -54.5 118t-136.5 46h-278zM414 645v-407h297q103 0 169 57.5t66 148.5
q0 89 -66 145t-169 56h-297z" />
    <glyph glyph-name="C" unicode="C" horiz-adv-x="1497" 
d="M786 -16q-152 0 -282.5 50t-226 142.5t-149.5 231.5t-54 309t55 310t151.5 231.5t226 141.5t279.5 50q266 0 436 -132.5t193 -359.5h-289q-19 115 -112 184.5t-230 69.5q-190 0 -311 -132.5t-121 -362.5q0 -231 121 -363.5t311 -132.5q138 0 235 75t111 185h291
q-21 -160 -109 -273.5t-222 -168.5t-304 -55z" />
    <glyph glyph-name="D" unicode="D" horiz-adv-x="1419" 
d="M616 0h-481v1434h481q119 0 227 -28.5t200.5 -87t160 -142.5t106 -201.5t38.5 -257.5q0 -173 -59 -311.5t-160 -226t-232.5 -133.5t-280.5 -46zM414 1196v-958h170q100 0 186.5 29t154 86t106 150.5t38.5 213.5t-38.5 213.5t-106 150.5t-154 86t-186.5 29h-170z" />
    <glyph glyph-name="E" unicode="E" horiz-adv-x="1222" 
d="M1114 0h-981v1434h973v-238h-692v-338h561v-237h-561v-383h700v-238z" />
    <glyph glyph-name="F" unicode="F" horiz-adv-x="1191" 
d="M414 0h-281v1434h973v-238h-692v-338h561v-237h-561v-621z" />
    <glyph glyph-name="G" unicode="G" horiz-adv-x="1544" 
d="M776 -16q-145 0 -272 49t-223 139.5t-151.5 231t-55.5 313.5t57 313.5t156 231t231 139.5t283 49q253 0 422 -135t192 -357h-287q-19 115 -112.5 184.5t-233.5 69.5q-191 0 -310.5 -134.5t-119.5 -360.5t121.5 -361t319.5 -135q160 0 262.5 90t111.5 234h-428v219h684
v-764h-254v205q-46 -107 -151.5 -164t-241.5 -57z" />
    <glyph glyph-name="H" unicode="H" horiz-adv-x="1464" 
d="M1053 864v570h278v-1434h-278v627h-639v-627h-281v1434h281v-570h639z" />
    <glyph glyph-name="I" unicode="I" horiz-adv-x="546" 
d="M414 0h-281v1434h281v-1434z" />
    <glyph glyph-name="J" unicode="J" horiz-adv-x="755" 
d="M55 2v242q49 -17 105 -17q84 0 133 52.5t49 144.5v1010h281v-1024q0 -201 -110.5 -313.5t-289.5 -112.5q-101 0 -168 18z" />
    <glyph glyph-name="K" unicode="K" horiz-adv-x="1394" 
d="M1378 0h-340l-452 666l-172 -181v-485h-279l-2 1434h281v-572l544 572h369l-553 -574z" />
    <glyph glyph-name="L" unicode="L" horiz-adv-x="1179" 
d="M1071 0h-938v1434h281v-1196h657v-238z" />
    <glyph glyph-name="M" unicode="M" horiz-adv-x="1873" 
d="M414 0h-281v1434h391l418 -1016l420 1016h379v-1434h-281v707q0 76 4 165t8 140l3 51h-9q-57 -176 -123 -332l-299 -731h-213l-301 729q-29 70 -59.5 153.5t-46.5 131.5l-16 49l-9 -2q15 -186 15 -354v-707z" />
    <glyph glyph-name="N" unicode="N" horiz-adv-x="1468" 
d="M414 0h-279v1434h344l424 -758q37 -65 77 -144t62 -126l21 -46l8 2q-16 185 -16 353v719h278v-1434h-344l-426 758q-36 65 -75.5 144t-60.5 125l-21 46l-9 -2q17 -184 17 -352v-719z" />
    <glyph glyph-name="O" unicode="O" horiz-adv-x="1603" 
d="M803 -16q-155 0 -290.5 55.5t-232 152t-151.5 232.5t-55 293t55 293t151.5 232.5t232 152t290.5 55.5q154 0 289 -55.5t231 -152t151.5 -232.5t55.5 -293t-55.5 -293t-151.5 -232.5t-231 -152t-289 -55.5zM803 221q195 0 321.5 141t126.5 355t-126.5 354.5t-321.5 140.5
q-196 0 -323.5 -140t-127.5 -355t127.5 -355.5t323.5 -140.5z" />
    <glyph glyph-name="P" unicode="P" horiz-adv-x="1232" 
d="M414 0h-279v1434h584q213 0 343 -120.5t130 -316.5q0 -197 -130 -317.5t-343 -120.5h-305v-559zM414 1196v-399h276q101 0 163 54.5t62 145.5q0 89 -62 144t-163 55h-276z" />
    <glyph glyph-name="Q" unicode="Q" horiz-adv-x="1675" 
d="M1452 238h174v-238h-672q-78 -16 -151 -16q-155 0 -290.5 55.5t-232 152t-151.5 232.5t-55 293t55 293t151.5 232.5t232 152t290.5 55.5q154 0 289 -55.5t231 -152t151.5 -232.5t55.5 -293q0 -135 -50.5 -262t-140.5 -228q75 11 113 11zM352 717q0 -215 127.5 -355.5
t323.5 -140.5q195 0 321.5 141t126.5 355t-126.5 354.5t-321.5 140.5q-196 0 -323.5 -140t-127.5 -355z" />
    <glyph glyph-name="R" unicode="R" horiz-adv-x="1318" 
d="M907 633l387 -633h-321l-342 588h-217v-588h-279v1434h559q203 0 329 -116t126 -306q0 -123 -64.5 -224t-177.5 -155zM647 1196h-233v-371h233q102 0 162.5 51.5t60.5 135.5t-60.5 134t-162.5 50z" />
    <glyph glyph-name="S" unicode="S" horiz-adv-x="1220" 
d="M633 -16q-149 0 -274.5 59t-207 172t-94.5 262h277q15 -111 96.5 -183.5t202.5 -72.5q111 0 178.5 47.5t67.5 132.5q0 48 -26 84t-70.5 59.5t-102 42t-121 36.5t-127 39t-121 53.5t-102 74.5t-70.5 108t-26 149q0 118 66.5 211t181 142.5t255.5 49.5q133 0 244.5 -47
t188.5 -144.5t96 -232.5h-275q-18 78 -87 132t-167 54q-106 0 -164.5 -40t-58.5 -113q0 -47 33 -80.5t86.5 -52t122 -38.5t140.5 -38t140.5 -52.5t122 -79.5t86.5 -122t33 -178q0 -197 -145 -315.5t-379 -118.5z" />
    <glyph glyph-name="T" unicode="T" horiz-adv-x="1206" 
d="M33 1434h1141v-238h-433v-1196h-278v1196h-430v238z" />
    <glyph glyph-name="U" unicode="U" horiz-adv-x="1439" 
d="M721 -16q-264 0 -426 149.5t-162 392.5v908h281v-908q0 -135 85.5 -220t221.5 -85q135 0 220 85t85 220v908h279v-908q0 -243 -161 -392.5t-423 -149.5z" />
    <glyph glyph-name="V" unicode="V" horiz-adv-x="1427" 
d="M870 0h-313l-526 1434h297l286 -797q25 -70 50.5 -145t37.5 -114l13 -40h8q43 141 98 299l287 797h291z" />
    <glyph glyph-name="W" unicode="W" horiz-adv-x="2142" 
d="M776 0h-311l-434 1434h295l217 -789l78 -307h8q33 145 76 307l213 789h313l217 -789q20 -73 39 -149.5t28 -117.5l9 -40h8q33 145 78 307l215 789h286l-434 -1434h-311l-213 754q-20 72 -39.5 148.5t-29.5 116.5l-9 40h-8q-33 -143 -80 -305z" />
    <glyph glyph-name="X" unicode="X" horiz-adv-x="1290" 
d="M801 764l469 -764h-326l-305 498l-307 -498h-309l460 750l-420 684h326l258 -418l256 418h309z" />
    <glyph glyph-name="Y" unicode="Y" horiz-adv-x="1314" 
d="M1001 1434h312l-516 -854v-580h-279v580l-516 854h324l338 -572z" />
    <glyph glyph-name="Z" unicode="Z" horiz-adv-x="1230" 
d="M1157 0h-1104v215l772 981h-733v238h1059v-215l-772 -981h778v-238z" />
    <glyph glyph-name="a" unicode="a" horiz-adv-x="1185" 
d="M569 1153q224 0 360 -119t136 -338v-696h-254v154q-43 -78 -138 -124t-214 -46q-163 0 -268 93t-105 232q0 168 126 257.5t388 117.5l211 25v30q0 99 -67 160.5t-175 61.5q-101 0 -168 -62t-73 -156h-242q9 124 78 219t175 143t230 48zM520 195q132 0 210.5 90t80.5 229
v6l-215 -26q-134 -14 -198 -52t-64 -114q0 -62 49.5 -97.5t136.5 -35.5z" />
    <glyph glyph-name="b" unicode="b" 
d="M731 1151q158 0 285.5 -72t201.5 -206t74 -306q0 -130 -43 -239.5t-118.5 -184.5t-179.5 -117t-224 -42q-103 0 -196.5 43t-149.5 114v-141h-260v1450h260v-455q56 70 151 113t199 43zM707 207q141 0 231 100.5t90 259.5t-90 260t-231 101q-143 0 -234.5 -101t-91.5 -260
t91.5 -259.5t234.5 -100.5z" />
    <glyph glyph-name="c" unicode="c" horiz-adv-x="1273" 
d="M655 -16q-249 0 -411 164t-162 419q0 126 43 235t118.5 185.5t182 120t229.5 43.5q216 0 360 -110.5t173 -311.5h-264q-18 89 -90 144t-179 55q-133 0 -221 -100.5t-88 -260.5q0 -159 88.5 -259.5t220.5 -100.5q113 0 185 54.5t90 141.5h268q-26 -193 -174 -306
t-369 -113z" />
    <glyph glyph-name="d" unicode="d" 
d="M993 995v455h260v-1450h-260v139q-56 -70 -149.5 -112.5t-196.5 -42.5q-120 0 -224 42t-179.5 117t-118.5 184.5t-43 239.5q0 172 74 306t201.5 206t285.5 72q104 0 199 -43t151 -113zM670 207q143 0 233 100t90 260t-90 260.5t-233 100.5t-233.5 -100.5t-90.5 -260.5
q0 -159 90.5 -259.5t233.5 -100.5z" />
    <glyph glyph-name="e" unicode="e" horiz-adv-x="1275" 
d="M1194 621l-6 -111h-850q15 -145 100.5 -228t220.5 -83q102 0 170 45.5t91 128.5h266q-34 -195 -179.5 -293t-355.5 -98q-108 0 -201 32.5t-160 88.5t-114.5 130.5t-70.5 159.5t-23 174q0 90 21.5 174.5t67 159.5t110 131t157 88.5t201.5 32.5q110 0 203.5 -31t157 -83.5
t108.5 -121.5t65.5 -144t20.5 -152zM348 700h567q-5 116 -78.5 188.5t-197.5 72.5q-114 0 -189.5 -68t-101.5 -193z" />
    <glyph glyph-name="f" unicode="f" horiz-adv-x="845" 
d="M670 1325q-73 0 -118.5 -47t-45.5 -133v-10h282v-215h-282v-920h-260v920h-187v215h187v32q0 184 106.5 284.5t278.5 100.5q99 0 160 -28v-224q-61 25 -121 25z" />
    <glyph glyph-name="g" unicode="g" horiz-adv-x="1333" 
d="M958 997v138h259v-1020q0 -152 -73.5 -267.5t-201.5 -176t-291 -60.5q-223 0 -371 100.5t-171 280.5h253q12 -73 92 -120.5t197 -47.5q131 0 219 79.5t88 211.5v110q-46 -71 -136 -112t-204 -41q-237 0 -383.5 147.5t-146.5 390.5q0 246 146 393.5t382 147.5
q108 0 199.5 -41.5t142.5 -112.5zM662 289q138 0 225.5 89.5t87.5 231.5q0 145 -87.5 236.5t-225.5 91.5q-140 0 -227 -91t-87 -237q0 -143 87.5 -232t226.5 -89z" />
    <glyph glyph-name="h" unicode="h" horiz-adv-x="1298" 
d="M745 1151q199 0 316 -109.5t117 -293.5v-748h-263v682q0 108 -65.5 173t-173.5 65q-125 0 -210 -124t-85 -307v-489h-260v1450h260v-492q62 89 159.5 141t204.5 52z" />
    <glyph glyph-name="i" unicode="i" horiz-adv-x="501" 
d="M250 1280q-69 0 -114.5 44t-45.5 110t45.5 110.5t114.5 44.5q68 0 114 -44.5t46 -110.5t-46 -110t-114 -44zM381 0h-260v1135h260v-1135z" />
    <glyph glyph-name="j" unicode="j" horiz-adv-x="501" 
d="M248 1280q-69 0 -114.5 44t-45.5 110t45.5 110.5t114.5 44.5q68 0 114 -44.5t46 -110.5t-46 -110t-114 -44zM-6 -389l-51 2v223h34q67 0 105.5 46.5t38.5 140.5v1112h260v-1147q0 -182 -106.5 -282.5t-280.5 -94.5z" />
    <glyph glyph-name="k" unicode="k" horiz-adv-x="1249" 
d="M1229 0h-314l-372 526l-162 -151v-375h-260v1450h260v-752l463 437h346l-455 -428z" />
    <glyph glyph-name="l" unicode="l" horiz-adv-x="501" 
d="M381 0h-260v1450h260v-1450z" />
    <glyph glyph-name="m" unicode="m" horiz-adv-x="1986" 
d="M1473 1151q177 0 285 -110t108 -293v-748h-260v682q0 107 -60 172.5t-157 65.5q-123 0 -194 -115t-71 -316v-489h-262v682q0 107 -59.5 172.5t-157.5 65.5q-122 0 -193 -115.5t-71 -315.5v-489h-260v1135h260v-203q37 93 131.5 156t216.5 63q132 0 228 -65.5t124 -172.5
q68 115 171 176.5t221 61.5z" />
    <glyph glyph-name="n" unicode="n" horiz-adv-x="1298" 
d="M745 1151q199 0 316 -109.5t117 -293.5v-748h-263v682q0 108 -65.5 173t-173.5 65q-125 0 -210 -124t-85 -307v-489h-260v1135h260v-177q62 89 159.5 141t204.5 52z" />
    <glyph glyph-name="o" unicode="o" horiz-adv-x="1339" 
d="M670 -16q-257 0 -422.5 163.5t-165.5 419.5t165.5 420t422.5 164q168 0 302 -74t209.5 -207.5t75.5 -302.5t-75.5 -302t-209.5 -207t-302 -74zM670 207q143 0 233 100t90 260t-90 260.5t-233 100.5t-233.5 -100.5t-90.5 -260.5q0 -159 90.5 -259.5t233.5 -100.5z" />
    <glyph glyph-name="p" unicode="p" 
d="M727 1151q160 0 288.5 -72t202.5 -205.5t74 -306.5q0 -129 -43 -239t-118.5 -185t-178.5 -117t-221 -42q-105 0 -199.5 43t-150.5 114v-446h-260v1440h260v-140q56 70 149.5 113t196.5 43zM707 207q141 0 231 100.5t90 259.5t-90 260t-231 101q-143 0 -234.5 -101
t-91.5 -260t91.5 -259.5t234.5 -100.5z" />
    <glyph glyph-name="q" unicode="q" 
d="M993 997v138h260v-1440h-260v444q-56 -70 -151 -112.5t-199 -42.5q-118 0 -221 42t-178.5 117t-118.5 185t-43 239q0 173 74 306.5t202.5 205.5t288.5 72q102 0 195.5 -42.5t150.5 -111.5zM670 207q143 0 233 100t90 260t-90 260.5t-233 100.5t-233.5 -100.5
t-90.5 -260.5q0 -159 90.5 -259.5t233.5 -100.5z" />
    <glyph glyph-name="r" unicode="r" horiz-adv-x="905" 
d="M846 1130v-249q-79 28 -152 28q-137 0 -225 -124.5t-88 -364.5v-420h-260v1135h260v-256q35 123 131.5 198.5t212.5 75.5q85 0 121 -23z" />
    <glyph glyph-name="s" unicode="s" horiz-adv-x="1034" 
d="M530 -18q-205 0 -339 107.5t-140 283.5h246q4 -89 68.5 -141t164.5 -52q89 0 142 38.5t53 103.5q0 44 -27.5 75t-73 47t-103 32.5t-118 29t-118 38.5t-103 60t-73 93.5t-27.5 138.5q0 140 116 228.5t294 88.5q196 0 319.5 -97.5t130.5 -260.5h-248q-4 77 -62.5 124.5
t-135.5 47.5q-78 0 -126 -34t-48 -89q0 -42 27.5 -70t72.5 -40.5t102.5 -26t117 -24t117 -36.5t102.5 -62t72.5 -102t27.5 -155q0 -153 -120.5 -249.5t-310.5 -96.5z" />
    <glyph glyph-name="t" unicode="t" horiz-adv-x="833" 
d="M637 211q72 0 127 22v-221q-61 -28 -160 -28q-171 0 -278 100.5t-107 282.5v553h-184v215h184v235h262v-235h281v-215h-281v-529q0 -87 42 -133.5t114 -46.5z" />
    <glyph glyph-name="u" unicode="u" horiz-adv-x="1298" 
d="M918 645v490h260v-1135h-260v178q-62 -89 -160 -141.5t-205 -52.5q-199 0 -315.5 110t-116.5 295v746h262v-682q0 -107 65.5 -172.5t174.5 -65.5q125 0 210 123.5t85 306.5z" />
    <glyph glyph-name="v" unicode="v" horiz-adv-x="1200" 
d="M725 0h-252l-450 1135h284l189 -502q27 -70 53 -144.5t39 -113.5l12 -39h8q46 139 105 297l188 502h277z" />
    <glyph glyph-name="w" unicode="w" horiz-adv-x="1863" 
d="M1407 639l160 496h274l-409 -1135h-244l-158 467l-94 301h-6q-41 -143 -94 -301l-158 -467h-248l-407 1135h282l160 -498q24 -71 46.5 -146.5t32.5 -114.5l11 -40h8q39 141 90 303l160 496h246l162 -498l90 -301h6q39 141 90 303z" />
    <glyph glyph-name="x" unicode="x" horiz-adv-x="1169" 
d="M737 588l396 -588h-314l-237 354l-240 -354h-305l391 582l-371 553h314l215 -320l213 320h307z" />
    <glyph glyph-name="y" unicode="y" horiz-adv-x="1200" 
d="M713 649l186 486h279l-578 -1440h-276l141 338l-442 1102h282l187 -486q27 -70 53.5 -144.5t39.5 -113.5l13 -39h8q46 139 107 297z" />
    <glyph glyph-name="z" unicode="z" horiz-adv-x="1112" 
d="M1040 0h-968v201l628 719h-589v215h917v-201l-629 -719h641v-215z" />
    <glyph glyph-name="uni00A0" unicode="&#xa0;" horiz-adv-x="489" 
 />
    <glyph glyph-name="G.ss05" horiz-adv-x="1505" 
d="M778 -16q-213 0 -377.5 92.5t-254 258.5t-89.5 380q0 216 90.5 383t254.5 259.5t376 92.5q166 0 299.5 -58t218.5 -171t99 -265h-285q-13 115 -107 185.5t-225 70.5q-200 0 -322 -137t-122 -358q0 -224 121 -360t323 -136q164 0 261.5 86.5t105.5 237.5h-424v219h711v-84
q0 -159 -48.5 -290t-135.5 -220t-207.5 -137.5t-262.5 -48.5z" />
    <glyph glyph-name="a.ss01" horiz-adv-x="1396" 
d="M993 995v140h260v-1135h-260v139q-56 -70 -149.5 -112.5t-196.5 -42.5q-120 0 -224 42t-179.5 117t-118.5 184.5t-43 239.5q0 172 74 306t201.5 206t285.5 72q104 0 199 -43t151 -113zM670 207q143 0 233 100t90 260t-90 260.5t-233 100.5t-233.5 -100.5t-90.5 -260.5
q0 -159 90.5 -259.5t233.5 -100.5z" />
    <glyph glyph-name="g.ss02" horiz-adv-x="1116" 
d="M432 266h264q189 0 293.5 -81.5t104.5 -227.5q0 -96 -43 -165.5t-119.5 -107.5t-167 -55.5t-199.5 -17.5q-241 0 -385.5 79t-144.5 232q0 138 112 230q-73 61 -73 153q0 130 147 227q-86 99 -86 242q0 168 118 271.5t306 103.5q67 0 119 -14h403v-215h-73q-35 0 -60 2
q33 -74 33 -148q0 -170 -118.5 -273.5t-303.5 -103.5q-92 0 -174 29q-61 -45 -61 -82t28 -57.5t80 -20.5zM557 950q-83 0 -132.5 -48.5t-49.5 -127.5t49.5 -127.5t132.5 -48.5t133.5 49t50.5 127t-50.5 127t-133.5 49zM565 -203q277 0 277 146q0 64 -48.5 94.5t-121.5 30.5
h-250q-26 0 -76 4q-57 -51 -57 -123q0 -76 66.5 -114t209.5 -38z" />
    <glyph glyph-name="l.ss04" horiz-adv-x="550" 
d="M498 213v-225q-62 -6 -118.5 -3.5t-105.5 24t-84.5 57t-56 95.5t-20.5 138v1151h260v-1122q0 -68 31.5 -92.5t93.5 -22.5z" />
    <glyph glyph-name="y.ss06" horiz-adv-x="1200" 
d="M305 1135l189 -486q26 -70 52 -144.5t39 -113.5l13 -39h8q46 141 107 297l186 486h279l-508 -1260q-98 -244 -394 -244q-88 0 -194 47v228q105 -51 180 -51q130 0 176 112l27 70l-442 1098h282z" />
    <glyph glyph-name="three.ss03" horiz-adv-x="1193" 
d="M602 -16q-149 0 -268 55.5t-191 162t-77 247.5h276q6 -103 75 -165.5t183 -62.5t183 56.5t69 148.5q0 96 -69 150.5t-183 54.5h-102v217h82q101 0 165 50.5t64 135.5q0 80 -60.5 130t-158.5 50q-105 0 -172 -61.5t-66 -165.5h-264q-1 203 143.5 333t366.5 130
q131 0 239.5 -48t173 -136.5t64.5 -200.5q0 -115 -71.5 -200.5t-178.5 -121.5q129 -15 212 -110t83 -232q0 -181 -147.5 -299t-370.5 -118z" />
    </font>
</defs>
</svg>
