<?xml version="1.0" standalone="no"?>
<!DOCTYPE svg PUBLIC "-//W3C//DTD SVG 1.1//EN" "http://www.w3.org/Graphics/SVG/1.1/DTD/svg11.dtd" >
<svg xmlns="http://www.w3.org/2000/svg" xmlns:xlink="http://www.w3.org/1999/xlink" version="1.1">
<metadata>
Created by FontForge 20170731 at Wed May 11 17:04:29 2022
 By Aleksey,,,
Copyright (c) 2018 by Adrien Midzic. All rights reserved.
</metadata>
<defs>
<font id="Kern-Regular" horiz-adv-x="1150" >
  <font-face 
    font-family="Kern"
    font-weight="400"
    font-stretch="normal"
    units-per-em="2048"
    panose-1="0 0 5 0 0 0 0 0 0 0"
    ascent="1638"
    descent="-410"
    x-height="1044"
    cap-height="1434"
    bbox="-791 -559 2419 1892"
    underline-thickness="129"
    underline-position="-474"
    unicode-range="U+0020-25CA"
  />
<missing-glyph horiz-adv-x="872" 
d="M729 1581v-137l-524 -227l524 -283v-215l-530 -285l530 -287v-215l-586 -254v138l525 227l-525 283v215l531 286l-531 285v215z" />
    <glyph glyph-name=".notdef" horiz-adv-x="872" 
d="M729 1581v-137l-524 -227l524 -283v-215l-530 -285l530 -287v-215l-586 -254v138l525 227l-525 283v215l531 286l-531 285v215z" />
    <glyph glyph-name=".null" horiz-adv-x="0" 
 />
    <glyph glyph-name="nonmarkingreturn" horiz-adv-x="682" 
 />
    <glyph glyph-name="space" unicode=" " horiz-adv-x="671" 
 />
    <glyph glyph-name="exclam" unicode="!" horiz-adv-x="450" 
d="M150 371v1063h151v-1063h-151zM143 0v166h164v-166h-164z" />
    <glyph glyph-name="quotedbl" unicode="&#x22;" horiz-adv-x="655" 
d="M102 995v74q45 12 61.5 50t16.5 128h-78v187h174v-193q0 -99 -44.5 -163t-129.5 -83zM389 995v74q45 12 61.5 50t16.5 128h-78v187h174v-193q0 -99 -44.5 -163t-129.5 -83z" />
    <glyph glyph-name="numbersign" unicode="#" horiz-adv-x="1306" 
d="M1245 899h-192l-113 -340h162v-143h-209l-139 -416h-152l139 416h-372l-140 -416h-151l139 416h-176v143h223l113 340h-193v143h240l131 392h152l-132 -392h373l131 392h152l-131 -392h145v-143zM788 559l113 340h-373l-112 -340h372z" />
    <glyph glyph-name="dollar" unicode="$" horiz-adv-x="1167" 
d="M1053 371q0 -156 -97.5 -254t-271.5 -121v-180h-152v176q-198 12 -319.5 132.5t-134.5 319.5l153 27q9 -138 88 -227.5t213 -106.5v512q-117 37 -195.5 79.5t-122.5 94.5t-61.5 108.5t-17.5 131.5q0 169 104 269t293 110v155h152v-163q163 -31 256.5 -150t93.5 -297
l-151 -24q-16 261 -199 321v-510q207 -73 288 -165.5t81 -237.5zM289 1079q0 -100 49 -155t194 -103v477q-114 -8 -178.5 -66t-64.5 -153zM684 141q100 19 156.5 78t56.5 148q0 96 -44 145t-169 92v-463z" />
    <glyph glyph-name="percent" unicode="%" horiz-adv-x="1759" 
d="M432 657q-137 2 -233.5 108.5t-96.5 283.5q0 173 93 283t237 112q137 2 233.5 -105.5t96.5 -289.5q0 -172 -94 -283t-236 -109zM467 0l666 1434h151l-666 -1434h-151zM432 772q90 2 143.5 69t53.5 208q0 138 -56 210t-141 70q-81 -2 -139 -71.5t-57 -208.5
q1 -135 58 -207t138 -70zM1327 -10q-137 2 -233.5 108t-96.5 283q0 173 93 283t237 112q137 2 233.5 -105.5t96.5 -289.5q0 -177 -93.5 -285t-236.5 -106zM1327 104q90 2 143.5 69t53.5 208q0 138 -56 210.5t-141 70.5q-81 -2 -139.5 -72t-57.5 -209q1 -135 58.5 -207
t138.5 -70z" />
    <glyph glyph-name="ampersand" unicode="&#x26;" horiz-adv-x="1413" 
d="M1331 0h-196l-131 143q-169 -161 -431 -161q-217 0 -344 103t-127 280q0 74 22.5 134t68.5 108.5t103 86.5t138 76q-87 103 -127.5 182.5t-40.5 173.5q0 141 102 230.5t267 89.5q164 0 261 -96.5t97 -225.5q0 -71 -25 -131t-73.5 -107t-104 -82.5t-131.5 -70.5l336 -364
q78 140 127 338l150 2q-65 -292 -178 -445zM631 1313q-99 0 -155 -51t-56 -138q0 -67 41 -134t121 -154q148 65 205 125t57 153q0 88 -58 143.5t-155 55.5zM586 115q192 0 321 135l-381 420q-67 -27 -112 -53t-84 -62.5t-57.5 -85t-18.5 -111.5q0 -62 30 -110t79.5 -76
t106 -42.5t116.5 -14.5z" />
    <glyph glyph-name="quotesingle" unicode="'" horiz-adv-x="378" 
d="M102 995v74q45 12 61.5 50t16.5 128h-78v187h174v-193q0 -99 -44.5 -163t-129.5 -83z" />
    <glyph glyph-name="parenleft" unicode="(" horiz-adv-x="561" 
d="M348 -225q-127 177 -186.5 413.5t-59.5 456.5t59.5 457t186.5 414h152q-127 -177 -186.5 -414t-59.5 -457t59.5 -456.5t186.5 -413.5h-152z" />
    <glyph glyph-name="parenright" unicode=")" horiz-adv-x="561" 
d="M61 -225q127 177 186.5 413.5t59.5 456.5t-59.5 457t-186.5 414h152q127 -177 186.5 -414t59.5 -457t-59.5 -456.5t-186.5 -413.5h-152z" />
    <glyph glyph-name="asterisk" unicode="*" horiz-adv-x="894" 
d="M793 1163l-252 -106l217 -201l-96 -98l-213 229l-216 -229l-96 98l217 201l-252 106l58 123l229 -117l-10 265h137l-10 -265l229 117z" />
    <glyph glyph-name="plus" unicode="+" horiz-adv-x="1333" 
d="M1190 586v-127h-451v-459h-145v459h-451v129h451v456h145v-458h451z" />
    <glyph glyph-name="comma" unicode="," horiz-adv-x="460" 
d="M143 -252v74q45 12 61.5 50t16.5 128h-78v186h174v-192q0 -99 -44.5 -163t-129.5 -83z" />
    <glyph glyph-name="hyphen" unicode="-" horiz-adv-x="935" 
d="M143 506v129h650v-129h-650z" />
    <glyph glyph-name="period" unicode="." horiz-adv-x="450" 
d="M143 0v166h164v-166h-164z" />
    <glyph glyph-name="slash" unicode="/" horiz-adv-x="940" 
d="M0 -184l752 1659h151l-751 -1659h-152z" />
    <glyph glyph-name="zero" unicode="0" horiz-adv-x="1302" 
d="M651 -10q-173 0 -298 91t-188 254t-63 382q0 344 149 535.5t400 191.5q173 0 298 -91t188 -254t63 -382q0 -344 -149 -535.5t-400 -191.5zM651 133q184 0 286.5 158t102.5 424q0 277 -105.5 431t-283.5 154q-185 0 -287 -158.5t-102 -426.5q0 -275 105.5 -428.5
t283.5 -153.5z" />
    <glyph glyph-name="one" unicode="1" horiz-adv-x="882" 
d="M494 0v1151l-392 -2v143h392v142h151v-1434h-151z" />
    <glyph glyph-name="two" unicode="2" horiz-adv-x="1206" 
d="M322 143h782v-143h-1012v143q99 80 274.5 227.5t229.5 192.5q85 71 137.5 121t96.5 108.5t63.5 117.5t19.5 128q0 114 -75.5 188t-212.5 74q-145 0 -231 -89.5t-95 -247.5l-158 24q18 209 144 333t336 124q215 0 333.5 -113.5t118.5 -292.5q0 -42 -6.5 -81.5t-15.5 -73
t-28.5 -69.5t-36.5 -63t-49 -63t-55.5 -61t-67.5 -64.5t-73.5 -65t-83.5 -71.5q-27 -23 -41 -35q-211 -181 -294 -248z" />
    <glyph glyph-name="three" unicode="3" horiz-adv-x="1196" 
d="M1094 387q0 -75 -34.5 -145.5t-97 -126.5t-157.5 -90t-207 -35h-2h-2q-150 1 -265 67t-177 176t-70 248l156 29q2 -167 98.5 -272t261.5 -105q161 0 248.5 79.5t87.5 195.5q0 80 -48.5 138.5t-116.5 84.5t-142 26h-138v144h82q146 0 229 71.5t83 180.5q0 124 -75.5 185.5
t-195.5 61.5q-158 0 -238.5 -88.5t-90.5 -228.5l-158 25q7 90 39.5 167t90.5 138t149.5 96t207.5 35q203 0 314.5 -104.5t111.5 -262.5q0 -126 -60.5 -210t-164.5 -124q135 -33 208 -130t73 -226z" />
    <glyph glyph-name="four" unicode="4" horiz-adv-x="1318" 
d="M1247 561v-143h-252v-418h-151v418h-742v143l693 873h200v-873h252zM272 561h572v721z" />
    <glyph glyph-name="five" unicode="5" horiz-adv-x="1216" 
d="M618 928q101 0 185 -27t140.5 -72t95.5 -106t57 -127.5t18 -136.5t-18 -136.5t-57 -127.5t-95.5 -106t-140.5 -72t-185 -27q-114 0 -209 38t-160 104t-103 155.5t-44 193.5l156 29q2 -167 98.5 -272t261.5 -105q88 0 155.5 28.5t105.5 76.5t56.5 103.5t18.5 117.5
t-18.5 117.5t-56.5 103t-105.5 76t-155.5 28.5q-196 0 -278 -125l-133 43l72 732h753v-144h-629l-41 -432q114 70 256 70z" />
    <glyph glyph-name="six" unicode="6" horiz-adv-x="1204" 
d="M649 928q203 0 322 -131t119 -348q0 -207 -131 -333t-351 -126q-506 0 -506 727t514 727q201 0 325 -111t161 -295l-154 -28q-26 135 -108.5 212.5t-223.5 77.5q-194 0 -278 -148.5t-84 -436.5q0 -40 2 -60q34 116 133.5 194.5t259.5 78.5zM616 133q147 0 234.5 89.5
t87.5 236.5q0 146 -85.5 235.5t-225.5 89.5q-158 0 -244 -94.5t-86 -230.5q0 -145 86 -235.5t233 -90.5z" />
    <glyph glyph-name="seven" unicode="7" horiz-adv-x="1097" 
d="M82 1434h934v-121l-711 -1313h-180l717 1298q-109 -8 -240 -8h-520v144z" />
    <glyph glyph-name="eight" unicode="8" horiz-adv-x="1222" 
d="M848 756q130 -47 201 -142.5t71 -218.5q0 -133 -68.5 -226.5t-181 -137t-258.5 -43.5q-232 0 -371 108.5t-139 298.5q0 128 73 222t202 139q-114 40 -174 119t-60 188q0 180 127.5 280.5t341.5 100.5q221 0 344 -103.5t123 -277.5q0 -113 -60.5 -191t-170.5 -116z
M295 1063q0 -111 91.5 -175.5t225.5 -64.5q138 0 227 67t89 173q0 112 -86 174.5t-230 62.5q-150 0 -233.5 -64t-83.5 -173zM612 131q172 0 264.5 72t92.5 213q0 123 -102.5 193.5t-254.5 70.5q-158 0 -258 -73t-100 -191q0 -147 94.5 -216t263.5 -69z" />
    <glyph glyph-name="nine" unicode="9" horiz-adv-x="1204" 
d="M600 1444q251 0 376.5 -194t125.5 -533q0 -727 -514 -727q-201 0 -325 110.5t-161 294.5l154 29q26 -135 108.5 -213t223.5 -78q194 0 278 149t84 437q0 39 -2 59q-34 -116 -133.5 -194t-259.5 -78q-203 0 -321.5 131t-118.5 348q0 206 132.5 332.5t352.5 126.5zM578 649
q157 0 243 94.5t86 231.5q0 145 -86 235t-233 90t-234.5 -89t-87.5 -236q0 -146 86 -236t226 -90z" />
    <glyph glyph-name="colon" unicode=":" horiz-adv-x="450" 
d="M143 838v166h164v-166h-164zM143 0v166h164v-166h-164z" />
    <glyph glyph-name="semicolon" unicode=";" horiz-adv-x="460" 
d="M143 838v166h164v-166h-164zM143 -252v74q45 12 61.5 50t16.5 128h-78v186h174v-192q0 -99 -44.5 -163t-129.5 -83z" />
    <glyph glyph-name="less" unicode="&#x3c;" horiz-adv-x="1085" 
d="M942 1024v-156l-649 -350l649 -346v-160l-799 426v160z" />
    <glyph glyph-name="equal" unicode="=" horiz-adv-x="1265" 
d="M143 643v129l979 -2v-127h-979zM143 268v129l979 -2v-127h-979z" />
    <glyph glyph-name="greater" unicode="&#x3e;" horiz-adv-x="1085" 
d="M143 1024l799 -426v-160l-799 -426v160l650 346l-650 350v156z" />
    <glyph glyph-name="question" unicode="?" horiz-adv-x="1163" 
d="M573 1444q215 0 331 -113.5t116 -292.5q0 -82 -21 -154t-65 -133.5t-121 -103.5t-180 -55v-221h-152v336q379 0 379 331q0 114 -71.5 188t-200.5 74q-148 0 -232.5 -114.5t-48.5 -284.5l-157 25q-19 145 30 264t153 186.5t240 67.5zM475 0v166h164v-166h-164z" />
    <glyph glyph-name="at" unicode="@" horiz-adv-x="1738" 
d="M1296 266q-96 0 -160.5 54.5t-64.5 144.5v14q-25 -103 -99 -158t-171 -55q-124 0 -197.5 55t-73.5 166q0 102 72.5 168.5t214.5 92.5l236 40v9q0 174 -176 174q-97 0 -158 -53.5t-55 -141.5l-138 19q-3 133 97.5 212.5t255.5 79.5q148 0 230.5 -74.5t82.5 -217.5v-281
q0 -26 5.5 -49t19 -45.5t40 -35.5t64.5 -13q86 0 133 83t47 253q0 127 -39 233.5t-114.5 186t-195 123.5t-271.5 44q-290 0 -458.5 -166t-168.5 -473q0 -161 47.5 -286t132.5 -203t198 -118t249 -40q213 0 432 111v-133q-95 -51 -209 -79t-223 -28q-130 0 -245 29
t-213.5 90.5t-169.5 151.5t-111 219t-40 286q0 177 60.5 323t165.5 242.5t247 149.5t306 53q173 0 316 -55t238.5 -151.5t148 -227.5t52.5 -282q0 -229 -90 -335t-250 -106zM819 379q89 0 159.5 47t74.5 127v129l-199 -35q-97 -17 -140.5 -53.5t-43.5 -97.5
q0 -60 36.5 -88.5t112.5 -28.5z" />
    <glyph glyph-name="A" unicode="A" horiz-adv-x="1439" 
d="M1257 0l-176 416h-725l-174 -416h-162l611 1434h172l616 -1434h-162zM418 559h602l-168 397q-33 84 -135 324q-117 -282 -135 -330z" />
    <glyph glyph-name="B" unicode="B" horiz-adv-x="1314" 
d="M973 731q124 -33 187 -125t63 -219q0 -98 -32.5 -174t-89 -121.5t-129 -68.5t-157.5 -23h-672v1434h637q203 0 305.5 -103t102.5 -264q0 -128 -57.5 -212.5t-157.5 -123.5zM766 1290h-471v-499h446q144 0 217.5 70t73.5 181q0 124 -74 186t-192 62zM797 143
q133 0 199.5 74.5t66.5 190.5q0 120 -80 179.5t-207 59.5h-481v-504h502z" />
    <glyph glyph-name="C" unicode="C" horiz-adv-x="1417" 
d="M1159 510l156 -29q-28 -226 -180 -358.5t-398 -132.5q-291 0 -463 199t-172 528q0 161 47 297t131 230.5t204 147t261 52.5q236 0 383 -133t175 -359l-156 -28q-17 178 -126 277t-284 99q-214 0 -344.5 -160t-130.5 -421q0 -264 130.5 -425t344.5 -161q184 0 294.5 99
t127.5 278z" />
    <glyph glyph-name="D" unicode="D" horiz-adv-x="1402" 
d="M631 1434q194 0 346.5 -91t237.5 -254.5t85 -371.5t-85 -371.5t-237.5 -254.5t-346.5 -91h-488v1434h488zM621 143q229 2 374.5 163t145.5 413q0 249 -145.5 408.5t-374.5 162.5h-326v-1149z" />
    <glyph glyph-name="E" unicode="E" horiz-adv-x="1177" 
d="M295 143h780v-143h-932v1434h924v-144h-772v-481h735v-143h-735v-523z" />
    <glyph glyph-name="F" unicode="F" horiz-adv-x="1128" 
d="M1067 1290h-772v-475h735v-143h-735v-672h-152v1434h924v-144z" />
    <glyph glyph-name="G" unicode="G" horiz-adv-x="1525" 
d="M1382 762v-762h-143v287q-145 -297 -512 -297q-187 0 -330 93t-219 257.5t-76 376.5q0 211 81.5 376.5t231 258t343.5 92.5q252 0 409 -133t185 -359l-156 -28q-17 178 -132 277t-306 99q-220 0 -358 -157.5t-138 -423.5q0 -260 135 -423t351 -163q214 0 341 120.5
t148 364.5l-535 3v143z" />
    <glyph glyph-name="H" unicode="H" horiz-adv-x="1411" 
d="M1116 1434h152v-1434h-152v666h-821v-666h-152v1434h152v-625h821v625z" />
    <glyph glyph-name="I" unicode="I" horiz-adv-x="438" 
d="M143 0v1434h152v-1434h-152z" />
    <glyph glyph-name="J" unicode="J" horiz-adv-x="1128" 
d="M834 1434h151v-988q0 -99 -25.5 -180t-77 -143.5t-138 -97.5t-201.5 -35q-232 0 -351.5 129.5t-119.5 372.5h151q0 -169 79.5 -264t240.5 -95q146 0 219.5 90t73.5 248z" />
    <glyph glyph-name="K" unicode="K" horiz-adv-x="1284" 
d="M1051 0l-539 725l-217 -209v-516h-152v1434h152v-732l739 732h207l-614 -596l616 -838h-192z" />
    <glyph glyph-name="L" unicode="L" horiz-adv-x="1112" 
d="M295 143h766v-143h-918v1434h152v-1291z" />
    <glyph glyph-name="M" unicode="M" horiz-adv-x="1622" 
d="M1278 1434h201v-1434h-152v655q0 401 12 574q-38 -162 -79 -268l-361 -961h-176l-361 961q-41 106 -79 268q12 -172 12 -574v-655h-152v1434h201l371 -994q69 -178 96 -274q24 90 96 274z" />
    <glyph glyph-name="N" unicode="N" horiz-adv-x="1433" 
d="M1139 1434h151v-1434h-182l-725 1059q-45 67 -96 162q8 -139 8 -291v-930h-152v1434h179l729 -1076q49 -72 96 -174q-8 226 -8 322v928z" />
    <glyph glyph-name="O" unicode="O" horiz-adv-x="1513" 
d="M758 -10q-306 0 -481 193.5t-175 533.5t175 533.5t481 193.5q305 0 479 -193.5t174 -533.5t-174 -533.5t-479 -193.5zM758 133q230 0 361.5 156t131.5 426q0 274 -131.5 429.5t-361.5 155.5q-231 0 -363.5 -156t-132.5 -429q0 -270 133 -426t363 -156z" />
    <glyph glyph-name="P" unicode="P" horiz-adv-x="1257" 
d="M754 1434q188 0 308 -120t120 -308q0 -191 -120.5 -313t-307.5 -122l-459 -2v-569h-152v1434h611zM729 715q138 0 215.5 80t77.5 211q0 127 -77.5 205.5t-215.5 78.5h-434v-575h434z" />
    <glyph glyph-name="Q" unicode="Q" horiz-adv-x="1513" 
d="M1067 55q100 -29 145 -113t45 -245v-70h-151v115q0 130 -80 189t-238 59h-30q-306 0 -481 193.5t-175 533.5t175 533.5t481 193.5q305 0 479 -193.5t174 -533.5q0 -240 -89.5 -411t-254.5 -251zM262 715q0 -270 133 -426t363 -156t361.5 156t131.5 426
q0 274 -131.5 429.5t-361.5 155.5q-231 0 -363.5 -156t-132.5 -429z" />
    <glyph glyph-name="R" unicode="R" horiz-adv-x="1368" 
d="M1192 401q1 -16 5 -70.5t5.5 -78t6 -70t8.5 -73t10.5 -57.5t13.5 -52h-166q-8 23 -14 59.5t-10 85.5t-6.5 87t-6 96t-4.5 80q-17 249 -272 249h-467v-657h-152v1434h670q202 0 305 -98t103 -273q0 -282 -256 -336q110 -22 162.5 -96.5t64.5 -229.5zM788 1290h-493v-489
h473q293 0 293 262q0 118 -69 172.5t-204 54.5z" />
    <glyph glyph-name="S" unicode="S" horiz-adv-x="1245" 
d="M606 809q208 -50 321.5 -109.5t158 -135.5t44.5 -193q0 -178 -136.5 -279.5t-372.5 -101.5q-234 0 -380 121t-163 333l158 27q11 -152 118.5 -245t278.5 -93q156 0 247 63t91 171q0 113 -73.5 165.5t-291.5 104.5q-195 47 -300.5 103t-146 128.5t-40.5 186.5
q0 180 130 284.5t359 104.5t365.5 -125t138.5 -332l-158 -24q-9 161 -100 249t-256 88q-149 0 -234 -62.5t-85 -166.5t67.5 -160t259.5 -102z" />
    <glyph glyph-name="T" unicode="T" horiz-adv-x="1216" 
d="M1176 1434v-144h-490v-1290h-151v1290h-494v144h1135z" />
    <glyph glyph-name="U" unicode="U" horiz-adv-x="1323" 
d="M1038 1434h152v-963q0 -224 -141.5 -352.5t-389.5 -128.5q-246 0 -386 128.5t-140 352.5v963h152v-942q-2 -168 97.5 -263.5t276.5 -95.5t278 96t101 263v942z" />
    <glyph glyph-name="V" unicode="V" horiz-adv-x="1341" 
d="M1137 1434h163l-548 -1434h-164l-547 1434h166l377 -998q51 -141 88 -266q43 145 90 270z" />
    <glyph glyph-name="W" unicode="W" horiz-adv-x="1861" 
d="M1657 1434h164l-383 -1434h-174l-283 1071q-29 110 -49 213q-29 -132 -51 -213l-283 -1071h-174l-383 1434h164l250 -973q40 -150 57 -268q21 126 59 268l252 973h215l252 -973q41 -152 60 -268q17 118 57 268z" />
    <glyph glyph-name="X" unicode="X" horiz-adv-x="1333" 
d="M1292 0h-194l-430 621l-432 -621h-195l524 737l-483 697h194l392 -580l389 580h194l-483 -697z" />
    <glyph glyph-name="Y" unicode="Y" horiz-adv-x="1316" 
d="M1102 1434h174l-541 -832v-602h-151v602l-543 832h180l441 -678z" />
    <glyph glyph-name="Z" unicode="Z" horiz-adv-x="1204" 
d="M485 143h596v-143h-995v135l655 975q95 136 136 186q-117 -6 -224 -6h-520v144h934v-121l-664 -987q-22 -28 -68.5 -92t-72.5 -97q117 6 223 6z" />
    <glyph glyph-name="bracketleft" unicode="[" horiz-adv-x="591" 
d="M287 -229q-67 0 -105.5 35t-38.5 104v1466q0 69 38.5 104.5t105.5 35.5h162v-144h-154v-1458h154v-143h-162z" />
    <glyph glyph-name="backslash" unicode="\" horiz-adv-x="940" 
d="M940 -184h-152l-751 1659h151z" />
    <glyph glyph-name="bracketright" unicode="]" horiz-adv-x="591" 
d="M307 1516q67 0 105.5 -35.5t38.5 -104.5v-1466q0 -69 -38.5 -104t-105.5 -35h-162v143h154v1458h-154v144h162z" />
    <glyph glyph-name="asciicircum" unicode="^" horiz-adv-x="1298" 
d="M1155 700h-162l-344 598l-344 -598h-162l428 734h156z" />
    <glyph glyph-name="underscore" unicode="_" horiz-adv-x="1220" 
d="M143 -244v142h934v-142h-934z" />
    <glyph glyph-name="grave" unicode="`" horiz-adv-x="569" 
d="M473 1288h-131l-246 258h187z" />
    <glyph glyph-name="a" unicode="a" horiz-adv-x="1085" 
d="M551 1071q196 0 298.5 -98.5t102.5 -288.5v-684h-145v219q-58 -104 -162.5 -166.5t-214.5 -62.5q-156 0 -247 72t-91 210q0 267 377 334l338 62v18q0 126 -66 191t-194 65q-132 0 -207.5 -71.5t-75.5 -196.5l-145 20q0 175 115 276t317 101zM453 119q81 0 161 31.5
t136.5 95t56.5 143.5v156l-295 -51q-146 -26 -206 -75.5t-60 -135.5q0 -81 54.5 -122.5t152.5 -41.5z" />
    <glyph glyph-name="b" unicode="b" horiz-adv-x="1234" 
d="M662 1081q207 0 339 -146.5t132 -397.5q0 -253 -132 -400t-339 -147q-279 0 -373 209v-199h-146v1475h146v-603q94 209 373 209zM643 119q152 0 245 115t93 301q0 189 -93 303t-245 114q-160 0 -259 -114.5t-99 -302.5q0 -186 99 -301t259 -115z" />
    <glyph glyph-name="c" unicode="c" horiz-adv-x="1097" 
d="M586 119q122 1 194.5 68.5t91.5 185.5l146 -21q-27 -166 -137.5 -263.5t-294.5 -98.5q-227 -1 -355.5 142t-128.5 398q0 254 128.5 398t355.5 143q186 -1 295.5 -110.5t136.5 -309.5l-146 -20q-25 151 -91.5 230.5t-194.5 80.5q-160 -2 -246.5 -106.5t-85.5 -300.5
q1 -201 88.5 -308.5t243.5 -107.5z" />
    <glyph glyph-name="d" unicode="d" horiz-adv-x="1234" 
d="M946 1475h146v-1475h-146v199q-94 -209 -373 -209q-207 0 -339 147t-132 400q0 251 132 397.5t339 146.5q279 0 373 -209v603zM592 119q160 0 259 115t99 301q0 188 -99 302.5t-259 114.5q-152 0 -245 -114t-93 -303q0 -186 93 -301t245 -115z" />
    <glyph glyph-name="e" unicode="e" horiz-adv-x="1140" 
d="M1038 598v-98h-786q9 -175 98 -278.5t240 -102.5q131 1 202.5 61t90.5 176l145 -20q-27 -163 -139 -254t-299 -92q-227 -2 -357.5 140t-130.5 400q0 157 54.5 278t166.5 192t267 71q210 0 329 -128.5t119 -344.5zM590 942q-141 2 -228.5 -76t-107.5 -237h641
q-6 158 -86.5 234.5t-218.5 78.5z" />
    <glyph glyph-name="f" unicode="f" horiz-adv-x="702" 
d="M506 1335q-72 0 -98.5 -41t-26.5 -127v-123h264v-129h-264v-915h-145v915h-175v129h175v166q0 263 270 263q81 0 139 -25v-139q-53 26 -139 26z" />
    <glyph glyph-name="g" unicode="g" horiz-adv-x="1175" 
d="M887 1044h145l-4 -978q0 -224 -111.5 -350.5t-341.5 -125.5q-188 1 -299.5 86.5t-144.5 237.5l145 23q50 -215 299 -218q88 -1 149 22t94 69t48 102t17 133v152q-108 -183 -330 -183q-200 0 -325.5 142t-125.5 387q0 241 121.5 389.5t329.5 148.5q109 0 195 -48.5
t139 -143.5v155zM571 143q142 0 230 102.5t88 297.5q0 193 -86 302t-232 107q-150 0 -234.5 -109t-84.5 -300q0 -176 88 -288t231 -112z" />
    <glyph glyph-name="h" unicode="h" 
d="M635 1071q186 0 284.5 -100.5t98.5 -286.5v-684h-146v666q0 149 -66 212.5t-200 63.5q-138 0 -227.5 -96.5t-89.5 -249.5v-596h-146v1454h146v-580q103 197 346 197z" />
    <glyph glyph-name="i" unicode="i" horiz-adv-x="464" 
d="M139 1247v187h187v-187h-187zM160 0v1044h145v-1044h-145z" />
    <glyph glyph-name="j" unicode="j" horiz-adv-x="473" 
d="M147 1434h187v-187h-187v187zM168 -86v1130h145v-1173q0 -118 -63.5 -179t-186.5 -61q-60 0 -118 25v139q53 -26 118 -26q55 0 80 33.5t25 111.5z" />
    <glyph glyph-name="k" unicode="k" horiz-adv-x="1021" 
d="M819 0l-352 547l-178 -172v-375h-146v1454h146v-903l487 493h209l-410 -393l431 -651h-187z" />
    <glyph glyph-name="l" unicode="l" horiz-adv-x="432" 
d="M143 0v1454h146v-1454h-146z" />
    <glyph glyph-name="m" unicode="m" horiz-adv-x="1695" 
d="M1223 1071q165 0 252.5 -100t87.5 -287v-684h-146v666q0 153 -57 214.5t-160 61.5q-49 0 -96 -17.5t-87.5 -53t-65.5 -96t-25 -138.5v-637h-146v666q0 152 -60.5 214t-164.5 62q-49 0 -94.5 -17.5t-85 -53t-63 -96t-23.5 -138.5v-637h-146v1044h146v-159q92 186 297 186
q125 0 206.5 -59t112.5 -170q91 229 318 229z" />
    <glyph glyph-name="n" unicode="n" 
d="M635 1071q186 0 284.5 -100.5t98.5 -286.5v-684h-146v666q0 149 -65 212.5t-199 63.5q-138 0 -228.5 -97t-90.5 -249v-596h-146v1044h146v-198q88 225 346 225z" />
    <glyph glyph-name="o" unicode="o" horiz-adv-x="1200" 
d="M600 -10q-228 2 -363 143.5t-135 394.5q0 162 57.5 283.5t170.5 190t270 69.5q228 -2 363 -144.5t135 -398.5q0 -245 -131 -391t-367 -147zM600 119q159 2 253.5 109.5t94.5 299.5q0 191 -91.5 303t-256.5 111q-159 -2 -253 -111t-93 -303q2 -189 93 -299.5t253 -109.5z
" />
    <glyph glyph-name="p" unicode="p" horiz-adv-x="1234" 
d="M662 1081q207 0 339 -146.5t132 -397.5q0 -253 -132 -400t-339 -147q-279 0 -373 209v-611h-146v1456h146v-172q94 209 373 209zM643 119q152 0 245 115t93 301q0 189 -93 303t-245 114q-160 0 -259 -114.5t-99 -302.5q0 -186 99 -301t259 -115z" />
    <glyph glyph-name="q" unicode="q" horiz-adv-x="1234" 
d="M946 1044h146v-1456h-146v611q-94 -209 -373 -209q-207 0 -339 147t-132 400q0 251 132 397.5t339 146.5q279 0 373 -209v172zM592 119q160 0 259 115t99 301q0 188 -99 302.5t-259 114.5q-152 0 -245 -114t-93 -303q0 -186 93 -301t245 -115z" />
    <glyph glyph-name="r" unicode="r" horiz-adv-x="788" 
d="M643 1069q19 0 59 -4v-147q-29 4 -61 4q-176 0 -264 -97t-90 -272v-553l-144 -2v1044l144 2v-225q49 123 140 186.5t216 63.5z" />
    <glyph glyph-name="s" unicode="s" horiz-adv-x="1007" 
d="M518 608q82 -22 138 -41t102 -41.5t73 -44.5t45.5 -52t25.5 -64t7 -80q0 -141 -102.5 -218t-282.5 -77q-94 0 -172.5 21t-139.5 63t-96 111t-38 159l158 21q14 -250 296 -250q226 0 226 153q0 76 -58.5 116.5t-222.5 80.5q-103 25 -165.5 49t-108.5 60.5t-64 86.5
t-18 125q0 123 102 204t279 81q175 0 282 -92.5t113 -280.5l-149 -20q-7 145 -68 207.5t-188 62.5q-107 -3 -166.5 -46t-59.5 -120q0 -66 50.5 -99.5t201.5 -74.5z" />
    <glyph glyph-name="t" unicode="t" horiz-adv-x="788" 
d="M506 125q89 0 180 47v-139q-100 -45 -180 -45q-143 0 -206.5 65.5t-63.5 196.5v665h-175v129h175v281h145v-281h289v-129h-289v-622q0 -86 26.5 -127t98.5 -41z" />
    <glyph glyph-name="u" unicode="u" 
d="M862 1044h146v-1044h-146v215q-88 -225 -346 -225q-186 0 -284.5 100.5t-98.5 286.5v667h146v-649q0 -148 71 -212t207 -64t220.5 96t84.5 250v579z" />
    <glyph glyph-name="v" unicode="v" horiz-adv-x="1005" 
d="M819 1044h156l-400 -1044h-145l-399 1044h155l252 -679q43 -108 66 -189q22 79 67 199z" />
    <glyph glyph-name="w" unicode="w" horiz-adv-x="1540" 
d="M1360 1044h149l-313 -1044h-149l-277 864l-276 -864h-150l-313 1044h155l176 -626q17 -63 54 -223l272 849h164l272 -849q34 147 54 221z" />
    <glyph glyph-name="x" unicode="x" horiz-adv-x="1030" 
d="M989 0h-172l-301 428l-303 -428h-172l387 537l-367 507h172l283 -397l281 397h172l-365 -507z" />
    <glyph glyph-name="y" unicode="y" horiz-adv-x="1005" 
d="M819 1044h156l-400 -1044l-47 -129q-37 -92 -73 -141t-91.5 -74t-142.5 -25q-103 0 -178 52v139q90 -53 180 -53q74 0 109 31t67 114l31 80l-399 1050h155l252 -679q43 -108 66 -189q22 79 67 199z" />
    <glyph glyph-name="z" unicode="z" horiz-adv-x="964" 
d="M397 133h484v-133h-799v125l518 670q56 74 102 120q-70 -4 -104 -4h-496v133h766v-124l-479 -619q-85 -111 -141 -174q77 6 149 6z" />
    <glyph glyph-name="braceleft" unicode="{" horiz-adv-x="737" 
d="M440 813q0 -74 -21 -111t-87 -59q69 -23 88.5 -54t19.5 -116v-559h154v-143h-162q-67 0 -105 35t-38 104v661h-146v144h146v661q0 69 38.5 104.5t104.5 35.5h162v-144h-154v-559z" />
    <glyph glyph-name="bar" unicode="|" horiz-adv-x="393" 
d="M139 -184v1618h115v-1618h-115z" />
    <glyph glyph-name="braceright" unicode="}" horiz-adv-x="737" 
d="M449 715h145v-144h-145v-661q0 -69 -38.5 -104t-105.5 -35h-162v143h154v559q0 85 20 116t89 54q-66 22 -87.5 59.5t-21.5 110.5v559h-154v144h162q67 0 105.5 -35.5t38.5 -104.5v-661z" />
    <glyph glyph-name="asciitilde" unicode="~" horiz-adv-x="1320" 
d="M879 362q-59 0 -110 19.5t-87.5 48t-72 56.5t-78.5 47.5t-91 19.5q-67 0 -109 -47t-42 -125h-146q0 129 80.5 210t216.5 81q64 0 118 -19.5t92 -48t72.5 -56.5t76.5 -47.5t88 -19.5q64 0 104.5 47t40.5 125h146q0 -129 -81 -210t-218 -81z" />
    <glyph glyph-name="exclamdown" unicode="&#xa1;" horiz-adv-x="450" 
d="M143 879v165h164v-165h-164zM150 -369v1043h151v-1043h-151z" />
    <glyph glyph-name="cent" unicode="&#xa2;" horiz-adv-x="1089" 
d="M662 129q87 21 139 84.5t67 159.5l146 -21q-24 -146 -113.5 -240.5t-238.5 -115.5v-180h-152v178q-195 22 -303.5 162.5t-108.5 373.5t108.5 374t303.5 163v197h152v-199q150 -23 239 -130t113 -284l-146 -20q-21 127 -69.5 202t-136.5 99v-803zM250 535
q1 -177 68.5 -282t191.5 -128v811q-126 -24 -193.5 -126t-66.5 -275z" />
    <glyph glyph-name="sterling" unicode="&#xa3;" horiz-adv-x="1085" 
d="M354 143h695v-143h-951v143h54q157 3 196 496h-250v143h258q6 85 6 164q4 233 121 360.5t322 127.5h196v-144h-196q-133 0 -210 -89t-81 -253l-6 -166h450v-143h-458q-39 -455 -146 -496z" />
    <glyph glyph-name="currency" unicode="&#xa4;" horiz-adv-x="1392" 
d="M1223 696q0 -181 -103 -315l137 -137l-108 -109l-137 137q-137 -100 -316 -100q-178 0 -315 100l-137 -137l-109 109l135 135q-100 140 -100 317q0 178 100 318l-135 135l109 108l137 -137q138 101 315 101q178 0 316 -101l139 140l109 -109l-140 -139q103 -134 103 -316
zM317 696q0 -173 104.5 -279t274.5 -106t274.5 106t104.5 279t-104.5 279t-274.5 106t-274.5 -106t-104.5 -279z" />
    <glyph glyph-name="yen" unicode="&#xa5;" horiz-adv-x="1316" 
d="M1276 1434l-451 -695h318v-143h-408v-174h408v-143h-408v-279h-151v279h-410v143h410v174h-410v143h320l-453 695h176l442 -678l443 678h174z" />
    <glyph glyph-name="brokenbar" unicode="&#xa6;" horiz-adv-x="393" 
d="M139 768v666h115v-666h-115zM139 -184v665h115v-665h-115z" />
    <glyph glyph-name="section" unicode="&#xa7;" horiz-adv-x="1110" 
d="M782 369q108 -45 148.5 -101.5t40.5 -156.5q0 -141 -102.5 -218t-282.5 -77q-195 0 -318 89t-129 265l158 20q14 -249 297 -249q225 0 225 153q0 76 -58 116.5t-222 80.5q-198 48 -277.5 122t-79.5 220q0 83 45 145t131 94q-93 46 -134.5 114.5t-41.5 176.5
q0 124 96 202.5t273 78.5t289 -91t118 -278l-149 -20q-7 144 -68.5 205t-189.5 61q-107 -3 -165 -44t-58 -118q0 -71 55.5 -119t196.5 -86q82 -22 138 -41t102 -41.5t73 -44.5t45.5 -52t25.5 -64t7 -80q0 -95 -49 -162t-140 -100zM328 629q0 -69 54.5 -112.5t197.5 -82.5
q2 -1 7 -2t7 -2q111 0 168 52t57 132q0 76 -58 116.5t-220 80.5q-100 -6 -156.5 -55.5t-56.5 -126.5z" />
    <glyph glyph-name="dieresis" unicode="&#xa8;" horiz-adv-x="643" 
d="M96 1292v166h164v-166h-164zM383 1292v166h164v-166h-164z" />
    <glyph glyph-name="copyright" unicode="&#xa9;" horiz-adv-x="1832" 
d="M918 1444q232 0 417 -98.5t290.5 -280t105.5 -414.5q0 -231 -105.5 -410.5t-290.5 -276.5t-417 -97q-233 0 -418.5 97t-291.5 276.5t-106 410.5q0 233 106 414.5t291.5 280t418.5 98.5zM918 0q190 0 342 80.5t239.5 229.5t87.5 341q0 194 -87.5 345t-239.5 233t-342 82
t-343 -82t-241 -233t-88 -345q0 -192 88 -341t240.5 -229.5t343.5 -80.5zM924 965q-111 2 -179.5 -74.5t-68.5 -214.5q0 -143 68 -221t180 -76q87 -2 147 47t70 139l133 -16q-18 -139 -114 -218t-236 -77q-169 -3 -279 109.5t-110 308.5q0 197 110.5 309t278.5 109
q143 2 237.5 -87t112.5 -251l-133 -19q-15 120 -71 177t-146 55z" />
    <glyph glyph-name="ordfeminine" unicode="&#xaa;" horiz-adv-x="872" 
d="M455 1444q147 0 226 -74.5t79 -214.5v-543h-115v152q-49 -74 -126 -117t-154 -43q-115 0 -183.5 61t-68.5 166q0 103 77 174t205 93l250 47v10q0 186 -192 186q-99 0 -155 -50.5t-56 -143.5l-111 14q0 132 86.5 207.5t237.5 75.5zM381 707q97 0 180.5 63.5t83.5 163.5
v110l-219 -38q-193 -32 -193 -166q0 -62 38.5 -97.5t109.5 -35.5z" />
    <glyph glyph-name="guillemotleft" unicode="&#xab;" horiz-adv-x="1073" 
d="M569 911l-266 -389l266 -389h-159l-267 389l267 389h159zM930 911l-266 -389l266 -389h-160l-266 389l266 389h160z" />
    <glyph glyph-name="logicalnot" unicode="&#xac;" horiz-adv-x="1265" 
d="M143 772l979 -2v-590h-145v463h-834v129z" />
    <glyph glyph-name="registered" unicode="&#xae;" horiz-adv-x="1832" 
d="M918 1444q232 0 417 -98.5t290.5 -280t105.5 -414.5q0 -231 -105.5 -410.5t-290.5 -276.5t-417 -97q-233 0 -418.5 97t-291.5 276.5t-106 410.5q0 233 106 414.5t291.5 280t418.5 98.5zM918 0q190 0 342 80.5t239.5 229.5t87.5 341q0 194 -87.5 345t-239.5 233t-342 82
t-343 -82t-241 -233t-88 -345q0 -192 88 -341t240.5 -229.5t343.5 -80.5zM1102 666q60 -12 89.5 -50.5t39.5 -119.5q26 -191 45 -217h-133q-6 15 -13 48t-11.5 61.5t-9.5 62.5t-5 36q-10 67 -45 97t-103 30h-213v-335h-125v772h392q122 0 187 -51t65 -150q0 -162 -160 -184z
M971 936h-228v-211h218q38 0 66 4t54 16t40 36t14 61q0 31 -11.5 50.5t-36 28.5t-50 12t-66.5 3z" />
    <glyph glyph-name="macron" unicode="&#xaf;" horiz-adv-x="647" 
d="M96 1292v144h455v-144h-455z" />
    <glyph glyph-name="degree" unicode="&#xb0;" horiz-adv-x="813" 
d="M408 846q-128 0 -217 89t-89 216q0 125 89 209t217 84q127 0 215 -84t88 -209q0 -127 -88.5 -216t-214.5 -89zM408 969q75 0 127.5 53t52.5 129q0 74 -52 122t-128 48q-78 0 -130.5 -48t-52.5 -122q0 -76 53 -129t130 -53z" />
    <glyph glyph-name="plusminus" unicode="&#xb1;" horiz-adv-x="1210" 
d="M532 328v315h-389v129h389v272h146v-274h389v-127h-389v-315h-146zM143 0v129h924v-129h-924z" />
    <glyph glyph-name="uni00B2" unicode="&#xb2;" horiz-adv-x="839" 
d="M324 729h413v-123h-594v123q184 151 295 248q41 36 52 45.5t36.5 34t31 34.5t16 30t12.5 37.5t2 41.5q0 121 -131 121q-69 0 -108.5 -41t-45.5 -119l-131 15q9 123 82.5 195.5t194.5 72.5q127 0 198.5 -67.5t71.5 -172.5q0 -29 -5.5 -56t-11.5 -47t-24.5 -45.5t-28.5 -39
t-40.5 -42t-43.5 -40t-55.5 -47t-58.5 -49.5q-64 -57 -127 -109z" />
    <glyph glyph-name="uni00B3" unicode="&#xb3;" horiz-adv-x="880" 
d="M737 821q0 -93 -81 -163t-210 -70h-2q-132 0 -213.5 82t-87.5 207l131 16q3 -182 172 -182q158 0 158 123q0 129 -141 129h-80v120h47q84 0 114.5 31t30.5 98q0 109 -120 109q-71 0 -111.5 -38.5t-46.5 -111.5l-129 15q8 111 81 184.5t206 73.5q120 0 185 -61.5
t65 -155.5q0 -148 -142 -195q85 -18 129.5 -75.5t44.5 -135.5z" />
    <glyph glyph-name="acute" unicode="&#xb4;" horiz-adv-x="569" 
d="M96 1288l191 258h186l-246 -258h-131z" />
    <glyph glyph-name="uni00B5" unicode="&#xb5;" horiz-adv-x="1200" 
d="M936 377q0 -158 20.5 -208t100.5 -50v-129q-177 0 -223 123q-75 -123 -281 -123q-115 0 -176.5 35t-87.5 108v-545h-146v1456h146v-673q0 -138 66 -194t198 -58q132 2 198 58t66 194v673h121z" />
    <glyph glyph-name="paragraph" unicode="&#xb6;" horiz-adv-x="1220" 
d="M1221 1436v-144h-205v-1476h-152v1476h-131v-1476h-151v753l-82 2q-197 0 -323 122.5t-126 312.5q0 188 126.5 309t322.5 121h721z" />
    <glyph glyph-name="periodcentered" unicode="&#xb7;" horiz-adv-x="450" 
d="M143 440v166h164v-166h-164z" />
    <glyph glyph-name="cedilla" unicode="&#xb8;" horiz-adv-x="593" 
d="M498 -256q1 -87 -54.5 -130.5t-154.5 -43.5q-123 0 -193 57l56 86q65 -45 137 -45q49 0 74.5 22t23.5 60q-1 39 -38.5 60.5t-98.5 21.5q-11 0 -35 -4l-25 72l95 147h90l-90 -137q103 -3 157 -47t56 -119z" />
    <glyph glyph-name="uni00B9" unicode="&#xb9;" horiz-adv-x="634" 
d="M317 606v631l-229 -2v115h229v84h119v-828h-119z" />
    <glyph glyph-name="ordmasculine" unicode="&#xba;" horiz-adv-x="970" 
d="M485 590q-170 0 -271 121t-101 305q0 195 100 311t272 117q172 -1 272.5 -117.5t100.5 -310.5q0 -184 -101.5 -305t-271.5 -121zM485 692q120 1 187 88.5t67 235.5q0 145 -67.5 235.5t-186.5 89.5q-119 1 -186.5 -89.5t-67.5 -235.5q0 -148 67 -235.5t187 -88.5z" />
    <glyph glyph-name="guillemotright" unicode="&#xbb;" horiz-adv-x="1073" 
d="M303 911l266 -389l-266 -389h-160l267 389l-267 389h160zM664 911l266 -389l-266 -389h-160l266 389l-266 389h160z" />
    <glyph glyph-name="onequarter" unicode="&#xbc;" horiz-adv-x="1613" 
d="M317 606v631l-229 -2v115h229v84h119v-828h-119zM1229 1434h145l-1044 -1446h-146zM1475 297v-111h-119v-186h-119v186h-436v111l407 547h148v-547h119zM930 297h307v412z" />
    <glyph glyph-name="onehalf" unicode="&#xbd;" horiz-adv-x="1687" 
d="M317 606v631l-229 -2v115h229v84h119v-828h-119zM1229 1434h145l-1044 -1446h-146zM1135 123h413v-123h-594v123q184 151 295 248q63 55 91.5 86t43.5 66t15 83q0 121 -131 121q-69 0 -108.5 -41t-45.5 -119l-131 15q9 123 82.5 195.5t194.5 72.5q127 0 198.5 -67.5
t71.5 -172.5q0 -37 -6 -68.5t-25 -64.5t-32.5 -53.5t-52 -57.5t-57.5 -54t-74 -63l-21 -18q-52 -47 -127 -108z" />
    <glyph glyph-name="threequarters" unicode="&#xbe;" horiz-adv-x="1804" 
d="M444 588q-132 0 -213.5 82t-87.5 207l131 16q3 -182 172 -182q158 0 158 123q0 129 -141 129h-80v120h47q84 0 114.5 31t30.5 98q0 109 -120 109q-71 0 -111.5 -38.5t-46.5 -111.5l-129 15q8 111 81 184.5t206 73.5q120 0 185 -61.5t65 -155.5q0 -148 -142 -195
q85 -18 129.5 -75.5t44.5 -135.5q0 -93 -81 -163t-210 -70h-2zM1419 1434h146l-1045 -1446h-145zM1665 297v-111h-119v-186h-119v186h-436v111l408 547h147v-547h119zM1120 297h307v412z" />
    <glyph glyph-name="questiondown" unicode="&#xbf;" horiz-adv-x="1163" 
d="M688 1044v-165h-164v165h164zM1014 150q29 -221 -96 -370t-340 -149q-108 0 -192.5 34.5t-136.5 94t-79 135.5t-27 164q0 161 102.5 278t284.5 146v191h152v-305q-88 6 -156 -10.5t-109.5 -46.5t-67.5 -73.5t-36 -87t-10 -92.5q0 -116 72.5 -200t199.5 -84
q148 0 232.5 114.5t48.5 284.5z" />
    <glyph glyph-name="Agrave" unicode="&#xc0;" horiz-adv-x="1439" 
d="M791 1556h-132l-245 259h186zM1257 0l-176 416h-725l-174 -416h-162l611 1434h172l616 -1434h-162zM418 559h602l-168 397q-33 84 -135 324q-117 -282 -135 -330z" />
    <glyph glyph-name="Aacute" unicode="&#xc1;" horiz-adv-x="1439" 
d="M1016 1815l-246 -259h-131l190 259h187zM1257 0l-176 416h-725l-174 -416h-162l611 1434h172l616 -1434h-162zM418 559h602l-168 397q-33 84 -135 324q-117 -282 -135 -330z" />
    <glyph glyph-name="Acircumflex" unicode="&#xc2;" horiz-adv-x="1439" 
d="M715 1722l-146 -166h-166l232 259h160l231 -259h-166zM1257 0l-176 416h-725l-174 -416h-162l611 1434h172l616 -1434h-162zM418 559h602l-168 397q-33 84 -135 324q-117 -282 -135 -330z" />
    <glyph glyph-name="Atilde" unicode="&#xc3;" horiz-adv-x="1439" 
d="M621 1657q-29 0 -50.5 -24.5t-21.5 -61.5h-92q0 95 42.5 148t121.5 53q34 0 64 -15t47 -33.5t38.5 -33.5t42.5 -15q26 0 46 24.5t20 61.5h92q0 -95 -42.5 -147.5t-121.5 -52.5q-32 0 -59.5 15t-44 33t-38.5 33t-44 15zM1257 0l-176 416h-725l-174 -416h-162l611 1434h172
l616 -1434h-162zM418 559h602l-168 397q-33 84 -135 324q-117 -282 -135 -330z" />
    <glyph glyph-name="Adieresis" unicode="&#xc4;" horiz-adv-x="1439" 
d="M653 1726v-165h-164v165h164zM940 1726v-165h-164v165h164zM1257 0l-176 416h-725l-174 -416h-162l611 1434h172l616 -1434h-162zM418 559h602l-168 397q-33 84 -135 324q-117 -282 -135 -330z" />
    <glyph glyph-name="Aring" unicode="&#xc5;" horiz-adv-x="1439" 
d="M715 1534q-75 0 -127.5 52.5t-52.5 127.5q0 74 52.5 126t127.5 52q73 0 125.5 -52t52.5 -126q0 -75 -52 -127.5t-126 -52.5zM715 1798q-35 0 -60.5 -25t-25.5 -59q0 -35 25.5 -60.5t60.5 -25.5q34 0 59 25.5t25 60.5q0 34 -25 59t-59 25zM1257 0l-176 416h-725l-174 -416
h-162l611 1434h172l616 -1434h-162zM418 559h602l-168 397q-33 84 -135 324q-117 -282 -135 -330z" />
    <glyph glyph-name="AE" unicode="&#xc6;" horiz-adv-x="2025" 
d="M1143 143h780v-143h-932v455h-581l-242 -455h-168l774 1434h1141v-144h-772v-481h735v-143h-735v-523zM487 598h504v692h-135z" />
    <glyph glyph-name="Ccedilla" unicode="&#xc7;" horiz-adv-x="1417" 
d="M1315 481q-28 -223 -175.5 -355t-385.5 -136l-66 -101q104 -3 157.5 -46.5t55.5 -118.5q1 -87 -55 -131t-154 -44q-121 0 -192 58l55 86q65 -45 137 -45q49 0 75 22.5t24 59.5q-1 39 -39 60.5t-99 21.5q-5 0 -35 -5l-24 72l74 115q-262 25 -414 220t-152 503
q0 161 47 297t131 230.5t204 147t261 52.5q236 0 383 -133t175 -359l-156 -28q-17 178 -126 277t-284 99q-214 0 -344.5 -160t-130.5 -421q0 -264 130.5 -425t344.5 -161q184 0 294.5 99t127.5 278z" />
    <glyph glyph-name="Egrave" unicode="&#xc8;" horiz-adv-x="1177" 
d="M711 1556h-131l-246 259h186zM295 143h780v-143h-932v1434h924v-144h-772v-481h735v-143h-735v-523z" />
    <glyph glyph-name="Eacute" unicode="&#xc9;" horiz-adv-x="1177" 
d="M936 1815l-246 -259h-131l191 259h186zM295 143h780v-143h-932v1434h924v-144h-772v-481h735v-143h-735v-523z" />
    <glyph glyph-name="Ecircumflex" unicode="&#xca;" horiz-adv-x="1177" 
d="M635 1722l-146 -166h-165l231 259h160l231 -259h-166zM295 143h780v-143h-932v1434h924v-144h-772v-481h735v-143h-735v-523z" />
    <glyph glyph-name="Edieresis" unicode="&#xcb;" horiz-adv-x="1177" 
d="M573 1726v-165h-163v165h163zM860 1726v-165h-164v165h164zM295 143h780v-143h-932v1434h924v-144h-772v-481h735v-143h-735v-523z" />
    <glyph glyph-name="Igrave" unicode="&#xcc;" horiz-adv-x="438" 
d="M295 1556h-131l-246 259h186zM143 0v1434h152v-1434h-152z" />
    <glyph glyph-name="Iacute" unicode="&#xcd;" horiz-adv-x="438" 
d="M143 1556l191 259h186l-246 -259h-131zM143 0v1434h152v-1434h-152z" />
    <glyph glyph-name="Icircumflex" unicode="&#xce;" horiz-adv-x="438" 
d="M299 1815l231 -259h-165l-146 166l-145 -166h-166l231 259h160zM143 0v1434h152v-1434h-152z" />
    <glyph glyph-name="Idieresis" unicode="&#xcf;" horiz-adv-x="438" 
d="M-6 1561v165h164v-165h-164zM281 1561v165h163v-165h-163zM143 0v1434h152v-1434h-152z" />
    <glyph glyph-name="Eth" unicode="&#xd0;" horiz-adv-x="1480" 
d="M709 1434q194 0 346.5 -91t237.5 -254.5t85 -371.5t-85 -371.5t-237.5 -254.5t-346.5 -91h-488v676h-149v143h149v615h488zM698 143q229 2 375 163t146 413q0 249 -146 408.5t-375 162.5h-325v-471h379v-143h-379v-535z" />
    <glyph glyph-name="Ntilde" unicode="&#xd1;" horiz-adv-x="1433" 
d="M614 1657q-29 0 -50 -24.5t-21 -61.5h-92q0 95 42 148t121 53q34 0 64 -15t47.5 -33.5t39 -33.5t42.5 -15q26 0 45.5 24.5t19.5 61.5h93q0 -95 -42.5 -147.5t-121.5 -52.5q-32 0 -59.5 15t-44.5 33t-39 33t-44 15zM1139 1434h151v-1434h-182l-725 1059q-45 67 -96 162
q8 -139 8 -291v-930h-152v1434h179l729 -1076q49 -72 96 -174q-8 226 -8 322v928z" />
    <glyph glyph-name="Ograve" unicode="&#xd2;" horiz-adv-x="1513" 
d="M834 1556h-132l-245 259h186zM758 -10q-306 0 -481 193.5t-175 533.5t175 533.5t481 193.5q305 0 479 -193.5t174 -533.5t-174 -533.5t-479 -193.5zM758 133q230 0 361.5 156t131.5 426q0 274 -131.5 429.5t-361.5 155.5q-231 0 -363.5 -156t-132.5 -429q0 -270 133 -426
t363 -156z" />
    <glyph glyph-name="Oacute" unicode="&#xd3;" horiz-adv-x="1513" 
d="M682 1556l190 259h187l-246 -259h-131zM758 -10q-306 0 -481 193.5t-175 533.5t175 533.5t481 193.5q305 0 479 -193.5t174 -533.5t-174 -533.5t-479 -193.5zM758 133q230 0 361.5 156t131.5 426q0 274 -131.5 429.5t-361.5 155.5q-231 0 -363.5 -156t-132.5 -429
q0 -270 133 -426t363 -156z" />
    <glyph glyph-name="Ocircumflex" unicode="&#xd4;" horiz-adv-x="1513" 
d="M758 1722l-146 -166h-166l232 259h160l231 -259h-166zM758 1444q305 0 479 -193.5t174 -533.5t-174 -533.5t-479 -193.5q-306 0 -481 193.5t-175 533.5t175 533.5t481 193.5zM758 133q230 0 361.5 156t131.5 426q0 274 -131.5 429.5t-361.5 155.5q-231 0 -363.5 -156
t-132.5 -429q0 -270 133 -426t363 -156z" />
    <glyph glyph-name="Otilde" unicode="&#xd5;" horiz-adv-x="1513" 
d="M850 1561q-32 0 -59.5 15t-44 33t-38.5 33t-44 15q-29 0 -50.5 -24.5t-21.5 -61.5h-92q0 95 42.5 148t121.5 53q34 0 64 -15t47 -33.5t38.5 -33.5t42.5 -15q26 0 46 24.5t20 61.5h92q0 -95 -42.5 -147.5t-121.5 -52.5zM758 -10q-306 0 -481 193.5t-175 533.5t175 533.5
t481 193.5q305 0 479 -193.5t174 -533.5t-174 -533.5t-479 -193.5zM758 133q230 0 361.5 156t131.5 426q0 274 -131.5 429.5t-361.5 155.5q-231 0 -363.5 -156t-132.5 -429q0 -270 133 -426t363 -156z" />
    <glyph glyph-name="Odieresis" unicode="&#xd6;" horiz-adv-x="1513" 
d="M532 1561v165h164v-165h-164zM819 1561v165h164v-165h-164zM758 -10q-306 0 -481 193.5t-175 533.5t175 533.5t481 193.5q305 0 479 -193.5t174 -533.5t-174 -533.5t-479 -193.5zM758 133q230 0 361.5 156t131.5 426q0 274 -131.5 429.5t-361.5 155.5q-231 0 -363.5 -156
t-132.5 -429q0 -270 133 -426t363 -156z" />
    <glyph glyph-name="multiply" unicode="&#xd7;" horiz-adv-x="1122" 
d="M979 846l-324 -322l324 -325l-94 -95l-326 326l-323 -321l-93 92l322 323l-322 322l97 96l321 -324l322 324z" />
    <glyph glyph-name="Oslash" unicode="&#xd8;" horiz-adv-x="1513" 
d="M1411 1442l-160 -209q160 -193 160 -516q0 -340 -174 -533.5t-479 -193.5q-230 0 -383 108l-86 -110h-187l162 211q-162 192 -162 518q0 340 175 533.5t481 193.5q226 0 383 -111l84 109h186zM262 715q0 -234 103 -387l684 884q-120 88 -291 88q-231 0 -363.5 -156
t-132.5 -429zM1251 715q0 241 -100 389l-682 -883q120 -88 289 -88q230 0 361.5 156t131.5 426z" />
    <glyph glyph-name="Ugrave" unicode="&#xd9;" horiz-adv-x="1323" 
d="M737 1556h-131l-246 259h187zM1038 1434h152v-963q0 -224 -141.5 -352.5t-389.5 -128.5q-246 0 -386 128.5t-140 352.5v963h152v-942q-2 -168 97.5 -263.5t276.5 -95.5t278 96t101 263v942z" />
    <glyph glyph-name="Uacute" unicode="&#xda;" horiz-adv-x="1323" 
d="M963 1815l-246 -259h-131l190 259h187zM1038 1434h152v-963q0 -224 -141.5 -352.5t-389.5 -128.5q-246 0 -386 128.5t-140 352.5v963h152v-942q-2 -168 97.5 -263.5t276.5 -95.5t278 96t101 263v942z" />
    <glyph glyph-name="Ucircumflex" unicode="&#xdb;" horiz-adv-x="1323" 
d="M662 1722l-146 -166h-166l232 259h159l232 -259h-166zM1038 1434h152v-963q0 -224 -141.5 -352.5t-389.5 -128.5q-246 0 -386 128.5t-140 352.5v963h152v-942q-2 -168 97.5 -263.5t276.5 -95.5t278 96t101 263v942z" />
    <glyph glyph-name="Udieresis" unicode="&#xdc;" horiz-adv-x="1323" 
d="M600 1726v-165h-164v165h164zM887 1726v-165h-164v165h164zM1038 1434h152v-963q0 -224 -141.5 -352.5t-389.5 -128.5q-246 0 -386 128.5t-140 352.5v963h152v-942q-2 -168 97.5 -263.5t276.5 -95.5t278 96t101 263v942z" />
    <glyph glyph-name="Yacute" unicode="&#xdd;" horiz-adv-x="1316" 
d="M961 1815l-246 -259h-131l190 259h187zM1102 1434h174l-541 -832v-602h-151v602l-543 832h180l441 -678z" />
    <glyph glyph-name="Thorn" unicode="&#xde;" horiz-adv-x="1239" 
d="M754 1149q194 0 311 -119t117 -309q0 -193 -117 -313.5t-311 -120.5l-459 -2v-285h-152v1434h152v-285h459zM729 430q139 0 216 80t77 211q0 128 -77 206.5t-216 78.5h-434v-576h434z" />
    <glyph glyph-name="germandbls" unicode="&#xdf;" horiz-adv-x="1081" 
d="M723 788q132 -37 207.5 -136.5t75.5 -239.5q0 -186 -129.5 -299t-341.5 -113h-140v125h164q137 0 215 83.5t78 223.5q0 128 -88 206.5t-232 78.5h-100v127h66q138 0 210 65t72 176q0 102 -69 161t-179 59q-119 0 -183 -67.5t-64 -182.5v-1055h-152v1038q0 182 108 289
t291 107q185 0 291.5 -96t106.5 -253q0 -109 -54 -185t-153 -112z" />
    <glyph glyph-name="agrave" unicode="&#xe0;" horiz-adv-x="1085" 
d="M627 1204h-131l-246 258h186zM551 1071q196 0 298.5 -98.5t102.5 -288.5v-684h-145v219q-58 -104 -162.5 -166.5t-214.5 -62.5q-156 0 -247 72t-91 210q0 267 377 334l338 62v18q0 126 -66 191t-194 65q-132 0 -207.5 -71.5t-75.5 -196.5l-145 20q0 175 115 276t317 101z
M453 119q81 0 161 31.5t136.5 95t56.5 143.5v156l-295 -51q-146 -26 -206 -75.5t-60 -135.5q0 -81 54.5 -122.5t152.5 -41.5z" />
    <glyph glyph-name="aacute" unicode="&#xe1;" horiz-adv-x="1085" 
d="M852 1462l-246 -258h-131l191 258h186zM551 1071q196 0 298.5 -98.5t102.5 -288.5v-684h-145v219q-58 -104 -162.5 -166.5t-214.5 -62.5q-156 0 -247 72t-91 210q0 267 377 334l338 62v18q0 126 -66 191t-194 65q-132 0 -207.5 -71.5t-75.5 -196.5l-145 20q0 175 115 276
t317 101zM453 119q81 0 161 31.5t136.5 95t56.5 143.5v156l-295 -51q-146 -26 -206 -75.5t-60 -135.5q0 -81 54.5 -122.5t152.5 -41.5z" />
    <glyph glyph-name="acircumflex" unicode="&#xe2;" horiz-adv-x="1085" 
d="M551 1370l-145 -166h-166l231 258h160l231 -258h-166zM551 1071q196 0 298.5 -98.5t102.5 -288.5v-684h-145v219q-58 -104 -162.5 -166.5t-214.5 -62.5q-156 0 -247 72t-91 210q0 267 377 334l338 62v18q0 126 -66 191t-194 65q-132 0 -207.5 -71.5t-75.5 -196.5l-145 20
q0 175 115 276t317 101zM453 119q81 0 161 31.5t136.5 95t56.5 143.5v156l-295 -51q-146 -26 -206 -75.5t-60 -135.5q0 -81 54.5 -122.5t152.5 -41.5z" />
    <glyph glyph-name="atilde" unicode="&#xe3;" horiz-adv-x="1085" 
d="M457 1305q-29 0 -50.5 -24.5t-21.5 -61.5h-92q0 95 42.5 147.5t121.5 52.5q34 0 64 -15t47 -33t38.5 -33t42.5 -15q26 0 46 24.5t20 61.5h92q0 -95 -42.5 -148t-121.5 -53q-32 0 -59.5 15t-44 33.5t-38.5 33.5t-44 15zM551 1071q196 0 298.5 -98.5t102.5 -288.5v-684
h-145v219q-58 -104 -162.5 -166.5t-214.5 -62.5q-156 0 -247 72t-91 210q0 267 377 334l338 62v18q0 126 -66 191t-194 65q-132 0 -207.5 -71.5t-75.5 -196.5l-145 20q0 175 115 276t317 101zM453 119q81 0 161 31.5t136.5 95t56.5 143.5v156l-295 -51q-146 -26 -206 -75.5
t-60 -135.5q0 -81 54.5 -122.5t152.5 -41.5z" />
    <glyph glyph-name="adieresis" unicode="&#xe4;" horiz-adv-x="1085" 
d="M489 1374v-166h-163v166h163zM776 1374v-166h-164v166h164zM551 1071q196 0 298.5 -98.5t102.5 -288.5v-684h-145v219q-58 -104 -162.5 -166.5t-214.5 -62.5q-156 0 -247 72t-91 210q0 267 377 334l338 62v18q0 126 -66 191t-194 65q-132 0 -207.5 -71.5t-75.5 -196.5
l-145 20q0 175 115 276t317 101zM453 119q81 0 161 31.5t136.5 95t56.5 143.5v156l-295 -51q-146 -26 -206 -75.5t-60 -135.5q0 -81 54.5 -122.5t152.5 -41.5z" />
    <glyph glyph-name="aring" unicode="&#xe5;" horiz-adv-x="1085" 
d="M551 1182q-75 0 -127.5 52.5t-52.5 127.5q0 74 52.5 126t127.5 52q73 0 125.5 -52t52.5 -126q0 -75 -52 -127.5t-126 -52.5zM551 1446q-35 0 -60.5 -25t-25.5 -59q0 -35 25.5 -60.5t60.5 -25.5q34 0 59 25.5t25 60.5q0 34 -25 59t-59 25zM551 1071q196 0 298.5 -98.5
t102.5 -288.5v-684h-145v219q-58 -104 -162.5 -166.5t-214.5 -62.5q-156 0 -247 72t-91 210q0 267 377 334l338 62v18q0 126 -66 191t-194 65q-132 0 -207.5 -71.5t-75.5 -196.5l-145 20q0 175 115 276t317 101zM453 119q81 0 161 31.5t136.5 95t56.5 143.5v156l-295 -51
q-146 -26 -206 -75.5t-60 -135.5q0 -81 54.5 -122.5t152.5 -41.5z" />
    <glyph glyph-name="ae" unicode="&#xe6;" horiz-adv-x="1845" 
d="M1743 598v-98h-787q9 -175 98 -278.5t240 -102.5q131 1 202.5 61t90.5 176l146 -20q-27 -163 -139.5 -254t-299.5 -92q-275 -3 -405 203q-58 -95 -162 -149t-240 -54q-196 0 -295.5 84.5t-99.5 236.5q0 151 111.5 234.5t324.5 83.5h279v57q0 126 -66 191t-194 65
q-132 0 -207.5 -71.5t-75.5 -196.5l-145 20q0 175 115 276t317 101q269 0 358 -180q131 180 385 180q210 0 329.5 -128.5t119.5 -344.5zM1294 942q-141 2 -228.5 -76t-107.5 -237h641q-6 158 -86.5 234.5t-218.5 78.5zM807 389v111h-279q-282 0 -282 -189q0 -87 59.5 -139.5
t181.5 -52.5q140 0 228.5 76.5t91.5 193.5z" />
    <glyph glyph-name="ccedilla" unicode="&#xe7;" horiz-adv-x="1097" 
d="M586 119q122 1 194.5 68.5t91.5 185.5l146 -21q-26 -160 -130 -256.5t-278 -105.5l-45 -70q103 -3 157 -47t56 -119q1 -87 -54.5 -130.5t-154.5 -43.5q-121 0 -192 58l55 86q67 -46 137 -46q49 0 75 22.5t24 59.5q-1 39 -39 60.5t-99 21.5q-10 0 -34 -4l-25 72l53 82
q-200 19 -311 160.5t-111 377.5q0 254 128.5 398t355.5 143q186 -1 295.5 -110.5t136.5 -309.5l-146 -20q-25 151 -91.5 230.5t-194.5 80.5q-160 -2 -246.5 -106.5t-85.5 -300.5q1 -201 88.5 -308.5t243.5 -107.5z" />
    <glyph glyph-name="egrave" unicode="&#xe8;" horiz-adv-x="1140" 
d="M666 1204h-131l-246 258h186zM1038 598v-98h-786q9 -175 98 -278.5t240 -102.5q131 1 202.5 61t90.5 176l145 -20q-27 -163 -139 -254t-299 -92q-227 -2 -357.5 140t-130.5 400q0 157 54.5 278t166.5 192t267 71q210 0 329 -128.5t119 -344.5zM590 942q-141 2 -228.5 -76
t-107.5 -237h641q-6 158 -86.5 234.5t-218.5 78.5z" />
    <glyph glyph-name="eacute" unicode="&#xe9;" horiz-adv-x="1140" 
d="M891 1462l-246 -258h-131l191 258h186zM1038 598v-98h-786q9 -175 98 -278.5t240 -102.5q131 1 202.5 61t90.5 176l145 -20q-27 -163 -139 -254t-299 -92q-227 -2 -357.5 140t-130.5 400q0 157 54.5 278t166.5 192t267 71q210 0 329 -128.5t119 -344.5zM590 942
q-141 2 -228.5 -76t-107.5 -237h641q-6 158 -86.5 234.5t-218.5 78.5z" />
    <glyph glyph-name="ecircumflex" unicode="&#xea;" horiz-adv-x="1140" 
d="M590 1370l-146 -166h-165l231 258h160l231 -258h-166zM1038 598v-98h-786q9 -175 98 -278.5t240 -102.5q131 1 202.5 61t90.5 176l145 -20q-27 -163 -139 -254t-299 -92q-227 -2 -357.5 140t-130.5 400q0 157 54.5 278t166.5 192t267 71q210 0 329 -128.5t119 -344.5z
M590 942q-141 2 -228.5 -76t-107.5 -237h641q-6 158 -86.5 234.5t-218.5 78.5z" />
    <glyph glyph-name="edieresis" unicode="&#xeb;" horiz-adv-x="1140" 
d="M528 1374v-166h-163v166h163zM815 1374v-166h-164v166h164zM1038 598v-98h-786q9 -175 98 -278.5t240 -102.5q131 1 202.5 61t90.5 176l145 -20q-27 -163 -139 -254t-299 -92q-227 -2 -357.5 140t-130.5 400q0 157 54.5 278t166.5 192t267 71q210 0 329 -128.5
t119 -344.5zM590 942q-141 2 -228.5 -76t-107.5 -237h641q-6 158 -86.5 234.5t-218.5 78.5z" />
    <glyph glyph-name="igrave" unicode="&#xec;" horiz-adv-x="432" 
d="M293 1204h-131l-246 258h186zM143 0v1044h146v-1044h-146z" />
    <glyph glyph-name="iacute" unicode="&#xed;" horiz-adv-x="432" 
d="M141 1204l191 258h186l-246 -258h-131zM143 0v1044h146v-1044h-146z" />
    <glyph glyph-name="icircumflex" unicode="&#xee;" horiz-adv-x="432" 
d="M297 1462l231 -258h-166l-145 166l-145 -166h-166l231 258h160zM143 0v1044h146v-1044h-146z" />
    <glyph glyph-name="idieresis" unicode="&#xef;" horiz-adv-x="432" 
d="M-8 1208v166h164v-166h-164zM279 1208v166h163v-166h-163zM143 0v1044h146v-1044h-146z" />
    <glyph glyph-name="eth" unicode="&#xf0;" horiz-adv-x="1138" 
d="M866 1217q90 -154 135.5 -319.5t45.5 -367.5v-2q0 -245 -128 -392t-350 -146q-215 2 -346 135t-131 373q0 234 127.5 373t349.5 139q123 0 200 -44t126 -135q-67 203 -147 347l-226 -72l-37 108l199 64q-52 80 -117 156h152q23 -29 84 -117l192 61l41 -106zM569 119
q158 2 248 109t90 300q0 181 -89.5 268t-248.5 85q-146 -2 -236 -102t-89 -281q2 -175 89 -277.5t236 -101.5z" />
    <glyph glyph-name="ntilde" unicode="&#xf1;" 
d="M508 1305q-29 0 -50.5 -24.5t-21.5 -61.5h-92q0 95 42.5 147.5t121.5 52.5q34 0 64 -15t47 -33t38.5 -33t42.5 -15q26 0 46 24.5t20 61.5h92q0 -95 -42.5 -148t-121.5 -53q-32 0 -59.5 15t-44 33.5t-38.5 33.5t-44 15zM635 1071q186 0 284.5 -100.5t98.5 -286.5v-684
h-146v666q0 149 -65 212.5t-199 63.5q-138 0 -228.5 -97t-90.5 -249v-596h-146v1044h146v-198q88 225 346 225z" />
    <glyph glyph-name="ograve" unicode="&#xf2;" horiz-adv-x="1200" 
d="M676 1204h-131l-246 258h186zM600 -10q-228 2 -363 143.5t-135 394.5q0 162 57.5 283.5t170.5 190t270 69.5q228 -2 363 -144.5t135 -398.5q0 -245 -131 -391t-367 -147zM600 119q159 2 253.5 109.5t94.5 299.5q0 191 -91.5 303t-256.5 111q-159 -2 -253 -111t-93 -303
q2 -189 93 -299.5t253 -109.5z" />
    <glyph glyph-name="oacute" unicode="&#xf3;" horiz-adv-x="1200" 
d="M524 1204l191 258h186l-246 -258h-131zM600 -10q-228 2 -363 143.5t-135 394.5q0 162 57.5 283.5t170.5 190t270 69.5q228 -2 363 -144.5t135 -398.5q0 -245 -131 -391t-367 -147zM600 119q159 2 253.5 109.5t94.5 299.5q0 191 -91.5 303t-256.5 111q-159 -2 -253 -111
t-93 -303q2 -189 93 -299.5t253 -109.5z" />
    <glyph glyph-name="ocircumflex" unicode="&#xf4;" horiz-adv-x="1200" 
d="M600 1370l-145 -166h-166l231 258h160l231 -258h-166zM600 1071q228 -2 363 -144.5t135 -398.5q0 -245 -131 -391t-367 -147q-228 2 -363 143.5t-135 394.5q0 162 57.5 283.5t170.5 190t270 69.5zM600 119q159 2 253.5 109.5t94.5 299.5q0 191 -91.5 303t-256.5 111
q-159 -2 -253 -111t-93 -303q2 -189 93 -299.5t253 -109.5z" />
    <glyph glyph-name="otilde" unicode="&#xf5;" horiz-adv-x="1200" 
d="M692 1208q-32 0 -59.5 15t-44 33.5t-38.5 33.5t-44 15q-29 0 -50.5 -24.5t-21.5 -61.5h-92q0 95 42.5 147.5t121.5 52.5q34 0 64 -15t47 -33t38.5 -33t42.5 -15q26 0 46 24.5t20 61.5h92q0 -95 -42.5 -148t-121.5 -53zM600 -10q-228 2 -363 143.5t-135 394.5
q0 162 57.5 283.5t170.5 190t270 69.5q228 -2 363 -144.5t135 -398.5q0 -245 -131 -391t-367 -147zM600 119q159 2 253.5 109.5t94.5 299.5q0 191 -91.5 303t-256.5 111q-159 -2 -253 -111t-93 -303q2 -189 93 -299.5t253 -109.5z" />
    <glyph glyph-name="odieresis" unicode="&#xf6;" horiz-adv-x="1200" 
d="M375 1208v166h164v-166h-164zM662 1208v166h163v-166h-163zM600 -10q-228 2 -363 143.5t-135 394.5q0 162 57.5 283.5t170.5 190t270 69.5q228 -2 363 -144.5t135 -398.5q0 -245 -131 -391t-367 -147zM600 119q159 2 253.5 109.5t94.5 299.5q0 191 -91.5 303t-256.5 111
q-159 -2 -253 -111t-93 -303q2 -189 93 -299.5t253 -109.5z" />
    <glyph glyph-name="divide" unicode="&#xf7;" horiz-adv-x="1333" 
d="M586 879v165h164v-165h-164zM143 459v129l1047 -2v-127h-1047zM586 0v166h164v-166h-164z" />
    <glyph glyph-name="oslash" unicode="&#xf8;" horiz-adv-x="1200" 
d="M1098 1071l-121 -160q121 -143 121 -383q0 -245 -131 -391t-367 -147q-153 0 -270 69l-54 -69h-174l121 160q-121 140 -121 378q0 162 57.5 283.5t170.5 190t270 69.5q153 0 268 -70l54 70h176zM254 528q0 -150 61 -256l471 621q-76 49 -186 49q-159 -2 -253 -111
t-93 -303zM948 528q0 159 -63 263l-471 -621q74 -51 186 -51q159 2 253.5 109.5t94.5 299.5z" />
    <glyph glyph-name="ugrave" unicode="&#xf9;" 
d="M637 1204h-131l-246 258h186zM862 1044h146v-1044h-146v215q-88 -225 -346 -225q-186 0 -284.5 100.5t-98.5 286.5v667h146v-649q0 -148 71 -212t207 -64t220.5 96t84.5 250v579z" />
    <glyph glyph-name="uacute" unicode="&#xfa;" 
d="M862 1462l-246 -258h-131l191 258h186zM862 1044h146v-1044h-146v215q-88 -225 -346 -225q-186 0 -284.5 100.5t-98.5 286.5v667h146v-649q0 -148 71 -212t207 -64t220.5 96t84.5 250v579z" />
    <glyph glyph-name="ucircumflex" unicode="&#xfb;" 
d="M561 1370l-145 -166h-166l231 258h160l231 -258h-165zM862 1044h146v-1044h-146v215q-88 -225 -346 -225q-186 0 -284.5 100.5t-98.5 286.5v667h146v-649q0 -148 71 -212t207 -64t220.5 96t84.5 250v579z" />
    <glyph glyph-name="udieresis" unicode="&#xfc;" 
d="M500 1374v-166h-164v166h164zM786 1374v-166h-163v166h163zM862 1044h146v-1044h-146v215q-88 -225 -346 -225q-186 0 -284.5 100.5t-98.5 286.5v667h146v-649q0 -148 71 -212t207 -64t220.5 96t84.5 250v579z" />
    <glyph glyph-name="yacute" unicode="&#xfd;" horiz-adv-x="1005" 
d="M805 1462l-246 -258h-131l190 258h187zM819 1044h156l-400 -1044l-47 -129q-37 -92 -73 -141t-91.5 -74t-142.5 -25q-103 0 -178 52v139q90 -53 180 -53q74 0 109 31t67 114l31 80l-399 1050h155l252 -679q43 -108 66 -189q22 79 67 199z" />
    <glyph glyph-name="thorn" unicode="&#xfe;" horiz-adv-x="1234" 
d="M662 1081q207 0 339 -146.5t132 -397.5q0 -253 -132 -400t-339 -147q-279 0 -373 209v-611h-146v1866h146v-582q94 209 373 209zM643 119q152 0 245 115t93 301q0 189 -93 303t-245 114q-144 0 -239.5 -93.5t-114.5 -252.5v-141q19 -158 114.5 -252t239.5 -94z" />
    <glyph glyph-name="ydieresis" unicode="&#xff;" horiz-adv-x="1005" 
d="M442 1374v-166h-163v166h163zM729 1374v-166h-164v166h164zM819 1044h156l-400 -1044l-47 -129q-37 -92 -73 -141t-91.5 -74t-142.5 -25q-103 0 -178 52v139q90 -53 180 -53q74 0 109 31t67 114l31 80l-399 1050h155l252 -679q43 -108 66 -189q22 79 67 199z" />
    <glyph glyph-name="Amacron" unicode="&#x100;" horiz-adv-x="1439" 
d="M942 1704v-143h-455v143h455zM1257 0l-176 416h-725l-174 -416h-162l611 1434h172l616 -1434h-162zM418 559h602l-168 397q-33 84 -135 324q-117 -282 -135 -330z" />
    <glyph glyph-name="amacron" unicode="&#x101;" horiz-adv-x="1085" 
d="M778 1352v-144h-454v144h454zM551 1071q196 0 298.5 -98.5t102.5 -288.5v-684h-145v219q-58 -104 -162.5 -166.5t-214.5 -62.5q-156 0 -247 72t-91 210q0 267 377 334l338 62v18q0 126 -66 191t-194 65q-132 0 -207.5 -71.5t-75.5 -196.5l-145 20q0 175 115 276t317 101z
M453 119q81 0 161 31.5t136.5 95t56.5 143.5v156l-295 -51q-146 -26 -206 -75.5t-60 -135.5q0 -81 54.5 -122.5t152.5 -41.5z" />
    <glyph glyph-name="Abreve" unicode="&#x102;" horiz-adv-x="1439" 
d="M715 1556q-115 0 -190.5 71.5t-75.5 187.5h141q0 -71 33.5 -110.5t91.5 -39.5t91.5 39.5t33.5 110.5h141q0 -116 -75.5 -187.5t-190.5 -71.5zM1257 0l-176 416h-725l-174 -416h-162l611 1434h172l616 -1434h-162zM418 559h602l-168 397q-33 84 -135 324
q-117 -282 -135 -330z" />
    <glyph glyph-name="abreve" unicode="&#x103;" horiz-adv-x="1085" 
d="M551 1204q-116 0 -191 71t-75 187h141q0 -71 33.5 -110t91.5 -39t91.5 39t33.5 110h141q0 -116 -75 -187t-191 -71zM551 1071q196 0 298.5 -98.5t102.5 -288.5v-684h-145v219q-58 -104 -162.5 -166.5t-214.5 -62.5q-156 0 -247 72t-91 210q0 267 377 334l338 62v18
q0 126 -66 191t-194 65q-132 0 -207.5 -71.5t-75.5 -196.5l-145 20q0 175 115 276t317 101zM453 119q81 0 161 31.5t136.5 95t56.5 143.5v156l-295 -51q-146 -26 -206 -75.5t-60 -135.5q0 -81 54.5 -122.5t152.5 -41.5z" />
    <glyph glyph-name="Aogonek" unicode="&#x104;" horiz-adv-x="1439" 
d="M1217 -344q72 0 137 45l55 -86q-70 -57 -192 -57q-100 0 -155.5 54.5t-53.5 139.5q1 48 20 89.5t56 76t72.5 58.5t88.5 53l-164 387h-725l-174 -416h-162l611 1434h172l616 -1434h-41q-33 -17 -43 -22t-42 -22t-45.5 -26.5t-39 -27.5t-37 -32t-26.5 -33t-21 -38.5
t-6 -40.5q-1 -46 27 -74t72 -28zM418 559h602l-168 397q-33 84 -135 324q-117 -282 -135 -330z" />
    <glyph glyph-name="aogonek" unicode="&#x105;" horiz-adv-x="1085" 
d="M928 -299l55 -86q-70 -57 -192 -57q-100 0 -155.5 54.5t-53.5 139.5q1 47 19 87.5t52 73.5t69.5 57t84.5 50v199q-58 -104 -162.5 -166.5t-214.5 -62.5q-156 0 -247 72t-91 210q0 267 377 334l338 62v18q0 126 -66 191t-194 65q-132 0 -207.5 -71.5t-75.5 -196.5l-145 20
q0 175 115 276t317 101q196 0 298.5 -98.5t102.5 -288.5v-684q-33 -17 -43 -22t-42 -22t-45.5 -26.5t-39 -27.5t-37 -32t-26.5 -33t-21 -38.5t-6 -40.5q-1 -46 27 -74t72 -28q72 0 137 45zM453 119q81 0 161 31.5t136.5 95t56.5 143.5v156l-295 -51q-146 -26 -206 -75.5
t-60 -135.5q0 -81 54.5 -122.5t152.5 -41.5z" />
    <glyph glyph-name="Cacute" unicode="&#x106;" horiz-adv-x="1417" 
d="M1040 1815l-245 -259h-131l190 259h186zM1159 510l156 -29q-28 -226 -180 -358.5t-398 -132.5q-291 0 -463 199t-172 528q0 161 47 297t131 230.5t204 147t261 52.5q236 0 383 -133t175 -359l-156 -28q-17 178 -126 277t-284 99q-214 0 -344.5 -160t-130.5 -421
q0 -264 130.5 -425t344.5 -161q184 0 294.5 99t127.5 278z" />
    <glyph glyph-name="cacute" unicode="&#x107;" horiz-adv-x="1097" 
d="M891 1462l-246 -258h-131l191 258h186zM586 119q122 1 194.5 68.5t91.5 185.5l146 -21q-27 -166 -137.5 -263.5t-294.5 -98.5q-227 -1 -355.5 142t-128.5 398q0 254 128.5 398t355.5 143q186 -1 295.5 -110.5t136.5 -309.5l-146 -20q-25 151 -91.5 230.5t-194.5 80.5
q-160 -2 -246.5 -106.5t-85.5 -300.5q1 -201 88.5 -308.5t243.5 -107.5z" />
    <glyph glyph-name="Cdotaccent" unicode="&#x10a;" horiz-adv-x="1417" 
d="M821 1726v-165h-164v165h164zM1159 510l156 -29q-28 -226 -180 -358.5t-398 -132.5q-291 0 -463 199t-172 528q0 161 47 297t131 230.5t204 147t261 52.5q236 0 383 -133t175 -359l-156 -28q-17 178 -126 277t-284 99q-214 0 -344.5 -160t-130.5 -421q0 -264 130.5 -425
t344.5 -161q184 0 294.5 99t127.5 278z" />
    <glyph glyph-name="cdotaccent" unicode="&#x10b;" horiz-adv-x="1097" 
d="M672 1374v-166h-164v166h164zM586 119q122 1 194.5 68.5t91.5 185.5l146 -21q-27 -166 -137.5 -263.5t-294.5 -98.5q-227 -1 -355.5 142t-128.5 398q0 254 128.5 398t355.5 143q186 -1 295.5 -110.5t136.5 -309.5l-146 -20q-25 151 -91.5 230.5t-194.5 80.5
q-160 -2 -246.5 -106.5t-85.5 -300.5q1 -201 88.5 -308.5t243.5 -107.5z" />
    <glyph glyph-name="Ccaron" unicode="&#x10c;" horiz-adv-x="1417" 
d="M819 1556h-160l-231 259h166l145 -166l146 166h166zM1159 510l156 -29q-28 -226 -180 -358.5t-398 -132.5q-291 0 -463 199t-172 528q0 161 47 297t131 230.5t204 147t261 52.5q236 0 383 -133t175 -359l-156 -28q-17 178 -126 277t-284 99q-214 0 -344.5 -160
t-130.5 -421q0 -264 130.5 -425t344.5 -161q184 0 294.5 99t127.5 278z" />
    <glyph glyph-name="ccaron" unicode="&#x10d;" horiz-adv-x="1097" 
d="M670 1204h-160l-231 258h165l146 -166l145 166h166zM586 119q122 1 194.5 68.5t91.5 185.5l146 -21q-27 -166 -137.5 -263.5t-294.5 -98.5q-227 -1 -355.5 142t-128.5 398q0 254 128.5 398t355.5 143q186 -1 295.5 -110.5t136.5 -309.5l-146 -20q-25 151 -91.5 230.5
t-194.5 80.5q-160 -2 -246.5 -106.5t-85.5 -300.5q1 -201 88.5 -308.5t243.5 -107.5z" />
    <glyph glyph-name="Dcaron" unicode="&#x10e;" horiz-adv-x="1402" 
d="M670 1556h-160l-231 259h165l146 -166l145 166h166zM631 1434q194 0 346.5 -91t237.5 -254.5t85 -371.5t-85 -371.5t-237.5 -254.5t-346.5 -91h-488v1434h488zM621 143q229 2 374.5 163t145.5 413q0 249 -145.5 408.5t-374.5 162.5h-326v-1149z" />
    <glyph glyph-name="dcaron" unicode="&#x10f;" horiz-adv-x="1310" 
d="M946 872v603h146v-1475h-146v199q-94 -209 -373 -209q-207 0 -339 147t-132 400q0 251 132 397.5t339 146.5q279 0 373 -209zM1178 1475h147l-61 -402h-86v402zM592 119q160 0 259 115t99 301q0 188 -99 302.5t-259 114.5q-152 0 -245 -114t-93 -303q0 -186 93 -301
t245 -115z" />
    <glyph glyph-name="Dcroat" unicode="&#x110;" horiz-adv-x="1480" 
d="M709 1434q194 0 346.5 -91t237.5 -254.5t85 -371.5t-85 -371.5t-237.5 -254.5t-346.5 -91h-488v676h-149v143h149v615h488zM698 143q229 2 375 163t146 413q0 249 -146 408.5t-375 162.5h-325v-471h379v-143h-379v-535z" />
    <glyph glyph-name="dcroat" unicode="&#x111;" horiz-adv-x="1234" 
d="M1245 1325v-123h-153v-1202h-146v199q-94 -209 -373 -209q-207 0 -339 147t-132 400q0 251 132 397.5t339 146.5q279 0 373 -209v330h-176v123h176v150h146v-150h153zM592 119q160 0 259 115t99 301q0 188 -99 302.5t-259 114.5q-152 0 -245 -114t-93 -303
q0 -186 93 -301t245 -115z" />
    <glyph glyph-name="Emacron" unicode="&#x112;" horiz-adv-x="1177" 
d="M862 1704v-143h-454v143h454zM295 143h780v-143h-932v1434h924v-144h-772v-481h735v-143h-735v-523z" />
    <glyph glyph-name="emacron" unicode="&#x113;" horiz-adv-x="1140" 
d="M817 1352v-144h-455v144h455zM1038 598v-98h-786q9 -175 98 -278.5t240 -102.5q131 1 202.5 61t90.5 176l145 -20q-27 -163 -139 -254t-299 -92q-227 -2 -357.5 140t-130.5 400q0 157 54.5 278t166.5 192t267 71q210 0 329 -128.5t119 -344.5zM590 942q-141 2 -228.5 -76
t-107.5 -237h641q-6 158 -86.5 234.5t-218.5 78.5z" />
    <glyph glyph-name="Edotaccent" unicode="&#x116;" horiz-adv-x="1177" 
d="M717 1726v-165h-164v165h164zM295 143h780v-143h-932v1434h924v-144h-772v-481h735v-143h-735v-523z" />
    <glyph glyph-name="edotaccent" unicode="&#x117;" horiz-adv-x="1140" 
d="M672 1374v-166h-164v166h164zM1038 598v-98h-786q9 -175 98 -278.5t240 -102.5q131 1 202.5 61t90.5 176l145 -20q-27 -163 -139 -254t-299 -92q-227 -2 -357.5 140t-130.5 400q0 157 54.5 278t166.5 192t267 71q210 0 329 -128.5t119 -344.5zM590 942q-141 2 -228.5 -76
t-107.5 -237h641q-6 158 -86.5 234.5t-218.5 78.5z" />
    <glyph glyph-name="Eogonek" unicode="&#x118;" horiz-adv-x="1177" 
d="M1051 -299l55 -86q-70 -57 -193 -57q-100 0 -155 54.5t-53 139.5q1 80 51 138t137 110h-750v1434h924v-144h-772v-481h735v-143h-735v-523h780v-143q-33 -17 -43 -22t-42 -22t-45.5 -26.5t-39 -27.5t-37 -32t-26.5 -33t-21 -38.5t-6 -40.5q-1 -46 26.5 -74t71.5 -28
q73 0 138 45z" />
    <glyph glyph-name="eogonek" unicode="&#x119;" horiz-adv-x="1140" 
d="M1038 598v-98h-786q9 -175 98 -278.5t240 -102.5q131 1 202.5 61t90.5 176l145 -20q-38 -230 -240 -311q-39 -20 -58 -30t-55 -31t-56 -38t-43 -40t-33.5 -48.5t-10.5 -52.5q-1 -46 27 -74t72 -28q72 0 137 45l55 -86q-71 -58 -192 -58q-100 0 -155.5 55t-53.5 140
q3 123 131 211q-210 11 -330.5 152t-120.5 388q0 157 54.5 278t166.5 192t267 71q210 0 329 -128.5t119 -344.5zM590 942q-141 2 -228.5 -76t-107.5 -237h641q-6 158 -86.5 234.5t-218.5 78.5z" />
    <glyph glyph-name="Ecaron" unicode="&#x11a;" horiz-adv-x="1177" 
d="M715 1556h-160l-231 259h165l146 -166l145 166h166zM295 143h780v-143h-932v1434h924v-144h-772v-481h735v-143h-735v-523z" />
    <glyph glyph-name="ecaron" unicode="&#x11b;" horiz-adv-x="1140" 
d="M670 1204h-160l-231 258h165l146 -166l145 166h166zM1038 598v-98h-786q9 -175 98 -278.5t240 -102.5q131 1 202.5 61t90.5 176l145 -20q-27 -163 -139 -254t-299 -92q-227 -2 -357.5 140t-130.5 400q0 157 54.5 278t166.5 192t267 71q210 0 329 -128.5t119 -344.5z
M590 942q-141 2 -228.5 -76t-107.5 -237h641q-6 158 -86.5 234.5t-218.5 78.5z" />
    <glyph glyph-name="Gbreve" unicode="&#x11e;" horiz-adv-x="1525" 
d="M741 1556q-115 0 -190.5 71.5t-75.5 187.5h141q0 -71 33.5 -110.5t91.5 -39.5t91.5 39.5t33.5 110.5h142q0 -116 -75.5 -187.5t-191.5 -71.5zM1382 762v-762h-143v287q-145 -297 -512 -297q-187 0 -330 93t-219 257.5t-76 376.5q0 211 81.5 376.5t231 258t343.5 92.5
q252 0 409 -133t185 -359l-156 -28q-17 178 -132 277t-306 99q-220 0 -358 -157.5t-138 -423.5q0 -260 135 -423t351 -163q214 0 341 120.5t148 364.5l-535 3v143z" />
    <glyph glyph-name="gbreve" unicode="&#x11f;" horiz-adv-x="1175" 
d="M592 1204q-116 0 -191 71t-75 187h141q0 -71 33.5 -110t91.5 -39t91.5 39t33.5 110h141q0 -116 -75 -187t-191 -71zM887 1044h145l-4 -978q0 -224 -111.5 -350.5t-341.5 -125.5q-188 1 -299.5 86.5t-144.5 237.5l145 23q50 -215 299 -218q88 -1 149 22t94 69t48 102
t17 133v152q-108 -183 -330 -183q-200 0 -325.5 142t-125.5 387q0 241 121.5 389.5t329.5 148.5q109 0 195 -48.5t139 -143.5v155zM571 143q142 0 230 102.5t88 297.5q0 193 -86 302t-232 107q-150 0 -234.5 -109t-84.5 -300q0 -176 88 -288t231 -112z" />
    <glyph glyph-name="Gdotaccent" unicode="&#x120;" horiz-adv-x="1525" 
d="M823 1726v-165h-164v165h164zM1382 762v-762h-143v287q-145 -297 -512 -297q-187 0 -330 93t-219 257.5t-76 376.5q0 211 81.5 376.5t231 258t343.5 92.5q252 0 409 -133t185 -359l-156 -28q-17 178 -132 277t-306 99q-220 0 -358 -157.5t-138 -423.5q0 -260 135 -423
t351 -163q214 0 341 120.5t148 364.5l-535 3v143z" />
    <glyph glyph-name="gdotaccent" unicode="&#x121;" horiz-adv-x="1175" 
d="M674 1374v-166h-164v166h164zM887 1044h145l-4 -978q0 -224 -111.5 -350.5t-341.5 -125.5q-188 1 -299.5 86.5t-144.5 237.5l145 23q50 -215 299 -218q88 -1 149 22t94 69t48 102t17 133v152q-108 -183 -330 -183q-200 0 -325.5 142t-125.5 387q0 241 121.5 389.5
t329.5 148.5q109 0 195 -48.5t139 -143.5v155zM571 143q142 0 230 102.5t88 297.5q0 193 -86 302t-232 107q-150 0 -234.5 -109t-84.5 -300q0 -176 88 -288t231 -112z" />
    <glyph glyph-name="uni0122" unicode="&#x122;" horiz-adv-x="1525" 
d="M1382 762v-762h-143v287q-145 -297 -512 -297q-187 0 -330 93t-219 257.5t-76 376.5q0 211 81.5 376.5t231 258t343.5 92.5q252 0 409 -133t185 -359l-156 -28q-17 178 -132 277t-306 99q-220 0 -358 -157.5t-138 -423.5q0 -260 135 -423t351 -163q214 0 341 120.5
t148 364.5l-535 3v143zM653 -307v186h174v-192q0 -99 -44.5 -163t-129.5 -83v74q45 12 61.5 50t16.5 128h-78z" />
    <glyph glyph-name="uni0123" unicode="&#x123;" horiz-adv-x="1175" 
d="M928 1432l-191 -258h-186l246 258h131zM887 1044h145l-4 -978q0 -224 -111.5 -350.5t-341.5 -125.5q-188 1 -299.5 86.5t-144.5 237.5l145 23q50 -215 299 -218q88 -1 149 22t94 69t48 102t17 133v152q-108 -183 -330 -183q-200 0 -325.5 142t-125.5 387
q0 241 121.5 389.5t329.5 148.5q109 0 195 -48.5t139 -143.5v155zM571 143q142 0 230 102.5t88 297.5q0 193 -86 302t-232 107q-150 0 -234.5 -109t-84.5 -300q0 -176 88 -288t231 -112z" />
    <glyph glyph-name="Hbar" unicode="&#x126;" horiz-adv-x="1411" 
d="M1411 1188v-144h-143v-1044h-152v666h-821v-666h-152v1044h-143v144h143v246h152v-246h821v246h152v-246h143zM1116 809v235h-821v-235h821z" />
    <glyph glyph-name="hbar" unicode="&#x127;" 
d="M635 1071q186 0 284.5 -100.5t98.5 -286.5v-684h-146v666q0 149 -66 212.5t-200 63.5q-138 0 -227.5 -96.5t-89.5 -249.5v-596h-146v1202h-141v123h141v129h146v-129h321v-123h-321v-328q103 197 346 197z" />
    <glyph glyph-name="Imacron" unicode="&#x12a;" horiz-adv-x="438" 
d="M-8 1561v143h454v-143h-454zM143 0v1434h152v-1434h-152z" />
    <glyph glyph-name="imacron" unicode="&#x12b;" horiz-adv-x="432" 
d="M-10 1208v144h454v-144h-454zM143 0v1044h146v-1044h-146z" />
    <glyph glyph-name="Iogonek" unicode="&#x12e;" horiz-adv-x="438" 
d="M270 -299l56 -86q-70 -57 -193 -57q-100 0 -155.5 54.5t-53.5 139.5q1 46 18.5 86t50.5 72.5t67 56.5t83 51v1416h152v-1434q-33 -17 -43 -22t-42 -22t-45.5 -26.5t-39 -27.5t-37 -32t-26.5 -33t-21 -38.5t-6 -40.5q-1 -46 26.5 -74t71.5 -28q72 0 137 45z" />
    <glyph glyph-name="iogonek" unicode="&#x12f;" horiz-adv-x="432" 
d="M299 1374v-166h-164v166h164zM264 -299l55 -86q-70 -57 -192 -57q-100 0 -155.5 54.5t-53.5 139.5q1 47 19 87.5t52 73.5t69.5 57t84.5 50v1024h146v-1044q-33 -17 -43 -22t-42 -22t-45.5 -26.5t-39 -27.5t-37 -32t-26.5 -33t-21 -38.5t-6 -40.5q-1 -46 26.5 -74
t71.5 -28q72 0 137 45z" />
    <glyph glyph-name="Idotaccent" unicode="&#x130;" horiz-adv-x="438" 
d="M137 1561v165h164v-165h-164zM143 0v1434h152v-1434h-152z" />
    <glyph glyph-name="dotlessi" unicode="&#x131;" horiz-adv-x="432" 
d="M143 0v1044h146v-1044h-146z" />
    <glyph glyph-name="Jcircumflex" unicode="&#x134;" horiz-adv-x="1128" 
d="M997 1815l232 -259h-166l-145 166l-146 -166h-166l232 259h159zM836 471l-2 963h151v-988q0 -99 -25.5 -180t-77 -143.5t-138 -97.5t-201.5 -35q-232 0 -351.5 129.5t-119.5 372.5h151q0 -169 79.5 -264t240.5 -95q146 0 219.5 90t73.5 248z" />
    <glyph glyph-name="jcircumflex" unicode="&#x135;" horiz-adv-x="456" 
d="M322 1462l231 -258h-166l-145 166l-146 -166h-166l232 258h160zM168 -86v1130h145v-1173q0 -118 -63.5 -179t-186.5 -61q-60 0 -118 25v139q53 -26 118 -26q55 0 80 33.5t25 111.5z" />
    <glyph glyph-name="uni0136" unicode="&#x136;" horiz-adv-x="1284" 
d="M627 838l616 -838h-192l-539 725l-217 -209v-516h-152v1434h152v-732l739 732h207zM553 -307v186h174v-192q0 -99 -44.5 -163t-129.5 -83v74q45 12 61.5 50t16.5 128h-78z" />
    <glyph glyph-name="uni0137" unicode="&#x137;" horiz-adv-x="1021" 
d="M575 651l431 -651h-187l-352 547l-178 -172v-375h-146v1454h146v-903l487 493h209zM473 -276v186h174v-193q0 -99 -44.5 -162.5t-129.5 -82.5v73q45 12 61.5 50.5t16.5 128.5h-78z" />
    <glyph glyph-name="Lacute" unicode="&#x139;" horiz-adv-x="1112" 
d="M528 1815l-245 -259h-131l190 259h186zM295 143h766v-143h-918v1434h152v-1291z" />
    <glyph glyph-name="lacute" unicode="&#x13a;" horiz-adv-x="432" 
d="M141 1587l191 258h186l-246 -258h-131zM143 0v1454h146v-1454h-146z" />
    <glyph glyph-name="uni013B" unicode="&#x13b;" horiz-adv-x="1112" 
d="M295 143h766v-143h-918v1434h152v-1291zM467 -307v186h174v-192q0 -99 -44.5 -163t-129.5 -83v74q45 12 61.5 50t16.5 128h-78z" />
    <glyph glyph-name="uni013C" unicode="&#x13c;" horiz-adv-x="432" 
d="M143 0v1454h146v-1454h-146zM135 -528v73q45 12 61.5 50.5t16.5 128.5h-78v186h174v-193q0 -99 -44.5 -162.5t-129.5 -82.5z" />
    <glyph glyph-name="Lcaron" unicode="&#x13d;" horiz-adv-x="1112" 
d="M307 1556h-160l-231 259h166l145 -166l146 166h166zM295 143h766v-143h-918v1434h152v-1291z" />
    <glyph glyph-name="lcaron" unicode="&#x13e;" horiz-adv-x="432" 
d="M362 1845h166l-231 -258h-160l-231 258h166l145 -166zM143 0v1454h146v-1454h-146z" />
    <glyph glyph-name="Ldot" unicode="&#x13f;" horiz-adv-x="1228" 
d="M295 143h766v-143h-918v1434h152v-1291zM743 811v-166h-163v166h163z" />
    <glyph glyph-name="ldot" unicode="&#x140;" horiz-adv-x="634" 
d="M143 0v1454h146v-1454h-146zM391 645v166h164v-166h-164z" />
    <glyph glyph-name="Lslash" unicode="&#x141;" horiz-adv-x="1130" 
d="M313 143h766v-143h-917v659l-88 -41l-54 113l142 66v637h151v-566l99 45l53 -112l-152 -70v-588z" />
    <glyph glyph-name="lslash" unicode="&#x142;" horiz-adv-x="432" 
d="M438 801l-149 -70v-731h-146v664l-96 -46l-53 113l149 70v653h146v-586l96 45z" />
    <glyph glyph-name="Nacute" unicode="&#x143;" horiz-adv-x="1433" 
d="M1010 1815l-246 -259h-131l190 259h187zM1139 1434h151v-1434h-182l-725 1059q-45 67 -96 162q8 -139 8 -291v-930h-152v1434h179l729 -1076q49 -72 96 -174q-8 226 -8 322v928z" />
    <glyph glyph-name="nacute" unicode="&#x144;" 
d="M903 1462l-246 -258h-131l191 258h186zM635 1071q186 0 284.5 -100.5t98.5 -286.5v-684h-146v666q0 149 -65 212.5t-199 63.5q-138 0 -228.5 -97t-90.5 -249v-596h-146v1044h146v-198q88 225 346 225z" />
    <glyph glyph-name="uni0145" unicode="&#x145;" horiz-adv-x="1433" 
d="M1139 1434h151v-1434h-182l-725 1059q-45 67 -96 162q8 -139 8 -291v-930h-152v1434h179l729 -1076q49 -72 96 -174q-8 226 -8 322v928zM629 -307v186h174v-192q0 -99 -44.5 -163t-129.5 -83v74q45 12 61.5 50t16.5 128h-78z" />
    <glyph glyph-name="uni0146" unicode="&#x146;" 
d="M635 1071q186 0 284.5 -100.5t98.5 -286.5v-684h-146v666q0 149 -65 212.5t-199 63.5q-138 0 -228.5 -97t-90.5 -249v-596h-146v1044h146v-198q88 225 346 225zM477 -266v186h174v-192q0 -99 -44.5 -163t-129.5 -83v74q45 12 61.5 50t16.5 128h-78z" />
    <glyph glyph-name="Ncaron" unicode="&#x147;" horiz-adv-x="1433" 
d="M788 1556h-159l-232 259h166l146 -166l145 166h166zM1139 1434h151v-1434h-182l-725 1059q-45 67 -96 162q8 -139 8 -291v-930h-152v1434h179l729 -1076q49 -72 96 -174q-8 226 -8 322v928z" />
    <glyph glyph-name="ncaron" unicode="&#x148;" 
d="M682 1204h-160l-231 258h166l145 -166l146 166h165zM635 1071q186 0 284.5 -100.5t98.5 -286.5v-684h-146v666q0 149 -65 212.5t-199 63.5q-138 0 -228.5 -97t-90.5 -249v-596h-146v1044h146v-198q88 225 346 225z" />
    <glyph glyph-name="Eng" unicode="&#x14a;" horiz-adv-x="1433" 
d="M899 -369q-101 0 -176 25t-131 82t-84.5 155.5t-28.5 239.5h160q0 -103 17.5 -173.5t52.5 -110.5t80.5 -57t109.5 -17q107 0 169 64t71 192l-852 1190q8 -139 8 -291v-930h-152v1434h183l725 -1008q50 -75 92 -166q-4 168 -4 246v928h151v-1387q0 -197 -98.5 -306.5
t-292.5 -109.5z" />
    <glyph glyph-name="eng" unicode="&#x14b;" 
d="M635 1071q186 0 284.5 -100.5t98.5 -286.5v-225v-459v-129q0 -118 -63.5 -179t-186.5 -61q-61 0 -119 25v139q53 -26 119 -26q55 0 79.5 33.5t24.5 111.5v752q0 149 -65 212.5t-199 63.5q-138 0 -228.5 -97t-90.5 -249v-596h-146v1044h146v-198q88 225 346 225z" />
    <glyph glyph-name="Omacron" unicode="&#x14c;" horiz-adv-x="1513" 
d="M530 1561v143h455v-143h-455zM758 -10q-306 0 -481 193.5t-175 533.5t175 533.5t481 193.5q305 0 479 -193.5t174 -533.5t-174 -533.5t-479 -193.5zM758 133q230 0 361.5 156t131.5 426q0 274 -131.5 429.5t-361.5 155.5q-231 0 -363.5 -156t-132.5 -429q0 -270 133 -426
t363 -156z" />
    <glyph glyph-name="omacron" unicode="&#x14d;" horiz-adv-x="1200" 
d="M373 1208v144h454v-144h-454zM600 -10q-228 2 -363 143.5t-135 394.5q0 162 57.5 283.5t170.5 190t270 69.5q228 -2 363 -144.5t135 -398.5q0 -245 -131 -391t-367 -147zM600 119q159 2 253.5 109.5t94.5 299.5q0 191 -91.5 303t-256.5 111q-159 -2 -253 -111t-93 -303
q2 -189 93 -299.5t253 -109.5z" />
    <glyph glyph-name="Ohungarumlaut" unicode="&#x150;" horiz-adv-x="1513" 
d="M444 1556l191 259h186l-246 -259h-131zM762 1556l190 259h187l-246 -259h-131zM758 -10q-306 0 -481 193.5t-175 533.5t175 533.5t481 193.5q305 0 479 -193.5t174 -533.5t-174 -533.5t-479 -193.5zM758 133q230 0 361.5 156t131.5 426q0 274 -131.5 429.5t-361.5 155.5
q-231 0 -363.5 -156t-132.5 -429q0 -270 133 -426t363 -156z" />
    <glyph glyph-name="ohungarumlaut" unicode="&#x151;" horiz-adv-x="1200" 
d="M287 1204l190 258h187l-246 -258h-131zM604 1204l191 258h186l-246 -258h-131zM600 -10q-228 2 -363 143.5t-135 394.5q0 162 57.5 283.5t170.5 190t270 69.5q228 -2 363 -144.5t135 -398.5q0 -245 -131 -391t-367 -147zM600 119q159 2 253.5 109.5t94.5 299.5
q0 191 -91.5 303t-256.5 111q-159 -2 -253 -111t-93 -303q2 -189 93 -299.5t253 -109.5z" />
    <glyph glyph-name="OE" unicode="&#x152;" horiz-adv-x="2248" 
d="M1407 143h780v-143h-932v205q-175 -215 -497 -215q-306 0 -481 193.5t-175 533.5t175 533.5t481 193.5q322 0 497 -215v205h924v-144h-772v-475v-6h735v-143h-733q0 -32 -2 -48v-475zM758 133q230 0 361.5 156t131.5 426q0 274 -131.5 429.5t-361.5 155.5
q-231 0 -363.5 -156t-132.5 -429q0 -270 133 -426t363 -156z" />
    <glyph glyph-name="oe" unicode="&#x153;" horiz-adv-x="1986" 
d="M1884 500h-786v-4q11 -174 99.5 -276t238.5 -101q131 1 202.5 61t90.5 176l145 -20q-27 -163 -139 -254t-299 -92q-141 -1 -247.5 55.5t-168.5 165.5q-61 -105 -168 -162.5t-252 -58.5q-228 2 -363 143.5t-135 394.5q0 162 57.5 283.5t170.5 190t270 69.5
q142 -2 250.5 -59.5t171.5 -165.5q60 107 165 166t249 59q210 0 329 -128.5t119 -344.5v-98zM600 119q159 2 253.5 109.5t94.5 299.5q0 191 -91.5 303t-256.5 111q-159 -2 -253 -111t-93 -303q2 -189 93 -299.5t253 -109.5zM1436 942q-141 2 -228.5 -76t-107.5 -237h641
q-6 158 -86.5 234.5t-218.5 78.5z" />
    <glyph glyph-name="Racute" unicode="&#x154;" horiz-adv-x="1368" 
d="M913 1815l-245 -259h-131l190 259h186zM1192 401q1 -16 5 -70.5t5.5 -78t6 -70t8.5 -73t10.5 -57.5t13.5 -52h-166q-8 23 -14 59.5t-10 85.5t-6.5 87t-6 96t-4.5 80q-17 249 -272 249h-467v-657h-152v1434h670q202 0 305 -98t103 -273q0 -282 -256 -336
q110 -22 162.5 -96.5t64.5 -229.5zM788 1290h-493v-489h473q293 0 293 262q0 118 -69 172.5t-204 54.5z" />
    <glyph glyph-name="racute" unicode="&#x155;" horiz-adv-x="788" 
d="M698 1462l-245 -258h-131l190 258h186zM643 1069q19 0 59 -4v-147q-29 4 -61 4q-176 0 -264 -97t-90 -272v-553l-144 -2v1044l144 2v-225q49 123 140 186.5t216 63.5z" />
    <glyph glyph-name="uni0156" unicode="&#x156;" horiz-adv-x="1368" 
d="M1192 401q1 -16 5 -70.5t5.5 -78t6 -70t8.5 -73t10.5 -57.5t13.5 -52h-166q-8 23 -14 59.5t-10 85.5t-6.5 87t-6 96t-4.5 80q-17 249 -272 249h-467v-657h-152v1434h670q202 0 305 -98t103 -273q0 -282 -256 -336q110 -22 162.5 -96.5t64.5 -229.5zM788 1290h-493v-489
h473q293 0 293 262q0 118 -69 172.5t-204 54.5zM586 -307v186h174v-192q0 -99 -44.5 -163t-129.5 -83v74q45 12 61.5 50t16.5 128h-78z" />
    <glyph glyph-name="uni0157" unicode="&#x157;" horiz-adv-x="788" 
d="M643 1069q19 0 59 -4v-147q-29 4 -61 4q-176 0 -264 -97t-90 -272v-553l-144 -2v1044l144 2v-225q49 123 140 186.5t216 63.5zM127 -276v186h174v-193q0 -99 -44.5 -162.5t-129.5 -82.5v73q45 12 61.5 50.5t16.5 128.5h-78z" />
    <glyph glyph-name="Rcaron" unicode="&#x158;" horiz-adv-x="1368" 
d="M692 1556h-160l-231 259h166l145 -166l146 166h166zM1192 401q1 -16 5 -70.5t5.5 -78t6 -70t8.5 -73t10.5 -57.5t13.5 -52h-166q-8 23 -14 59.5t-10 85.5t-6.5 87t-6 96t-4.5 80q-17 249 -272 249h-467v-657h-152v1434h670q202 0 305 -98t103 -273q0 -282 -256 -336
q110 -22 162.5 -96.5t64.5 -229.5zM788 1290h-493v-489h473q293 0 293 262q0 118 -69 172.5t-204 54.5z" />
    <glyph glyph-name="rcaron" unicode="&#x159;" horiz-adv-x="788" 
d="M477 1204h-160l-231 258h166l145 -166l146 166h166zM287 819q49 123 140 186.5t216 63.5q19 0 59 -4v-147q-29 4 -61 4q-176 0 -264 -97t-90 -272v-553l-144 -2v1044l144 2v-225z" />
    <glyph glyph-name="Sacute" unicode="&#x15a;" horiz-adv-x="1245" 
d="M918 1815l-246 -259h-131l190 259h187zM606 809q208 -50 321.5 -109.5t158 -135.5t44.5 -193q0 -178 -136.5 -279.5t-372.5 -101.5q-234 0 -380 121t-163 333l158 27q11 -152 118.5 -245t278.5 -93q156 0 247 63t91 171q0 113 -73.5 165.5t-291.5 104.5
q-195 47 -300.5 103t-146 128.5t-40.5 186.5q0 180 130 284.5t359 104.5t365.5 -125t138.5 -332l-158 -24q-9 161 -100 249t-256 88q-149 0 -234 -62.5t-85 -166.5t67.5 -160t259.5 -102z" />
    <glyph glyph-name="sacute" unicode="&#x15b;" horiz-adv-x="1007" 
d="M795 1462l-246 -258h-131l190 258h187zM518 608q82 -22 138 -41t102 -41.5t73 -44.5t45.5 -52t25.5 -64t7 -80q0 -141 -102.5 -218t-282.5 -77q-94 0 -172.5 21t-139.5 63t-96 111t-38 159l158 21q14 -250 296 -250q226 0 226 153q0 76 -58.5 116.5t-222.5 80.5
q-103 25 -165.5 49t-108.5 60.5t-64 86.5t-18 125q0 123 102 204t279 81q175 0 282 -92.5t113 -280.5l-149 -20q-7 145 -68 207.5t-188 62.5q-107 -3 -166.5 -46t-59.5 -120q0 -66 50.5 -99.5t201.5 -74.5z" />
    <glyph glyph-name="Scedilla" unicode="&#x15e;" horiz-adv-x="1245" 
d="M1130 371q0 -168 -123 -269t-339 -110l-66 -103q104 -3 157.5 -46.5t55.5 -118.5q1 -87 -55 -131t-154 -44q-121 0 -192 58l55 86q65 -45 137 -45q49 0 75 22.5t24 59.5q-1 39 -39 60.5t-99 21.5q-5 0 -35 -5l-24 72l72 113q-217 11 -351 130.5t-151 321.5l158 27
q11 -152 118.5 -245t278.5 -93q156 0 247 63t91 171q0 113 -73.5 165.5t-291.5 104.5q-195 47 -300.5 103t-146 128.5t-40.5 186.5q0 180 130 284.5t359 104.5t365.5 -125t138.5 -332l-158 -24q-9 161 -100 249t-256 88q-149 0 -234 -62.5t-85 -166.5t67.5 -160t259.5 -102
q208 -50 321.5 -109.5t158 -135.5t44.5 -193z" />
    <glyph glyph-name="scedilla" unicode="&#x15f;" horiz-adv-x="1007" 
d="M524 -10h-6l-45 -70q103 -3 157 -47t56 -119q1 -87 -54.5 -130.5t-154.5 -43.5q-121 0 -192 58l55 86q67 -46 137 -46q49 0 74.5 22t23.5 60q-1 39 -38.5 60.5t-98.5 21.5q-11 0 -35 -4l-24 72l55 86q-159 20 -255.5 107t-100.5 241l158 21q14 -250 296 -250
q226 0 226 153q0 76 -58.5 116.5t-222.5 80.5q-103 25 -165.5 49t-108.5 60.5t-64 86.5t-18 125q0 123 102 204t279 81q175 0 282 -92.5t113 -280.5l-149 -20q-7 145 -68 207.5t-188 62.5q-107 -3 -166.5 -46t-59.5 -120q0 -66 50.5 -99.5t201.5 -74.5q82 -22 138 -41
t102 -41.5t73 -44.5t45.5 -52t25.5 -64t7 -80q0 -141 -102.5 -218t-282.5 -77z" />
    <glyph glyph-name="Scaron" unicode="&#x160;" horiz-adv-x="1245" 
d="M696 1556h-159l-232 259h166l145 -166l146 166h166zM606 809q208 -50 321.5 -109.5t158 -135.5t44.5 -193q0 -178 -136.5 -279.5t-372.5 -101.5q-234 0 -380 121t-163 333l158 27q11 -152 118.5 -245t278.5 -93q156 0 247 63t91 171q0 113 -73.5 165.5t-291.5 104.5
q-195 47 -300.5 103t-146 128.5t-40.5 186.5q0 180 130 284.5t359 104.5t365.5 -125t138.5 -332l-158 -24q-9 161 -100 249t-256 88q-149 0 -234 -62.5t-85 -166.5t67.5 -160t259.5 -102z" />
    <glyph glyph-name="scaron" unicode="&#x161;" horiz-adv-x="1007" 
d="M573 1204h-159l-232 258h166l146 -166l145 166h166zM518 608q82 -22 138 -41t102 -41.5t73 -44.5t45.5 -52t25.5 -64t7 -80q0 -141 -102.5 -218t-282.5 -77q-94 0 -172.5 21t-139.5 63t-96 111t-38 159l158 21q14 -250 296 -250q226 0 226 153q0 76 -58.5 116.5
t-222.5 80.5q-103 25 -165.5 49t-108.5 60.5t-64 86.5t-18 125q0 123 102 204t279 81q175 0 282 -92.5t113 -280.5l-149 -20q-7 145 -68 207.5t-188 62.5q-107 -3 -166.5 -46t-59.5 -120q0 -66 50.5 -99.5t201.5 -74.5z" />
    <glyph glyph-name="uni0162" unicode="&#x162;" horiz-adv-x="1216" 
d="M686 0h-27l-71 -111q104 -3 157.5 -46.5t55.5 -118.5q1 -87 -55 -131t-154 -44q-122 0 -193 58l56 86q65 -45 137 -45q49 0 74.5 22t23.5 60q-1 39 -38.5 60.5t-98.5 21.5q-5 0 -35 -5l-24 72l77 121h-36v1290h-494v144h1135v-144h-490v-1290z" />
    <glyph glyph-name="uni0163" unicode="&#x163;" horiz-adv-x="788" 
d="M686 33q-95 -43 -176 -45l-45 -70q103 -3 157 -47t56 -119q1 -87 -54.5 -130.5t-154.5 -43.5q-123 0 -193 57l56 86q65 -45 137 -45q49 0 74.5 22t23.5 60q-1 39 -38.5 60.5t-98.5 21.5q-11 0 -35 -4l-24 72l55 86q-190 32 -190 256v665h-175v129h175v281h145v-281h289
v-129h-289v-622q0 -86 26.5 -127t98.5 -41q89 0 180 47v-139z" />
    <glyph glyph-name="Tcaron" unicode="&#x164;" horiz-adv-x="1216" 
d="M688 1556h-160l-231 259h166l145 -166l146 166h166zM1176 1434v-144h-490v-1290h-151v1290h-494v144h1135z" />
    <glyph glyph-name="tcaron" unicode="&#x165;" horiz-adv-x="788" 
d="M506 125q89 0 180 47v-139q-100 -45 -180 -45q-143 0 -206.5 65.5t-63.5 196.5v665h-175v129h175v281h145v-281h289v-129h-289v-622q0 -86 26.5 -127t98.5 -41zM623 1325l-62 -217h-86v217h148z" />
    <glyph glyph-name="Tbar" unicode="&#x166;" horiz-adv-x="1216" 
d="M1176 1290h-490v-454h262v-144h-262v-692h-151v692h-267v144h267v454h-494v144h1135v-144z" />
    <glyph glyph-name="tbar" unicode="&#x167;" horiz-adv-x="788" 
d="M506 125q89 0 180 47v-139q-100 -45 -180 -45q-143 0 -206.5 65.5t-63.5 196.5v323h-175v123h175v219h-175v129h175v281h145v-281h289v-129h-289v-219h289v-123h-289v-280q0 -86 26.5 -127t98.5 -41z" />
    <glyph glyph-name="Umacron" unicode="&#x16a;" horiz-adv-x="1323" 
d="M889 1704v-143h-455v143h455zM1038 1434h152v-963q0 -224 -141.5 -352.5t-389.5 -128.5q-246 0 -386 128.5t-140 352.5v963h152v-942q-2 -168 97.5 -263.5t276.5 -95.5t278 96t101 263v942z" />
    <glyph glyph-name="umacron" unicode="&#x16b;" 
d="M788 1352v-144h-454v144h454zM862 1044h146v-1044h-146v215q-88 -225 -346 -225q-186 0 -284.5 100.5t-98.5 286.5v667h146v-649q0 -148 71 -212t207 -64t220.5 96t84.5 250v579z" />
    <glyph glyph-name="Uring" unicode="&#x16e;" horiz-adv-x="1323" 
d="M662 1534q-75 0 -128 52.5t-53 127.5q0 74 53 126t128 52q74 0 126 -52t52 -126q0 -75 -52 -127.5t-126 -52.5zM662 1798q-35 0 -61 -25t-26 -59q0 -35 26 -60.5t61 -25.5q34 0 58.5 25.5t24.5 60.5q0 34 -24.5 59t-58.5 25zM1038 1434h152v-963q0 -224 -141.5 -352.5
t-389.5 -128.5q-246 0 -386 128.5t-140 352.5v963h152v-942q-2 -168 97.5 -263.5t276.5 -95.5t278 96t101 263v942z" />
    <glyph glyph-name="uring" unicode="&#x16f;" 
d="M561 1182q-75 0 -127.5 52.5t-52.5 127.5q0 74 52.5 126t127.5 52q73 0 125.5 -52t52.5 -126q0 -75 -52 -127.5t-126 -52.5zM561 1446q-35 0 -60.5 -25t-25.5 -59q0 -35 25.5 -60.5t60.5 -25.5q34 0 59 25.5t25 60.5q0 34 -25 59t-59 25zM862 1044h146v-1044h-146v215
q-88 -225 -346 -225q-186 0 -284.5 100.5t-98.5 286.5v667h146v-649q0 -148 71 -212t207 -64t220.5 96t84.5 250v579z" />
    <glyph glyph-name="Uhungarumlaut" unicode="&#x170;" horiz-adv-x="1323" 
d="M725 1815l-246 -259h-131l191 259h186zM797 1556h-131l190 259h186zM1038 1434h152v-963q0 -224 -141.5 -352.5t-389.5 -128.5q-246 0 -386 128.5t-140 352.5v963h152v-942q-2 -168 97.5 -263.5t276.5 -95.5t278 96t101 263v942z" />
    <glyph glyph-name="uhungarumlaut" unicode="&#x171;" 
d="M625 1462l-246 -258h-131l190 258h187zM696 1204h-131l191 258h186zM862 1044h146v-1044h-146v215q-88 -225 -346 -225q-186 0 -284.5 100.5t-98.5 286.5v667h146v-649q0 -148 71 -212t207 -64t220.5 96t84.5 250v579z" />
    <glyph glyph-name="Uogonek" unicode="&#x172;" horiz-adv-x="1323" 
d="M1038 1434h152v-963q0 -194 -108.5 -318t-301.5 -155q-128 -65 -176 -103q-81 -64 -82 -137q-1 -46 27 -74t72 -28q72 0 137 45l55 -86q-70 -57 -192 -57q-100 0 -155.5 54.5t-53.5 139.5q1 78 47.5 134.5t128.5 105.5q-214 20 -334.5 146.5t-120.5 332.5v963h152v-942
q-2 -168 97.5 -263.5t276.5 -95.5t278 96t101 263v942z" />
    <glyph glyph-name="uogonek" unicode="&#x173;" 
d="M983 -299l55 -86q-70 -57 -192 -57q-100 0 -155.5 54.5t-53.5 139.5q1 47 19 87.5t52 73.5t69.5 57t84.5 50v195q-88 -225 -346 -225q-186 0 -284.5 100.5t-98.5 286.5v667h146v-649q0 -148 71 -212t207 -64t220.5 96t84.5 250v579h146v-1044q-33 -17 -43 -22t-42 -22
t-45.5 -26.5t-39 -27.5t-37 -32t-26.5 -33t-21 -38.5t-6 -40.5q-1 -46 26.5 -74t71.5 -28q72 0 137 45z" />
    <glyph glyph-name="Wcircumflex" unicode="&#x174;" horiz-adv-x="1861" 
d="M924 1722l-146 -166h-166l232 259h160l231 -259h-166zM1657 1434h164l-383 -1434h-174l-283 1071q-29 110 -49 213q-29 -132 -51 -213l-283 -1071h-174l-383 1434h164l250 -973q40 -150 57 -268q21 126 59 268l252 973h215l252 -973q41 -152 60 -268q17 118 57 268z" />
    <glyph glyph-name="wcircumflex" unicode="&#x175;" horiz-adv-x="1540" 
d="M729 1370l-145 -166h-166l231 258h160l231 -258h-166zM1360 1044h149l-313 -1044h-149l-277 864l-276 -864h-150l-313 1044h155l176 -626q17 -63 54 -223l272 849h164l272 -849q34 147 54 221z" />
    <glyph glyph-name="Ycircumflex" unicode="&#x176;" horiz-adv-x="1316" 
d="M659 1722l-145 -166h-166l232 259h159l232 -259h-166zM1102 1434h174l-541 -832v-602h-151v602l-543 832h180l441 -678z" />
    <glyph glyph-name="ycircumflex" unicode="&#x177;" horiz-adv-x="1005" 
d="M504 1370l-146 -166h-165l231 258h160l231 -258h-166zM819 1044h156l-400 -1044l-47 -129q-37 -92 -73 -141t-91.5 -74t-142.5 -25q-103 0 -178 52v139q90 -53 180 -53q74 0 109 31t67 114l31 80l-399 1050h155l252 -679q43 -108 66 -189q22 79 67 199z" />
    <glyph glyph-name="Ydieresis" unicode="&#x178;" horiz-adv-x="1316" 
d="M598 1726v-165h-164v165h164zM885 1726v-165h-164v165h164zM1102 1434h174l-541 -832v-602h-151v602l-543 832h180l441 -678z" />
    <glyph glyph-name="Zacute" unicode="&#x179;" horiz-adv-x="1204" 
d="M928 1815l-246 -259h-131l190 259h187zM485 143h596v-143h-995v135l655 975q95 136 136 186q-117 -6 -224 -6h-520v144h934v-121l-664 -987q-22 -28 -68.5 -92t-72.5 -97q117 6 223 6z" />
    <glyph glyph-name="zacute" unicode="&#x17a;" horiz-adv-x="964" 
d="M784 1462l-245 -258h-131l190 258h186zM397 133h484v-133h-799v125l518 670q56 74 102 120q-70 -4 -104 -4h-496v133h766v-124l-479 -619q-85 -111 -141 -174q77 6 149 6z" />
    <glyph glyph-name="Zdotaccent" unicode="&#x17b;" horiz-adv-x="1204" 
d="M709 1726v-165h-164v165h164zM485 143h596v-143h-995v135l655 975q95 136 136 186q-117 -6 -224 -6h-520v144h934v-121l-664 -987q-22 -28 -68.5 -92t-72.5 -97q117 6 223 6z" />
    <glyph glyph-name="zdotaccent" unicode="&#x17c;" horiz-adv-x="964" 
d="M565 1374v-166h-164v166h164zM397 133h484v-133h-799v125l518 670q56 74 102 120q-70 -4 -104 -4h-496v133h766v-124l-479 -619q-85 -111 -141 -174q77 6 149 6z" />
    <glyph glyph-name="Zcaron" unicode="&#x17d;" horiz-adv-x="1204" 
d="M707 1556h-160l-232 259h166l146 -166l145 166h166zM485 143h596v-143h-995v135l655 975q95 136 136 186q-117 -6 -224 -6h-520v144h934v-121l-664 -987q-22 -28 -68.5 -92t-72.5 -97q117 6 223 6z" />
    <glyph glyph-name="zcaron" unicode="&#x17e;" horiz-adv-x="964" 
d="M563 1204h-160l-231 258h166l145 -166l146 166h166zM397 133h484v-133h-799v125l518 670q56 74 102 120q-70 -4 -104 -4h-496v133h766v-124l-479 -619q-85 -111 -141 -174q77 6 149 6z" />
    <glyph glyph-name="florin" unicode="&#x192;" horiz-adv-x="1181" 
d="M930 1290q-133 0 -210 -89t-81 -253l-6 -133h450v-143h-456q-8 -165 -11 -189q-4 -234 -120.5 -360.5t-321.5 -126.5h-70v143h70q131 0 205 87.5t86 254.5q2 31 5 95.5t5 95.5h-371v143h377l6 131q11 234 125.5 361t317.5 127h153v-144h-153z" />
    <glyph glyph-name="uni01CD" unicode="&#x1cd;" horiz-adv-x="1439" 
d="M795 1556h-160l-232 259h166l146 -166l145 166h166zM1257 0l-176 416h-725l-174 -416h-162l611 1434h172l616 -1434h-162zM418 559h602l-168 397q-33 84 -135 324q-117 -282 -135 -330z" />
    <glyph glyph-name="uni01CE" unicode="&#x1ce;" horiz-adv-x="1085" 
d="M631 1204h-160l-231 258h166l145 -166l145 166h166zM551 1071q196 0 298.5 -98.5t102.5 -288.5v-684h-145v219q-58 -104 -162.5 -166.5t-214.5 -62.5q-156 0 -247 72t-91 210q0 267 377 334l338 62v18q0 126 -66 191t-194 65q-132 0 -207.5 -71.5t-75.5 -196.5l-145 20
q0 175 115 276t317 101zM453 119q81 0 161 31.5t136.5 95t56.5 143.5v156l-295 -51q-146 -26 -206 -75.5t-60 -135.5q0 -81 54.5 -122.5t152.5 -41.5z" />
    <glyph glyph-name="uni01CF" unicode="&#x1cf;" horiz-adv-x="438" 
d="M365 1815h165l-231 -259h-160l-231 259h166l145 -166zM143 0v1434h152v-1434h-152z" />
    <glyph glyph-name="uni01D0" unicode="&#x1d0;" horiz-adv-x="432" 
d="M362 1462h166l-231 -258h-160l-231 258h166l145 -166zM143 0v1044h146v-1044h-146z" />
    <glyph glyph-name="uni01D1" unicode="&#x1d1;" horiz-adv-x="1513" 
d="M838 1556h-160l-232 259h166l146 -166l145 166h166zM758 1444q305 0 479 -193.5t174 -533.5t-174 -533.5t-479 -193.5q-306 0 -481 193.5t-175 533.5t175 533.5t481 193.5zM758 133q230 0 361.5 156t131.5 426q0 274 -131.5 429.5t-361.5 155.5q-231 0 -363.5 -156
t-132.5 -429q0 -270 133 -426t363 -156z" />
    <glyph glyph-name="uni01D2" unicode="&#x1d2;" horiz-adv-x="1200" 
d="M680 1204h-160l-231 258h166l145 -166l145 166h166zM600 1071q228 -2 363 -144.5t135 -398.5q0 -245 -131 -391t-367 -147q-228 2 -363 143.5t-135 394.5q0 162 57.5 283.5t170.5 190t270 69.5zM600 119q159 2 253.5 109.5t94.5 299.5q0 191 -91.5 303t-256.5 111
q-159 -2 -253 -111t-93 -303q2 -189 93 -299.5t253 -109.5z" />
    <glyph glyph-name="uni01D3" unicode="&#x1d3;" horiz-adv-x="1323" 
d="M741 1556h-159l-232 259h166l146 -166l145 166h166zM1038 1434h152v-963q0 -224 -141.5 -352.5t-389.5 -128.5q-246 0 -386 128.5t-140 352.5v963h152v-942q-2 -168 97.5 -263.5t276.5 -95.5t278 96t101 263v942z" />
    <glyph glyph-name="uni01D4" unicode="&#x1d4;" 
d="M641 1204h-160l-231 258h166l145 -166l146 166h165zM862 1044h146v-1044h-146v215q-88 -225 -346 -225q-186 0 -284.5 100.5t-98.5 286.5v667h146v-649q0 -148 71 -212t207 -64t220.5 96t84.5 250v579z" />
    <glyph glyph-name="uni0218" unicode="&#x218;" horiz-adv-x="1245" 
d="M606 809q208 -50 321.5 -109.5t158 -135.5t44.5 -193q0 -178 -136.5 -279.5t-372.5 -101.5q-234 0 -380 121t-163 333l158 27q11 -152 118.5 -245t278.5 -93q156 0 247 63t91 171q0 113 -73.5 165.5t-291.5 104.5q-195 47 -300.5 103t-146 128.5t-40.5 186.5
q0 180 130 284.5t359 104.5t365.5 -125t138.5 -332l-158 -24q-9 161 -100 249t-256 88q-149 0 -234 -62.5t-85 -166.5t67.5 -160t259.5 -102zM535 -307v186h174v-192q0 -99 -44.5 -163t-129.5 -83v74q45 12 61 50t16 128h-77z" />
    <glyph glyph-name="uni0219" unicode="&#x219;" horiz-adv-x="1007" 
d="M518 608q82 -22 138 -41t102 -41.5t73 -44.5t45.5 -52t25.5 -64t7 -80q0 -141 -102.5 -218t-282.5 -77q-94 0 -172.5 21t-139.5 63t-96 111t-38 159l158 21q14 -250 296 -250q226 0 226 153q0 76 -58.5 116.5t-222.5 80.5q-103 25 -165.5 49t-108.5 60.5t-64 86.5
t-18 125q0 123 102 204t279 81q175 0 282 -92.5t113 -280.5l-149 -20q-7 145 -68 207.5t-188 62.5q-107 -3 -166.5 -46t-59.5 -120q0 -66 50.5 -99.5t201.5 -74.5zM406 -276v186h174v-193q0 -99 -44.5 -162.5t-129.5 -82.5v73q45 12 61 50t16 129h-77z" />
    <glyph glyph-name="uni021A" unicode="&#x21a;" horiz-adv-x="1216" 
d="M1176 1434v-144h-490v-1290h-151v1290h-494v144h1135zM520 -307v186h174v-192q0 -99 -44.5 -163t-129.5 -83v74q45 12 61.5 50t16.5 128h-78z" />
    <glyph glyph-name="uni021B" unicode="&#x21b;" horiz-adv-x="788" 
d="M506 125q89 0 180 47v-139q-100 -45 -180 -45q-143 0 -206.5 65.5t-63.5 196.5v665h-175v129h175v281h145v-281h289v-129h-289v-622q0 -86 26.5 -127t98.5 -41zM397 -279v187h174v-193q0 -99 -44.5 -162.5t-129.5 -82.5v73q45 12 61.5 50t16.5 128h-78z" />
    <glyph glyph-name="uni0237" unicode="&#x237;" horiz-adv-x="456" 
d="M168 1044h145v-1173q0 -118 -63.5 -179t-186.5 -61q-60 0 -118 25v139q53 -26 118 -26q55 0 80 33.5t25 111.5v1130z" />
    <glyph glyph-name="circumflex" unicode="&#x2c6;" horiz-adv-x="815" 
d="M719 1288h-166l-145 166l-146 -166h-166l232 258h159z" />
    <glyph glyph-name="caron" unicode="&#x2c7;" horiz-adv-x="815" 
d="M553 1546h166l-232 -258h-159l-232 258h166l146 -166z" />
    <glyph glyph-name="breve" unicode="&#x2d8;" horiz-adv-x="724" 
d="M362 1288q-116 0 -191 71t-75 187h142q0 -71 33 -110t91 -39t91.5 39t33.5 110h142q0 -115 -75.5 -186.5t-191.5 -71.5z" />
    <glyph glyph-name="dotaccent" unicode="&#x2d9;" horiz-adv-x="356" 
d="M96 1292v166h164v-166h-164z" />
    <glyph glyph-name="ring" unicode="&#x2da;" horiz-adv-x="550" 
d="M276 1266q-75 0 -127.5 52.5t-52.5 127.5q0 74 52.5 126t127.5 52q74 0 126.5 -52.5t52.5 -125.5q0 -75 -52.5 -127.5t-126.5 -52.5zM276 1360q34 0 59 25.5t25 60.5q0 34 -25 59t-59 25q-35 0 -60.5 -25t-25.5 -59q0 -35 25.5 -60.5t60.5 -25.5z" />
    <glyph glyph-name="ogonek" unicode="&#x2db;" horiz-adv-x="593" 
d="M305 -430q-100 0 -155.5 54.5t-53.5 139.5q0 31 9.5 60.5t22 51.5t37.5 46.5t43.5 39.5t53.5 36.5t54 31.5t59 31t55 29l37 -78q-130 -66 -178 -104q-81 -65 -82 -137q-1 -46 26.5 -74.5t71.5 -28.5q72 0 137 45l56 -86q-70 -57 -193 -57z" />
    <glyph glyph-name="tilde" unicode="&#x2dc;" horiz-adv-x="706" 
d="M446 1292q-32 0 -59.5 15t-44 33.5t-38.5 33.5t-44 15q-29 0 -50.5 -24.5t-21.5 -61.5h-92q0 95 42.5 147.5t121.5 52.5q34 0 64 -15t47.5 -33t39 -33t42.5 -15q26 0 45.5 24.5t19.5 61.5h92q0 -95 -42.5 -148t-121.5 -53z" />
    <glyph glyph-name="hungarumlaut" unicode="&#x2dd;" horiz-adv-x="886" 
d="M96 1288l191 258h186l-246 -258h-131zM414 1288l190 258h187l-246 -258h-131z" />
    <glyph glyph-name="gravecomb" unicode="&#x300;" horiz-adv-x="0" 
d="M-96 1288h-131l-246 258h186z" />
    <glyph glyph-name="acutecomb" unicode="&#x301;" horiz-adv-x="0" 
d="M-473 1288l190 258h187l-246 -258h-131z" />
    <glyph glyph-name="uni0302" unicode="&#x302;" horiz-adv-x="0" 
d="M-96 1288h-166l-146 166l-145 -166h-166l232 258h159z" />
    <glyph glyph-name="tildecomb" unicode="&#x303;" horiz-adv-x="0" 
d="M-260 1292q-32 0 -59.5 15t-44 33.5t-38.5 33.5t-44 15q-29 0 -50.5 -24.5t-21.5 -61.5h-92q0 95 42.5 147.5t121.5 52.5q34 0 64 -15t47 -33t38.5 -33t42.5 -15q26 0 46 24.5t20 61.5h92q0 -95 -42.5 -148t-121.5 -53z" />
    <glyph glyph-name="uni0304" unicode="&#x304;" horiz-adv-x="0" 
d="M-551 1292v144h455v-144h-455z" />
    <glyph glyph-name="uni0306" unicode="&#x306;" horiz-adv-x="0" 
d="M-362 1288q-116 0 -191.5 71.5t-75.5 186.5h142q0 -71 33.5 -110t91.5 -39t91 39t33 110h142q0 -116 -75 -187t-191 -71z" />
    <glyph glyph-name="uni0307" unicode="&#x307;" horiz-adv-x="0" 
d="M-260 1292v166h164v-166h-164z" />
    <glyph glyph-name="uni0308" unicode="&#x308;" horiz-adv-x="0" 
d="M-547 1292v166h164v-166h-164zM-260 1292v166h164v-166h-164z" />
    <glyph glyph-name="uni030A" unicode="&#x30a;" horiz-adv-x="0" 
d="M-274 1266q-75 0 -128 52.5t-53 127.5q0 74 53 126t128 52q74 0 126 -52t52 -126q0 -75 -52 -127.5t-126 -52.5zM-274 1360q34 0 59 25.5t25 60.5q0 34 -25 59t-59 25q-35 0 -60.5 -25t-25.5 -59q0 -35 25.5 -60.5t60.5 -25.5z" />
    <glyph glyph-name="uni030B" unicode="&#x30b;" horiz-adv-x="0" 
d="M-791 1288l191 258h186l-245 -258h-132zM-473 1288l190 258h187l-246 -258h-131z" />
    <glyph glyph-name="uni030C" unicode="&#x30c;" horiz-adv-x="0" 
d="M-262 1546h166l-232 -258h-159l-232 258h166l145 -166z" />
    <glyph glyph-name="uni0312" unicode="&#x312;" horiz-adv-x="0" 
d="M-96 1546l-191 -258h-186l246 258h131z" />
    <glyph glyph-name="uni0326" unicode="&#x326;" horiz-adv-x="0" 
d="M-270 -518v74q45 12 61 50t16 128h-77v186h174v-192q0 -99 -44.5 -163t-129.5 -83z" />
    <glyph glyph-name="uni0327" unicode="&#x327;" horiz-adv-x="0" 
d="M-96 -256q1 -87 -54.5 -130.5t-154.5 -43.5q-123 0 -193 57l56 86q65 -45 137 -45q49 0 74.5 22t23.5 60q-1 39 -38.5 60.5t-98.5 21.5q-11 0 -35 -4l-24 72l94 147h90l-90 -137q103 -3 157 -47t56 -119z" />
    <glyph glyph-name="uni0328" unicode="&#x328;" horiz-adv-x="0" 
d="M-289 -430q-100 0 -155.5 54.5t-53.5 139.5q0 31 9.5 60.5t22 51.5t37.5 46.5t43.5 39.5t53.5 36.5t54 31.5t59 31t55 29l37 -78q-130 -66 -178 -104q-81 -65 -82 -137q-1 -46 26.5 -74.5t71.5 -28.5q72 0 137 45l56 -86q-70 -57 -193 -57z" />
    <glyph glyph-name="uni0394" unicode="&#x394;" horiz-adv-x="1390" 
d="M778 1434l576 -1434h-1317l569 1434h172zM254 143h881l-443 1121z" />
    <glyph glyph-name="uni03A9" unicode="&#x3a9;" horiz-adv-x="1671" 
d="M1184 143h405v-143h-602v141h-2h2v2h2q342 150 342 582q0 272 -131 423.5t-362 151.5q-232 0 -364 -151.5t-132 -423.5q0 -422 342 -582h2v-2h2h-2v-141h-604v143h407q-307 166 -307 584q0 338 174.5 527.5t481.5 189.5q306 0 479.5 -189.5t173.5 -527.5
q0 -418 -307 -584z" />
    <glyph glyph-name="uni03BC" unicode="&#x3bc;" horiz-adv-x="1200" 
d="M936 377q0 -158 20.5 -208t100.5 -50v-129q-177 0 -223 123q-75 -123 -281 -123q-115 0 -176.5 35t-87.5 108v-545h-146v1456h146v-673q0 -138 66 -194t198 -58q132 2 198 58t66 194v673h121z" />
    <glyph glyph-name="pi" unicode="&#x3c0;" horiz-adv-x="1359" 
d="M1237 1044v-129h-195v-917h-145v917h-434v-917h-146v917h-194v129h1114z" />
    <glyph glyph-name="Wgrave" unicode="&#x1e80;" horiz-adv-x="1861" 
d="M999 1556h-131l-245 259h186zM1657 1434h164l-383 -1434h-174l-283 1071q-29 110 -49 213q-29 -132 -51 -213l-283 -1071h-174l-383 1434h164l250 -973q40 -150 57 -268q21 126 59 268l252 973h215l252 -973q41 -152 60 -268q17 118 57 268z" />
    <glyph glyph-name="wgrave" unicode="&#x1e81;" horiz-adv-x="1540" 
d="M805 1204h-131l-246 258h186zM1360 1044h149l-313 -1044h-149l-277 864l-276 -864h-150l-313 1044h155l176 -626q17 -63 54 -223l272 849h164l272 -849q34 147 54 221z" />
    <glyph glyph-name="Wacute" unicode="&#x1e82;" horiz-adv-x="1861" 
d="M1225 1815l-246 -259h-131l190 259h187zM1657 1434h164l-383 -1434h-174l-283 1071q-29 110 -49 213q-29 -132 -51 -213l-283 -1071h-174l-383 1434h164l250 -973q40 -150 57 -268q21 126 59 268l252 973h215l252 -973q41 -152 60 -268q17 118 57 268z" />
    <glyph glyph-name="wacute" unicode="&#x1e83;" horiz-adv-x="1540" 
d="M1030 1462l-246 -258h-131l191 258h186zM1360 1044h149l-313 -1044h-149l-277 864l-276 -864h-150l-313 1044h155l176 -626q17 -63 54 -223l272 849h164l272 -849q34 147 54 221z" />
    <glyph glyph-name="Wdieresis" unicode="&#x1e84;" horiz-adv-x="1861" 
d="M862 1726v-165h-164v165h164zM1149 1726v-165h-164v165h164zM1657 1434h164l-383 -1434h-174l-283 1071q-29 110 -49 213q-29 -132 -51 -213l-283 -1071h-174l-383 1434h164l250 -973q40 -150 57 -268q21 126 59 268l252 973h215l252 -973q41 -152 60 -268q17 118 57 268
z" />
    <glyph glyph-name="wdieresis" unicode="&#x1e85;" horiz-adv-x="1540" 
d="M668 1374v-166h-164v166h164zM954 1374v-166h-163v166h163zM1360 1044h149l-313 -1044h-149l-277 864l-276 -864h-150l-313 1044h155l176 -626q17 -63 54 -223l272 849h164l272 -849q34 147 54 221z" />
    <glyph glyph-name="uni1E9E" unicode="&#x1e9e;" horiz-adv-x="2469" 
d="M606 809q208 -50 321.5 -109.5t158 -135.5t44.5 -193q0 -178 -136.5 -279.5t-372.5 -101.5q-234 0 -380 121t-163 333l158 27q11 -152 118.5 -245t278.5 -93q156 0 247 63t91 171q0 113 -73.5 165.5t-291.5 104.5q-195 47 -300.5 103t-146 128.5t-40.5 186.5
q0 180 130 284.5t359 104.5t365.5 -125t138.5 -332l-158 -24q-9 161 -100 249t-256 88q-149 0 -234 -62.5t-85 -166.5t67.5 -160t259.5 -102zM1831 809q208 -50 321.5 -109.5t158 -135.5t44.5 -193q0 -178 -137 -279.5t-373 -101.5q-234 0 -379.5 121t-162.5 333l157 27
q11 -152 119 -245t279 -93q156 0 246.5 62.5t90.5 171.5q0 113 -73.5 165.5t-290.5 104.5q-195 47 -300.5 103t-146.5 128.5t-41 186.5q0 180 130.5 284.5t359.5 104.5t365.5 -125t138.5 -332l-158 -24q-9 161 -100 249t-256 88q-149 0 -234.5 -62.5t-85.5 -166.5t67.5 -160
t260.5 -102z" />
    <glyph glyph-name="Ygrave" unicode="&#x1ef2;" horiz-adv-x="1316" 
d="M735 1556h-131l-246 259h187zM1102 1434h174l-541 -832v-602h-151v602l-543 832h180l441 -678z" />
    <glyph glyph-name="ygrave" unicode="&#x1ef3;" horiz-adv-x="1005" 
d="M580 1204h-131l-246 258h186zM819 1044h156l-400 -1044l-47 -129q-37 -92 -73 -141t-91.5 -74t-142.5 -25q-103 0 -178 52v139q90 -53 180 -53q74 0 109 31t67 114l31 80l-399 1050h155l252 -679q43 -108 66 -189q22 79 67 199z" />
    <glyph glyph-name="endash" unicode="&#x2013;" horiz-adv-x="1288" 
d="M143 506v129h1002v-129h-1002z" />
    <glyph glyph-name="emdash" unicode="&#x2014;" horiz-adv-x="1828" 
d="M143 506v129h1543v-129h-1543z" />
    <glyph glyph-name="quoteleft" unicode="&#x2018;" horiz-adv-x="378" 
d="M102 995v193q0 99 44.5 163t129.5 83v-74q-45 -12 -61 -50t-16 -128h77v-187h-174z" />
    <glyph glyph-name="quoteright" unicode="&#x2019;" horiz-adv-x="368" 
d="M266 1434v-193q0 -99 -44.5 -163t-129.5 -83v74q45 12 61.5 50t16.5 128h-78v187h174z" />
    <glyph glyph-name="quotesinglbase" unicode="&#x201a;" horiz-adv-x="460" 
d="M143 -252v74q45 12 61.5 50t16.5 128h-78v186h174v-192q0 -99 -44.5 -163t-129.5 -83z" />
    <glyph glyph-name="quotedblleft" unicode="&#x201c;" horiz-adv-x="665" 
d="M102 995v193q0 99 44.5 163t129.5 83v-74q-45 -12 -61 -50t-16 -128h77v-187h-174zM389 995v193q0 99 44.5 163t129.5 83v-74q-45 -12 -61.5 -50t-16.5 -128h78v-187h-174z" />
    <glyph glyph-name="quotedblright" unicode="&#x201d;" horiz-adv-x="696" 
d="M143 995v74q45 12 61.5 50t16.5 128h-78v187h174v-193q0 -99 -44.5 -163t-129.5 -83zM430 995v74q45 12 61.5 50t16.5 128h-78v187h174v-193q0 -99 -44.5 -163t-129.5 -83z" />
    <glyph glyph-name="quotedblbase" unicode="&#x201e;" horiz-adv-x="667" 
d="M102 -252v74q45 12 61.5 50t16.5 128h-78v186h174v-192q0 -99 -44.5 -163t-129.5 -83zM391 -252v74q45 12 61.5 50t16.5 128h-78v186h174v-192q0 -99 -44.5 -163t-129.5 -83z" />
    <glyph glyph-name="dagger" unicode="&#x2020;" horiz-adv-x="1120" 
d="M981 1044v-126h-348v-672h-146v672h-348v129h348v387h146v-390h348z" />
    <glyph glyph-name="daggerdbl" unicode="&#x2021;" horiz-adv-x="1120" 
d="M981 1061h-348v-156h348v-127h-348v-532h-146v532h-348v129h348v154h-348v129h348v244h146v-246h348v-127z" />
    <glyph glyph-name="bullet" unicode="&#x2022;" horiz-adv-x="894" 
d="M449 281q-128 0 -217 89t-89 216q0 126 89.5 214.5t216.5 88.5q126 0 214.5 -88.5t88.5 -214.5q0 -127 -88.5 -216t-214.5 -89z" />
    <glyph glyph-name="ellipsis" unicode="&#x2026;" horiz-adv-x="1282" 
d="M143 0v166h164v-166h-164zM559 0v166h164v-166h-164zM975 0v166h164v-166h-164z" />
    <glyph glyph-name="perthousand" unicode="&#x2030;" horiz-adv-x="2521" 
d="M432 657q-137 2 -233.5 108.5t-96.5 283.5q0 173 93 283t237 112q137 2 233.5 -105.5t96.5 -289.5q0 -172 -94 -283t-236 -109zM467 0l666 1434h151l-666 -1434h-151zM432 772q90 2 143.5 69t53.5 208q0 138 -56 210t-141 70q-81 -2 -139 -71.5t-57 -208.5
q1 -135 58 -207t138 -70zM1327 -10q-137 2 -233.5 108t-96.5 283q0 173 93 283t237 112q137 2 233.5 -105.5t96.5 -289.5q0 -172 -94 -282.5t-236 -108.5zM2089 -10q-137 2 -233.5 108t-96.5 283q0 173 93 283t237 112q66 1 125 -24.5t105 -74t73 -125t27 -171.5
q0 -172 -94 -282.5t-236 -108.5zM1327 104q90 2 143.5 69t53.5 208q0 138 -56 210.5t-141 70.5q-81 -2 -139.5 -72t-57.5 -209q1 -135 58.5 -207t138.5 -70zM2089 104q90 2 143.5 69t53.5 208q0 138 -56 210.5t-141 70.5q-83 -2 -140.5 -71.5t-56.5 -209.5q1 -135 58.5 -207
t138.5 -70z" />
    <glyph glyph-name="guilsinglleft" unicode="&#x2039;" horiz-adv-x="751" 
d="M608 973l-307 -451l307 -450h-157l-308 450l308 451h157z" />
    <glyph glyph-name="guilsinglright" unicode="&#x203a;" horiz-adv-x="751" 
d="M301 973l307 -451l-307 -450h-158l308 450l-308 451h158z" />
    <glyph glyph-name="fraction" unicode="&#x2044;" horiz-adv-x="1189" 
d="M0 -12l1044 1446h146l-1045 -1446h-145z" />
    <glyph glyph-name="uni20A9" unicode="&#x20a9;" horiz-adv-x="2066" 
d="M1923 1434l-108 -410h108v-143h-147l-47 -174h194v-144h-233l-150 -563h-174l-149 563h-367l-150 -563h-174l-149 563h-234v144h195l-47 174h-148v143h109l-109 410h164l105 -410h407l107 410h215l106 -410h408l104 410h164zM983 1071l-12 -47h125l-13 47
q-29 110 -49 213q-29 -132 -51 -213zM449 881l45 -174h243l45 174h-333zM887 707h293l-45 174h-203zM1573 707l45 174h-334l45 -174h244zM674 461l26 102h-170l27 -102q40 -150 57 -268q19 116 60 268zM1509 461l27 102h-170l27 -102q38 -142 59 -268q17 118 57 268z" />
    <glyph glyph-name="Euro" unicode="&#x20ac;" horiz-adv-x="1310" 
d="M1083 414l146 -21q-27 -194 -136 -298t-296 -105q-219 0 -351 122t-176 349h-168v143h150q-4 74 -4 113q0 41 2 61h-148v144h160q36 251 166 386.5t348 135.5q186 -1 295.5 -110.5t136.5 -309.5l-145 -20q-24 149 -91 222.5t-196 73.5q-148 0 -236 -97t-118 -281h577
l-22 -144h-567q-2 -20 -2 -63q0 -41 4 -111h540l-22 -143h-498q74 -328 365 -328q127 0 197 68.5t89 212.5z" />
    <glyph glyph-name="uni20B9" unicode="&#x20b9;" horiz-adv-x="1310" 
d="M369 633l815 -633h-236l-817 633v125h453q237 0 268 207h-721v143h717q-37 182 -264 182h-453v144h1030v-144h-248q79 -76 97 -182h151v-143h-149q-18 -157 -119.5 -244.5t-284.5 -87.5h-239z" />
    <glyph glyph-name="uni20BA" unicode="&#x20ba;" horiz-adv-x="1245" 
d="M1153 596q-14 -138 -57.5 -241.5t-107 -170t-154.5 -108t-190 -58.5t-224 -18h-152v477l-166 -65v143l166 66v157l-166 -65v143l166 66v512h152v-453l328 129v-143l-328 -129v-158l328 129v-143l-328 -129v-394q153 2 261.5 32t180 90.5t111.5 144.5t59 204z" />
    <glyph glyph-name="uni20BD" unicode="&#x20bd;" horiz-adv-x="1363" 
d="M860 571l-459 -2v-174h496v-143h-496v-252h-151v252h-148v143h148v174h-148v146h148v719h610q188 0 308 -120t120 -308q0 -191 -120.5 -313t-307.5 -122zM401 1290v-575h435q138 0 215 80t77 211q0 128 -77 206t-215 78h-435z" />
    <glyph glyph-name="uni20BF" unicode="&#x20bf;" horiz-adv-x="1212" 
d="M1120 387q0 -156 -77 -250t-205 -123v-198h-152v184h-186v-184h-152v184h-205v1434h205v163h152v-163h178h8v163h152v-184q124 -37 185.5 -129t61.5 -217q0 -128 -57.5 -212.5t-157.5 -123.5q124 -33 187 -125t63 -219zM664 1290h-369v-499h344q144 0 217.5 70t73.5 181
q0 124 -74 186t-192 62zM694 143q133 0 200 74.5t67 190.5q0 120 -80 179.5t-207 59.5h-379v-504h399z" />
    <glyph glyph-name="uni2116" unicode="&#x2116;" horiz-adv-x="2146" 
d="M1741 846q-127 0 -216 89t-89 216q0 125 88.5 209t216.5 84q127 0 215 -84t88 -209q0 -127 -88.5 -216t-214.5 -89zM1139 506v928h151v-1434h-182l-725 1059q-45 67 -96 162q8 -139 8 -291v-930h-152v1434h179l729 -1076q49 -72 96 -174q-8 226 -8 322zM1741 1321
q-77 0 -129.5 -48t-52.5 -122q0 -77 52.5 -129.5t129.5 -52.5q75 0 127.5 53t52.5 129q0 74 -52 122t-128 48zM1436 475v123h587v-123h-587z" />
    <glyph glyph-name="trademark" unicode="&#x2122;" horiz-adv-x="1921" 
d="M428 754v571h-285v105h705v-105h-285l-4 -571h-131zM987 754v676h234l161 -603l162 603h234v-676h-131l6 604l-176 -604h-189l-170 604v-604h-131z" />
    <glyph glyph-name="oneeighth" unicode="&#x215b;" horiz-adv-x="1767" 
d="M317 606v631l-229 -2v115h229v84h119v-828h-119zM1229 1434h145l-1044 -1446h-146zM1462 440q77 -27 121.5 -83t44.5 -130q0 -107 -82 -173t-217 -66t-218 66t-83 173q0 74 44.5 130.5t123.5 82.5q-68 23 -105.5 70.5t-37.5 110.5q0 100 76 161.5t200 61.5
q123 0 199 -61.5t76 -161.5q0 -62 -37.5 -110t-104.5 -71zM1329 721q-147 0 -147 -100q0 -121 147 -121q146 0 146 121q0 100 -146 100zM1329 111q170 0 170 129q0 135 -170 135q-172 0 -172 -135q0 -129 172 -129z" />
    <glyph glyph-name="threeeighths" unicode="&#x215c;" horiz-adv-x="1957" 
d="M444 588q-132 0 -213.5 82t-87.5 207l131 16q3 -182 172 -182q158 0 158 123q0 129 -141 129h-80v120h47q84 0 114.5 31t30.5 98q0 109 -120 109q-71 0 -111.5 -38.5t-46.5 -111.5l-129 15q8 111 81 184.5t206 73.5q120 0 185 -61.5t65 -155.5q0 -148 -142 -195
q85 -18 129.5 -75.5t44.5 -135.5q0 -93 -81 -163t-210 -70h-2zM1419 1434h146l-1045 -1446h-145zM1653 440q77 -27 121.5 -83t44.5 -130q0 -107 -82 -173t-217 -66t-218 66t-83 173q0 75 44.5 131t122.5 82q-68 23 -105.5 70.5t-37.5 110.5q0 100 76.5 161.5t200.5 61.5
q123 0 198.5 -61.5t75.5 -161.5q0 -63 -37.5 -110.5t-103.5 -70.5zM1520 721q-148 0 -148 -100q0 -121 148 -121q145 0 145 121q0 100 -145 100zM1520 111q170 0 170 129q0 135 -170 135q-172 0 -172 -135q0 -129 172 -129z" />
    <glyph glyph-name="fiveeighths" unicode="&#x215d;" horiz-adv-x="1935" 
d="M737 860q0 -52 -17 -99.5t-51 -87t-91.5 -62.5t-131.5 -23q-144 0 -220.5 78t-82.5 206l129 17q3 -180 174 -180q158 0 158 151q0 77 -41 121.5t-117 44.5q-97 0 -163 -74l-78 52l41 430h444v-115h-338l-18 -205q58 21 112 21q74 0 131.5 -23.5t91.5 -63.5t51 -88
t17 -100zM1397 1434h145l-1044 -1446h-146zM1630 440q77 -27 121.5 -83t44.5 -130q0 -107 -82 -173t-217 -66t-218 66t-83 173q0 74 44.5 130.5t123.5 82.5q-68 23 -105.5 70.5t-37.5 110.5q0 100 76 161.5t200 61.5q123 0 199 -61.5t76 -161.5q0 -62 -37.5 -110t-104.5 -71
zM1497 721q-147 0 -147 -100q0 -121 147 -121q145 0 145 121q0 100 -145 100zM1497 111q170 0 170 129q0 135 -170 135q-172 0 -172 -135q0 -129 172 -129z" />
    <glyph glyph-name="seveneighths" unicode="&#x215e;" horiz-adv-x="1656" 
d="M1118 1434h146l-1045 -1446h-145zM238 614h-136l402 707q-35 -2 -92 -2h-306v115h549v-72zM1352 440q77 -27 121.5 -83t44.5 -130q0 -107 -82 -173t-217 -66t-218 66t-83 173q0 75 44.5 131t122.5 82q-68 23 -105.5 70.5t-37.5 110.5q0 100 76.5 161.5t200.5 61.5
q123 0 198.5 -61.5t75.5 -161.5q0 -63 -37.5 -110.5t-103.5 -70.5zM1219 721q-148 0 -148 -100q0 -121 148 -121q145 0 145 121q0 100 -145 100zM1219 111q170 0 170 129q0 135 -170 135q-172 0 -172 -135q0 -129 172 -129z" />
    <glyph glyph-name="arrowleft" unicode="&#x2190;" horiz-adv-x="1638" 
d="M1536 809l-2 -143l-1165 2l413 -410l-104 -100l-576 573v14l576 574l102 -100l-409 -410h1165z" />
    <glyph glyph-name="arrowup" unicode="&#x2191;" horiz-adv-x="1366" 
d="M1264 858l-101 -102l-409 409v-1165h-144l2 1167l-409 -413l-101 104l574 576h14z" />
    <glyph glyph-name="arrowright" unicode="&#x2192;" horiz-adv-x="1638" 
d="M961 1319l575 -574v-14l-575 -573l-105 100l414 410l-1166 -2l-2 143h1166l-410 410z" />
    <glyph glyph-name="arrowdown" unicode="&#x2193;" horiz-adv-x="1366" 
d="M1163 678l101 -103l-574 -575h-14l-574 575l101 105l409 -414l-2 1168h144v-1166z" />
    <glyph glyph-name="arrowboth" unicode="&#x2194;" horiz-adv-x="2164" 
d="M1487 1319l575 -574v-14l-575 -573l-105 100l414 410h-1427l413 -410l-104 -100l-576 573v14l576 574l102 -100l-409 -410h1423l-410 410z" />
    <glyph glyph-name="arrowupdn" unicode="&#x2195;" horiz-adv-x="983" 
d="M575 266l205 205l101 -102l-369 -371h-14l-396 395l105 101l227 -230v250h-2v404h2v249l-227 -229l-105 100l396 396h14l369 -371l-101 -102l-205 204v-899z" />
    <glyph glyph-name="uni2196" unicode="&#x2196;" horiz-adv-x="1271" 
d="M1169 465l-102 -98l-821 823l2 -582l-146 4v811l9 11h813l2 -144h-580z" />
    <glyph glyph-name="uni2197" unicode="&#x2197;" horiz-adv-x="1271" 
d="M1161 1434l8 -11v-811l-145 -4l2 582l-821 -823l-103 98l824 825h-580l2 144h813z" />
    <glyph glyph-name="uni2198" unicode="&#x2198;" horiz-adv-x="1273" 
d="M1169 821l2 -813l-10 -10l-813 2l-2 143l582 -2l-826 824l101 102l823 -823v577h143z" />
    <glyph glyph-name="uni2199" unicode="&#x2199;" horiz-adv-x="1271" 
d="M1169 967l-821 -822h578v-143l-813 -2l-11 10l2 813l144 2l-2 -581l823 825z" />
    <glyph glyph-name="partialdiff" unicode="&#x2202;" horiz-adv-x="1228" 
d="M502 1444q277 -96 439 -314t149 -489q-15 -301 -141 -476t-345 -175q-224 1 -351 135t-112 352q7 107 54 201.5t116.5 157t153.5 98.5t166 35q105 -2 186 -45t117 -121q-35 194 -169 334.5t-327 197.5zM924 479q11 146 -75 250.5t-216 104.5q-144 0 -237.5 -102
t-104.5 -253q-11 -153 67 -254.5t224 -101.5q156 0 244 100t98 256z" />
    <glyph glyph-name="emptyset" unicode="&#x2205;" horiz-adv-x="1443" 
d="M1300 1006l-147 -148q109 -144 109 -328q0 -110 -42 -210t-114 -172.5t-172.5 -115t-212.5 -42.5q-185 0 -328 108l-147 -149l-103 106l146 146q-109 147 -109 329q0 148 71 272t195.5 196.5t274.5 72.5q187 0 330 -108l145 145zM326 530q0 -127 67 -225l557 557
q-106 72 -229 72q-166 0 -280.5 -118t-114.5 -286zM1116 530q0 121 -65 226l-557 -557q101 -72 227 -72q166 0 280.5 117.5t114.5 285.5z" />
    <glyph glyph-name="product" unicode="&#x220f;" horiz-adv-x="1595" 
d="M1493 1434v-144h-246v-1290h-151v1290h-596v-1290h-152v1290h-246v144h1391z" />
    <glyph glyph-name="summation" unicode="&#x2211;" horiz-adv-x="1196" 
d="M295 -41h799v-143h-992v143l492 666l-492 665v144h971v-144h-778l489 -665z" />
    <glyph glyph-name="minus" unicode="&#x2212;" horiz-adv-x="1333" 
d="M143 459v129l1047 -2v-127h-1047z" />
    <glyph glyph-name="radical" unicode="&#x221a;" horiz-adv-x="1460" 
d="M1358 1434v-144h-309l-482 -1474h-159l-306 811h164l223 -621l447 1428h422z" />
    <glyph glyph-name="infinity" unicode="&#x221e;" horiz-adv-x="1761" 
d="M1264 885q162 0 258 -105.5t96 -263.5q0 -157 -103 -263t-266 -106q-111 0 -194.5 59.5t-175.5 196.5q-102 -145 -180.5 -200.5t-190.5 -55.5q-166 0 -265.5 105.5t-99.5 263.5t101.5 263.5t267.5 105.5q112 0 191.5 -56t179.5 -200q100 138 185 197t196 59zM512 270
q36 0 69 13t57.5 30t56.5 55t51.5 65t58.5 83q-41 64 -70 103t-65.5 75t-74.5 52t-83 16q-109 0 -170 -71t-61 -175t61 -175t170 -71zM1249 270q109 0 170.5 71t61.5 175t-61.5 175t-170.5 71q-43 0 -81.5 -17.5t-76 -56t-64.5 -73.5t-69 -97q34 -51 55.5 -81t52.5 -66.5
t56.5 -55t58.5 -32t68 -13.5z" />
    <glyph glyph-name="integral" unicode="&#x222b;" horiz-adv-x="890" 
d="M102 -184v143q92 0 146.5 64.5t75.5 222.5q24 181 90 760q26 231 114 330.5t260 99.5v-144q-91 0 -144 -63.5t-77 -222.5q-22 -149 -54.5 -435t-37.5 -323q-15 -229 -106.5 -330.5t-266.5 -101.5z" />
    <glyph glyph-name="approxequal" unicode="&#x2248;" horiz-adv-x="1320" 
d="M879 582q-59 0 -110 19.5t-87.5 47.5t-72 56t-78.5 47.5t-91 19.5q-67 0 -109 -47t-42 -125h-146q0 129 80.5 210t216.5 81q64 0 118 -19.5t92 -47.5t72.5 -56.5t76.5 -48t88 -19.5q64 0 104.5 47t40.5 125h146q0 -129 -80.5 -209.5t-218.5 -80.5zM879 127
q-59 0 -110 19.5t-87.5 47.5t-72 56t-78.5 47.5t-91 19.5q-67 0 -109 -47t-42 -125h-146q0 129 80.5 210t216.5 81q64 0 118 -19.5t92 -47.5t72.5 -56t76.5 -47.5t88 -19.5q64 0 104.5 47t40.5 125h146q0 -130 -81 -210.5t-218 -80.5z" />
    <glyph glyph-name="notequal" unicode="&#x2260;" horiz-adv-x="1265" 
d="M1122 643h-377l-79 -248h456v-127h-497l-101 -315l-121 45l86 270h-346v129h387l80 246h-467v129l508 -2l88 274l121 -45l-74 -229h336v-127z" />
    <glyph glyph-name="lessequal" unicode="&#x2264;" horiz-adv-x="1085" 
d="M942 1024v-156l-606 -233l606 -234v-155l-799 315v148zM143 0v139h799v-139h-799z" />
    <glyph glyph-name="greaterequal" unicode="&#x2265;" horiz-adv-x="1085" 
d="M143 1024l799 -315v-148l-799 -315v155l607 234l-607 233v156zM143 0v139h799v-139h-799z" />
    <glyph glyph-name="lozenge" unicode="&#x25ca;" horiz-adv-x="1216" 
d="M686 1436l428 -717l-428 -719h-156l-428 719l428 717h156zM608 133l344 586l-344 584l-344 -584z" />
    <glyph glyph-name="Q.ss02" horiz-adv-x="1513" 
d="M1411 717q0 -269 -112 -449t-316 -245l369 -392h-217l-330 361q-16 -2 -47 -2q-306 0 -481 193.5t-175 533.5t175 533.5t481 193.5q305 0 479 -193.5t174 -533.5zM262 715q0 -270 133 -426t363 -156t361.5 156t131.5 426q0 274 -131.5 429.5t-361.5 155.5
q-231 0 -363.5 -156t-132.5 -429z" />
    <glyph glyph-name="G.ss03" horiz-adv-x="1484" 
d="M702 762h680v-45q0 -340 -164 -533.5t-470 -193.5q-193 0 -340.5 92.5t-226.5 257.5t-79 377q0 211 81.5 376.5t231 258t343.5 92.5q252 0 409 -133t185 -359l-156 -28q-17 178 -132 277t-306 99q-220 0 -358 -157.5t-138 -423.5q0 -260 135 -423t351 -163
q214 0 337.5 120.5t143.5 364.5h-527v144z" />
    <glyph glyph-name="R.ss04" horiz-adv-x="1280" 
d="M518 633l721 -633h-235l-709 633v-633h-152v1434h635q201 0 304.5 -107t103.5 -293q0 -187 -103 -294t-305 -107h-260zM754 1290h-459v-532h459q272 0 272 274q0 129 -70 193.5t-202 64.5z" />
    <glyph glyph-name="i.loclTRK" horiz-adv-x="432" 
d="M135 1208v166h164v-166h-164zM143 0v1044h146v-1044h-146z" />
    <glyph glyph-name="a.ss01" horiz-adv-x="1234" 
d="M946 1044h146v-1044h-146v199q-94 -209 -373 -209q-207 0 -339 147t-132 400q0 125 38 229t103 172t150 105.5t180 37.5q279 0 373 -209v172zM592 119q160 0 259 115t99 301q0 188 -99 302.5t-259 114.5q-142 0 -240 -116t-98 -301q0 -186 93 -301t245 -115z" />
    <glyph glyph-name="aacute.ss01" horiz-adv-x="1234" 
d="M922 1462l-246 -258h-131l190 258h187zM946 1044h146v-1044h-146v199q-94 -209 -373 -209q-207 0 -339 147t-132 400q0 125 38 229t103 172t150 105.5t180 37.5q279 0 373 -209v172zM592 119q160 0 259 115t99 301q0 188 -99 302.5t-259 114.5q-142 0 -240 -116t-98 -301
q0 -186 93 -301t245 -115z" />
    <glyph glyph-name="abreve.ss01" horiz-adv-x="1234" 
d="M621 1204q-116 0 -191.5 71.5t-75.5 186.5h142q0 -71 33.5 -110t91.5 -39t91 39t33 110h142q0 -116 -75 -187t-191 -71zM946 1044h146v-1044h-146v199q-94 -209 -373 -209q-207 0 -339 147t-132 400q0 125 38 229t103 172t150 105.5t180 37.5q279 0 373 -209v172z
M592 119q160 0 259 115t99 301q0 188 -99 302.5t-259 114.5q-142 0 -240 -116t-98 -301q0 -186 93 -301t245 -115z" />
    <glyph glyph-name="uni01CE.ss01" horiz-adv-x="1234" 
d="M700 1204h-159l-232 258h166l146 -166l145 166h166zM946 1044h146v-1044h-146v199q-94 -209 -373 -209q-207 0 -339 147t-132 400q0 125 38 229t103 172t150 105.5t180 37.5q279 0 373 -209v172zM592 119q160 0 259 115t99 301q0 188 -99 302.5t-259 114.5
q-142 0 -240 -116t-98 -301q0 -186 93 -301t245 -115z" />
    <glyph glyph-name="acircumflex.ss01" horiz-adv-x="1234" 
d="M621 1370l-146 -166h-166l232 258h159l232 -258h-166zM946 1044h146v-1044h-146v199q-94 -209 -373 -209q-207 0 -339 147t-132 400q0 125 38 229t103 172t150 105.5t180 37.5q279 0 373 -209v172zM592 119q160 0 259 115t99 301q0 188 -99 302.5t-259 114.5
q-142 0 -240 -116t-98 -301q0 -186 93 -301t245 -115z" />
    <glyph glyph-name="adieresis.ss01" horiz-adv-x="1234" 
d="M559 1374v-166h-164v166h164zM846 1374v-166h-164v166h164zM946 1044h146v-1044h-146v199q-94 -209 -373 -209q-207 0 -339 147t-132 400q0 125 38 229t103 172t150 105.5t180 37.5q279 0 373 -209v172zM592 119q160 0 259 115t99 301q0 188 -99 302.5t-259 114.5
q-142 0 -240 -116t-98 -301q0 -186 93 -301t245 -115z" />
    <glyph glyph-name="agrave.ss01" horiz-adv-x="1234" 
d="M922 1462l-246 -258h-131l190 258h187zM946 1044h146v-1044h-146v199q-94 -209 -373 -209q-207 0 -339 147t-132 400q0 125 38 229t103 172t150 105.5t180 37.5q279 0 373 -209v172zM592 119q160 0 259 115t99 301q0 188 -99 302.5t-259 114.5q-142 0 -240 -116t-98 -301
q0 -186 93 -301t245 -115z" />
    <glyph glyph-name="amacron.ss01" horiz-adv-x="1234" 
d="M848 1352v-144h-455v144h455zM946 1044h146v-1044h-146v199q-94 -209 -373 -209q-207 0 -339 147t-132 400q0 125 38 229t103 172t150 105.5t180 37.5q279 0 373 -209v172zM592 119q160 0 259 115t99 301q0 188 -99 302.5t-259 114.5q-142 0 -240 -116t-98 -301
q0 -186 93 -301t245 -115z" />
    <glyph glyph-name="aogonek.ss01" horiz-adv-x="1234" 
d="M1067 -299l55 -86q-70 -57 -192 -57q-100 0 -155.5 54.5t-53.5 139.5q1 47 19 87.5t52 73.5t69.5 57t84.5 50v179q-94 -209 -373 -209q-207 0 -339 147t-132 400q0 125 38 229t103 172t150 105.5t180 37.5q279 0 373 -209v172h146v-1044l-50 -25t-48 -26t-51 -31.5
t-41.5 -33t-38 -38.5t-22 -40.5t-10.5 -47.5q-1 -46 27 -74t72 -28q72 0 137 45zM592 119q160 0 259 115t99 301q0 188 -99 302.5t-259 114.5q-142 0 -240 -116t-98 -301q0 -186 93 -301t245 -115z" />
    <glyph glyph-name="aring.ss01" horiz-adv-x="1234" 
d="M621 1182q-75 0 -128 52.5t-53 127.5q0 74 53 126t128 52q73 0 125.5 -52t52.5 -126q0 -75 -52 -127.5t-126 -52.5zM621 1446q-35 0 -60.5 -25t-25.5 -59q0 -35 25.5 -60.5t60.5 -25.5q34 0 59 25.5t25 60.5q0 34 -25 59t-59 25zM946 1044h146v-1044h-146v199
q-94 -209 -373 -209q-207 0 -339 147t-132 400q0 125 38 229t103 172t150 105.5t180 37.5q279 0 373 -209v172zM592 119q160 0 259 115t99 301q0 188 -99 302.5t-259 114.5q-142 0 -240 -116t-98 -301q0 -186 93 -301t245 -115z" />
    <glyph glyph-name="atilde.ss01" horiz-adv-x="1234" 
d="M526 1305q-29 0 -50 -24.5t-21 -61.5h-93q0 95 42.5 147.5t121.5 52.5q34 0 64 -15t47.5 -33t39 -33t42.5 -15q26 0 45.5 24.5t19.5 61.5h93q0 -95 -42.5 -148t-121.5 -53q-32 0 -59.5 15t-44.5 33.5t-39 33.5t-44 15zM946 1044h146v-1044h-146v199q-94 -209 -373 -209
q-207 0 -339 147t-132 400q0 125 38 229t103 172t150 105.5t180 37.5q279 0 373 -209v172zM592 119q160 0 259 115t99 301q0 188 -99 302.5t-259 114.5q-142 0 -240 -116t-98 -301q0 -186 93 -301t245 -115z" />
    <glyph glyph-name="ae.ss01" horiz-adv-x="1984" 
d="M1882 598v-98h-786q9 -175 98 -278.5t240 -102.5q131 1 202 61t90 176l146 -20q-27 -163 -139 -254t-299 -92q-214 0 -342 125v-115h-146v199q-94 -209 -373 -209q-207 0 -339 147t-132 400q0 125 38 229t103 172t150 105.5t180 37.5q279 0 373 -209v172h146v-104
q128 131 342 131q210 0 329 -128.5t119 -344.5zM592 119q147 0 244 98t112 260q-2 18 -2 53q0 40 2 58q-14 166 -110.5 265t-245.5 99q-142 0 -240 -116t-98 -301q0 -186 93 -301t245 -115zM1434 942q-141 2 -228.5 -76t-107.5 -237h641q-6 158 -86.5 234.5t-218.5 78.5z
" />
    <glyph glyph-name="f.ss05" horiz-adv-x="727" 
d="M670 1325h-289v-281h268v-129h-268v-925h-145v925h-175v129h175v410h434v-129z" />
    <glyph glyph-name="m.ss05" horiz-adv-x="1685" 
d="M1161 1071q391 0 391 -387v-684h-145v666q0 134 -58.5 205t-187.5 71q-127 0 -186.5 -80t-59.5 -217v-645h-145v645q0 137 -59.5 217t-186.5 80q-129 0 -187 -70.5t-58 -205.5v-666h-146v684q0 387 391 387q244 0 320 -199q73 199 317 199z" />
    <glyph glyph-name="n.ss05" horiz-adv-x="1114" 
d="M133 -2v688q-4 185 110 286t314 101q199 0 313 -101t111 -286v-688h-145v670q0 139 -75.5 207.5t-203.5 68.5t-203 -68.5t-75 -207.5v-670h-146z" />
    <glyph glyph-name="nacute.ss05" horiz-adv-x="1114" 
d="M481 1204l191 258h186l-246 -258h-131zM133 -2v688q-4 185 110 286t314 101q199 0 313 -101t111 -286v-688h-145v670q0 139 -75.5 207.5t-203.5 68.5t-203 -68.5t-75 -207.5v-670h-146z" />
    <glyph glyph-name="ncaron.ss05" horiz-adv-x="1114" 
d="M637 1204h-160l-231 258h166l145 -166l145 166h166zM557 1073q199 0 313 -101t111 -286v-688h-145v670q0 139 -75.5 207.5t-203.5 68.5t-203 -68.5t-75 -207.5v-670h-146v688q-4 185 110 286t314 101z" />
    <glyph glyph-name="uni0146.ss05" horiz-adv-x="1114" 
d="M133 -2v688q-4 185 110 286t314 101q199 0 313 -101t111 -286v-688h-145v670q0 139 -75.5 207.5t-203.5 68.5t-203 -68.5t-75 -207.5v-670h-146zM469 -518v74q45 12 61.5 50t16.5 128h-78v186h174v-192q0 -99 -44.5 -163t-129.5 -83z" />
    <glyph glyph-name="eng.ss05" horiz-adv-x="1114" 
d="M557 1073q199 0 313 -101t111 -286v-815q0 -118 -63.5 -179t-186.5 -61q-61 0 -119 25v139q53 -26 119 -26q55 0 80 33.5t25 111.5v754q0 139 -75.5 207.5t-203.5 68.5t-203 -68.5t-75 -207.5v-670h-146v688q-4 185 110 286t314 101z" />
    <glyph glyph-name="ntilde.ss05" horiz-adv-x="1114" 
d="M649 1208q-32 0 -59.5 15t-44 33.5t-38.5 33.5t-44 15q-29 0 -50.5 -24.5t-21.5 -61.5h-92q0 95 42.5 147.5t121.5 52.5q34 0 64 -15t47 -33t38.5 -33t42.5 -15q26 0 46 24.5t20 61.5h92q0 -95 -42.5 -148t-121.5 -53zM133 -2v688q-4 185 110 286t314 101q199 0 313 -101
t111 -286v-688h-145v670q0 139 -75.5 207.5t-203.5 68.5t-203 -68.5t-75 -207.5v-670h-146z" />
    <glyph glyph-name="r.ss05" horiz-adv-x="847" 
d="M762 1044v-129h-473v-915h-146v1044h619z" />
    <glyph glyph-name="rcaron.ss05" horiz-adv-x="847" 
d="M477 1204h-160l-231 258h166l145 -166l146 166h166zM762 1044v-129h-473v-915h-146v1044h619z" />
    <glyph glyph-name="uni0157.ss05" horiz-adv-x="847" 
d="M762 1044v-129h-473v-915h-146v1044h619zM135 -276v186h174v-193q0 -99 -44.5 -162.5t-129.5 -82.5v73q45 12 61.5 50.5t16.5 128.5h-78z" />
    <glyph glyph-name="t.ss05" horiz-adv-x="792" 
d="M381 129h309v-129h-454v915h-175v129h175v281h145v-281h289v-129h-289v-786z" />
    <glyph glyph-name="tbar.ss05" horiz-adv-x="792" 
d="M381 129h309v-129h-454v573h-175v123h175v219h-175v129h175v281h145v-281h289v-129h-289v-219h289v-123h-289v-444z" />
    <glyph glyph-name="tcaron.ss05" horiz-adv-x="792" 
d="M381 129h309v-129h-454v915h-175v129h175v281h145v-281h289v-129h-289v-786zM616 1325l-61 -217h-86v217h147z" />
    <glyph glyph-name="uni0163.ss05" horiz-adv-x="792" 
d="M690 0h-196l-52 -80q103 -3 157 -47t56 -119q1 -87 -54.5 -130.5t-154.5 -43.5q-121 0 -192 58l55 86q67 -46 137 -46q49 0 75 22.5t24 59.5q-1 39 -38.5 60.5t-98.5 21.5q-11 0 -35 -4l-25 72l58 90h-170v915h-175v129h175v281h145v-281h289v-129h-289v-786h309v-129z
" />
    <glyph glyph-name="uni021B.ss05" horiz-adv-x="792" 
d="M381 129h309v-129h-454v915h-175v129h175v281h145v-281h289v-129h-289v-786zM375 -276v186h174v-193q0 -99 -44.5 -162.5t-129.5 -82.5v73q45 12 61.5 50.5t16.5 128.5h-78z" />
    <glyph glyph-name="u.ss05" horiz-adv-x="1093" 
d="M547 -10q-198 0 -306.5 100.5t-107.5 286.5v667h150v-649q0 -140 69 -208t195 -68t195 68t69 208v649h150v-667q0 -187 -108 -287t-306 -100z" />
    <glyph glyph-name="uacute.ss05" horiz-adv-x="1093" 
d="M471 1204l191 258h186l-246 -258h-131zM547 -10q-198 0 -306.5 100.5t-107.5 286.5v667h150v-649q0 -140 69 -208t195 -68t195 68t69 208v649h150v-667q0 -187 -108 -287t-306 -100z" />
    <glyph glyph-name="uni01D4.ss05" horiz-adv-x="1093" 
d="M627 1204h-160l-231 258h165l146 -166l145 166h166zM811 1044h150v-667q0 -187 -108 -287t-306 -100t-306.5 100.5t-107.5 286.5v667h150v-649q0 -140 69 -208t195 -68t195 68t69 208v649z" />
    <glyph glyph-name="ucircumflex.ss05" horiz-adv-x="1093" 
d="M547 1370l-146 -166h-165l231 258h160l231 -258h-166zM811 1044h150v-667q0 -187 -108 -287t-306 -100t-306.5 100.5t-107.5 286.5v667h150v-649q0 -140 69 -208t195 -68t195 68t69 208v649z" />
    <glyph glyph-name="udieresis.ss05" horiz-adv-x="1093" 
d="M322 1208v166h163v-166h-163zM608 1208v166h164v-166h-164zM547 -10q-198 0 -306.5 100.5t-107.5 286.5v667h150v-649q0 -140 69 -208t195 -68t195 68t69 208v649h150v-667q0 -187 -108 -287t-306 -100z" />
    <glyph glyph-name="ugrave.ss05" horiz-adv-x="1093" 
d="M623 1204h-131l-246 258h186zM547 -10q-198 0 -306.5 100.5t-107.5 286.5v667h150v-649q0 -140 69 -208t195 -68t195 68t69 208v649h150v-667q0 -187 -108 -287t-306 -100z" />
    <glyph glyph-name="uhungarumlaut.ss05" horiz-adv-x="1093" 
d="M233 1204l191 258h186l-245 -258h-132zM551 1204l190 258h187l-246 -258h-131zM547 -10q-198 0 -306.5 100.5t-107.5 286.5v667h150v-649q0 -140 69 -208t195 -68t195 68t69 208v649h150v-667q0 -187 -108 -287t-306 -100z" />
    <glyph glyph-name="umacron.ss05" horiz-adv-x="1093" 
d="M319 1208v144h455v-144h-455zM547 -10q-198 0 -306.5 100.5t-107.5 286.5v667h150v-649q0 -140 69 -208t195 -68t195 68t69 208v649h150v-667q0 -187 -108 -287t-306 -100z" />
    <glyph glyph-name="uogonek.ss05" horiz-adv-x="1093" 
d="M811 1044h150v-667q0 -147 -68 -241t-195 -128q-49 -25 -80 -44t-69 -48t-57.5 -62.5t-20.5 -70.5q-1 -46 26.5 -74t71.5 -28q73 0 138 45l55 -86q-71 -58 -193 -58q-100 0 -155.5 55t-53.5 140q3 122 136 215q-174 12 -269 111.5t-94 273.5v667h150v-649q0 -140 69 -208
t195 -68t195 68t69 208v649z" />
    <glyph glyph-name="uring.ss05" horiz-adv-x="1093" 
d="M547 1182q-75 0 -127.5 52.5t-52.5 127.5q0 74 52.5 126t127.5 52q73 0 125.5 -52t52.5 -126q0 -75 -52 -127.5t-126 -52.5zM547 1276q34 0 59 25.5t25 60.5q0 34 -25 59t-59 25q-35 0 -60.5 -25t-25.5 -59q0 -35 25.5 -60.5t60.5 -25.5zM547 -10q-198 0 -306.5 100.5
t-107.5 286.5v667h150v-649q0 -140 69 -208t195 -68t195 68t69 208v649h150v-667q0 -187 -108 -287t-306 -100z" />
    <glyph glyph-name="y.ss05" horiz-adv-x="1034" 
d="M848 1044h156l-400 -1044l-166 -412h-407v129h313l113 281l-398 1046h156l252 -679q39 -99 65 -189q19 70 68 199z" />
    <glyph glyph-name="yacute.ss05" horiz-adv-x="1034" 
d="M834 1462l-246 -258h-131l190 258h187zM848 1044h156l-400 -1044l-166 -412h-407v129h313l113 281l-398 1046h156l252 -679q39 -99 65 -189q19 70 68 199z" />
    <glyph glyph-name="ycircumflex.ss05" horiz-adv-x="1034" 
d="M532 1370l-145 -166h-166l232 258h159l232 -258h-166zM848 1044h156l-400 -1044l-166 -412h-407v129h313l113 281l-398 1046h156l252 -679q39 -99 65 -189q19 70 68 199z" />
    <glyph glyph-name="ydieresis.ss05" horiz-adv-x="1034" 
d="M471 1374v-166h-164v166h164zM758 1374v-166h-164v166h164zM848 1044h156l-400 -1044l-166 -412h-407v129h313l113 281l-398 1046h156l252 -679q39 -99 65 -189q19 70 68 199z" />
    <glyph glyph-name="ygrave.ss05" horiz-adv-x="1034" 
d="M608 1204h-131l-246 258h187zM848 1044h156l-400 -1044l-166 -412h-407v129h313l113 281l-398 1046h156l252 -679q39 -99 65 -189q19 70 68 199z" />
    <glyph glyph-name="zero.dnom" horiz-adv-x="925" 
d="M463 -10q-153 0 -238.5 116.5t-85.5 311.5q0 203 87.5 315.5t236.5 112.5q153 0 238 -116.5t85 -311.5q0 -203 -87.5 -315.5t-235.5 -112.5zM463 119q92 0 143 81t51 216q0 143 -52.5 222t-141.5 79q-92 0 -143.5 -82t-51.5 -219q0 -140 53 -218.5t142 -78.5z" />
    <glyph glyph-name="one.dnom" horiz-adv-x="618" 
d="M369 0v647l-230 -2v115h230v84h118v-844h-118z" />
    <glyph glyph-name="two.dnom" horiz-adv-x="872" 
d="M319 123h414v-123h-594v123q184 151 295 248q63 55 91.5 86t43.5 66t15 83q0 121 -131 121q-69 0 -108.5 -41t-45.5 -119l-131 15q9 123 82 195.5t194 72.5q127 0 199 -67.5t72 -172.5q0 -55 -13 -98t-55.5 -92.5t-70.5 -75.5t-107 -93q-15 -13 -23 -20
q-52 -47 -127 -108z" />
    <glyph glyph-name="three.dnom" horiz-adv-x="872" 
d="M733 223q0 -93 -81 -163t-210 -70h-2q-132 0 -213.5 82t-87.5 207l129 16q3 -182 174 -182q158 0 158 123q0 129 -141 129h-80v120h47q84 0 114.5 31t30.5 98q0 109 -120 109q-70 0 -110 -38t-46 -112l-131 15q8 111 81 184.5t206 73.5q119 0 184 -61.5t65 -155.5
q0 -76 -38 -125t-103 -70q85 -18 129.5 -75.5t44.5 -135.5z" />
    <glyph glyph-name="four.dnom" horiz-adv-x="952" 
d="M813 297v-111h-119v-186h-119v186h-436v111l408 547h147v-547h119zM268 297h307v412z" />
    <glyph glyph-name="five.dnom" horiz-adv-x="872" 
d="M442 541q74 0 131.5 -23.5t91.5 -63.5t51 -88t17 -100q0 -53 -17 -100.5t-51 -87.5t-91.5 -64t-131.5 -24q-144 0 -220.5 80t-82.5 209l129 16q3 -182 174 -182q158 0 158 153q0 77 -41 121.5t-117 44.5q-97 0 -163 -74l-78 52l41 430h444v-115h-338l-18 -205
q58 21 112 21z" />
    <glyph glyph-name="six.dnom" horiz-adv-x="872" 
d="M467 541q120 0 193 -77.5t73 -203.5q0 -121 -80 -195.5t-209 -74.5q-82 0 -143 35.5t-95 97t-50.5 135.5t-16.5 160q0 95 17.5 171.5t53 134.5t94.5 90t138 32q118 0 191 -66t94 -174l-129 -16q-25 133 -156 133q-100 0 -140 -74.5t-40 -232.5v-8q50 133 205 133z
M440 113q77 0 120.5 39.5t43.5 113.5t-40 113t-111 39q-84 0 -128 -38.5t-44 -113.5t41 -114t118 -39z" />
    <glyph glyph-name="seven.dnom" horiz-adv-x="841" 
d="M154 844h548v-72l-417 -772h-146l404 731q-33 -2 -84 -2h-305v115z" />
    <glyph glyph-name="eight.dnom" horiz-adv-x="878" 
d="M573 440q77 -27 121.5 -83t44.5 -130q0 -107 -82 -173t-217 -66t-218 66t-83 173q0 74 44.5 130.5t123.5 82.5q-68 23 -105.5 70.5t-37.5 110.5q0 100 76 161.5t200 61.5q123 0 199 -61.5t76 -161.5q0 -62 -37.5 -110t-104.5 -71zM440 721q-147 0 -147 -100
q0 -121 147 -121q146 0 146 121q0 100 -146 100zM440 111q170 0 170 129q0 135 -170 135q-172 0 -172 -135q0 -129 172 -129z" />
    <glyph glyph-name="nine.dnom" horiz-adv-x="872" 
d="M428 846q82 0 143 -35.5t95 -97t50.5 -135.5t16.5 -160q0 -95 -17.5 -171.5t-53 -134.5t-94.5 -90t-138 -32q-118 0 -191 65.5t-94 173.5l129 17q25 -133 156 -133q100 0 140 74.5t40 232.5v8q-50 -133 -204 -133q-120 0 -193.5 77t-73.5 203q0 121 80 196t209 75z
M420 418q84 0 128 38t44 113t-41.5 114.5t-118.5 39.5t-120.5 -40t-43.5 -114t40 -112.5t112 -38.5z" />
    <glyph glyph-name="zero.numr" horiz-adv-x="933" 
d="M467 588q-153 0 -238.5 116.5t-85.5 311.5q0 203 87.5 315.5t236.5 112.5q153 0 238.5 -116.5t85.5 -311.5q0 -203 -87.5 -315.5t-236.5 -112.5zM467 702q93 0 144 84t51 228q0 152 -52.5 233.5t-142.5 81.5q-93 0 -144 -83.5t-51 -231.5q0 -151 52.5 -231.5t142.5 -80.5
z" />
    <glyph glyph-name="one.numr" horiz-adv-x="634" 
d="M317 606v631l-229 -2v115h229v84h119v-828h-119z" />
    <glyph glyph-name="two.numr" horiz-adv-x="839" 
d="M324 729h413v-123h-594v123q184 151 295 248q41 36 52 45.5t36.5 34t31 34.5t16 30t12.5 37.5t2 41.5q0 121 -131 121q-69 0 -108.5 -41t-45.5 -119l-131 15q9 123 82.5 195.5t194.5 72.5q127 0 198.5 -67.5t71.5 -172.5q0 -29 -5.5 -56t-11.5 -47t-24.5 -45.5t-28.5 -39
t-40.5 -42t-43.5 -40t-55.5 -47t-58.5 -49.5q-64 -57 -127 -109z" />
    <glyph glyph-name="three.numr" horiz-adv-x="880" 
d="M737 821q0 -93 -81 -163t-210 -70h-2q-132 0 -213.5 82t-87.5 207l131 16q3 -182 172 -182q158 0 158 123q0 129 -141 129h-80v120h47q84 0 114.5 31t30.5 98q0 109 -120 109q-71 0 -111.5 -38.5t-46.5 -111.5l-129 15q8 111 81 184.5t206 73.5q120 0 185 -61.5
t65 -155.5q0 -148 -142 -195q85 -18 129.5 -75.5t44.5 -135.5z" />
    <glyph glyph-name="four.numr" horiz-adv-x="899" 
d="M776 913v-110h-119v-197h-118v197h-437v110l408 521h147v-521h119zM231 913h308v392z" />
    <glyph glyph-name="five.numr" horiz-adv-x="880" 
d="M446 1135q74 0 131.5 -23.5t91.5 -63.5t51 -88t17 -100t-17 -99.5t-51 -87t-91.5 -62.5t-131.5 -23q-144 0 -220.5 78t-82.5 206l129 17q3 -180 174 -180q158 0 158 151q0 77 -41 121.5t-117 44.5q-97 0 -163 -74l-78 52l41 430h444v-115h-338l-18 -205q58 21 112 21z
" />
    <glyph glyph-name="six.numr" horiz-adv-x="880" 
d="M471 1139q120 0 193 -77.5t73 -203.5q0 -121 -79.5 -195.5t-208.5 -74.5q-82 0 -143 35.5t-95.5 97t-51 135.5t-16.5 160q0 95 17.5 171.5t53 134.5t94.5 90t138 32q118 0 191 -66t94 -174l-129 -16q-25 133 -156 133q-100 0 -140 -74.5t-40 -232.5v-8q50 133 205 133z
M444 711q77 0 120.5 39.5t43.5 113.5t-40 113t-111 39q-84 0 -128 -38.5t-44 -113.5t41 -114t118 -39z" />
    <glyph glyph-name="seven.numr" horiz-adv-x="716" 
d="M106 1434h549v-72l-417 -748h-136l402 707q-35 -2 -92 -2h-306v115z" />
    <glyph glyph-name="eight.numr" horiz-adv-x="886" 
d="M578 1040q77 -26 121 -82.5t44 -130.5q0 -107 -82 -173t-217 -66t-218 66t-83 173q0 74 44.5 130.5t123.5 82.5q-68 23 -105.5 70.5t-37.5 110.5q0 100 76 161.5t200 61.5q123 0 199 -61.5t76 -161.5q0 -63 -37.5 -110.5t-103.5 -70.5zM444 1321q-147 0 -147 -100
q0 -121 147 -121q146 0 146 121q0 100 -146 100zM444 711q170 0 170 129q0 135 -170 135q-172 0 -172 -135q0 -129 172 -129z" />
    <glyph glyph-name="nine.numr" horiz-adv-x="880" 
d="M432 1444q82 0 143 -35.5t95 -97t50.5 -135.5t16.5 -160q0 -95 -17.5 -171.5t-53 -134.5t-94.5 -90t-138 -32q-118 0 -190.5 65.5t-93.5 173.5l129 17q25 -133 155 -133q100 0 140 74.5t40 232.5v8q-50 -133 -204 -133q-120 0 -193.5 77.5t-73.5 203.5q0 121 80 195.5
t209 74.5zM424 1016q84 0 128 38t44 113t-41.5 114.5t-118.5 39.5t-120.5 -40t-43.5 -114t40 -112.5t112 -38.5z" />
    <glyph glyph-name="parenleft.case" horiz-adv-x="561" 
d="M348 -102q-130 180 -188 389t-58 420t58 420t188 389h152q-130 -180 -188 -389t-58 -420t58 -420t188 -389h-152z" />
    <glyph glyph-name="parenright.case" horiz-adv-x="561" 
d="M61 -102q130 180 188 389t58 420t-58 420t-188 389h152q130 -180 188 -389t58 -420t-58 -420t-188 -389h-152z" />
    <glyph glyph-name="braceleft.case" horiz-adv-x="737" 
d="M440 874q0 -74 -21 -110.5t-87 -58.5q69 -23 88.5 -54t19.5 -116v-498h154v-143h-162q-67 0 -105 35t-38 104v600h-146v143h146v600q0 69 38.5 104.5t104.5 35.5h162v-144h-154v-498z" />
    <glyph glyph-name="braceright.case" horiz-adv-x="737" 
d="M449 776h145v-143h-145v-600q0 -69 -38.5 -104t-105.5 -35h-162v143h154v498q0 85 20 116t89 54q-66 22 -87.5 59t-21.5 110v498h-154v144h162q67 0 105.5 -35.5t38.5 -104.5v-600z" />
    <glyph glyph-name="bracketleft.case" horiz-adv-x="591" 
d="M287 -106q-67 0 -105.5 35t-38.5 104v1343q0 69 38.5 104.5t105.5 35.5h162v-144h-154v-1335h154v-143h-162z" />
    <glyph glyph-name="bracketright.case" horiz-adv-x="591" 
d="M307 1516q67 0 105.5 -35.5t38.5 -104.5v-1343q0 -69 -38.5 -104t-105.5 -35h-162v143h154v1335h-154v144h162z" />
    <glyph glyph-name="hyphen.case" horiz-adv-x="935" 
d="M143 662v143h650v-143h-650z" />
    <glyph glyph-name="endash.case" horiz-adv-x="1288" 
d="M143 676v129h1002v-129h-1002z" />
    <glyph glyph-name="emdash.case" horiz-adv-x="1828" 
d="M143 676v129h1543v-129h-1543z" />
    <glyph glyph-name="guillemotleft.case" horiz-adv-x="1073" 
d="M569 1096l-266 -389l266 -390h-159l-267 390l267 389h159zM930 1096l-266 -389l266 -390h-160l-266 390l266 389h160z" />
    <glyph glyph-name="guillemotright.case" horiz-adv-x="1073" 
d="M303 1096l266 -389l-266 -390h-160l267 390l-267 389h160zM664 1096l266 -389l-266 -390h-160l266 390l-266 389h160z" />
    <glyph glyph-name="guilsinglleft.case" horiz-adv-x="751" 
d="M608 1157l-307 -450l307 -451h-157l-308 451l308 450h157z" />
    <glyph glyph-name="guilsinglright.case" horiz-adv-x="751" 
d="M301 1157l307 -450l-307 -451h-158l308 451l-308 450h158z" />
    <glyph glyph-name="sterling.001" horiz-adv-x="1282" 
d="M344 94h864v-94h-1013v94q74 38 127 81.5t82 90.5t44.5 92t15 97.5t-7 95.5t-20.5 98h-282v94h256q-34 128 -37 175q-17 212 101.5 335t328.5 123q178 0 288 -107.5t107 -271.5l-111 -61q7 154 -75 251t-217 97q-167 0 -241 -102.5t-60 -272.5q4 -47 32 -166h478v-94
h-453q13 -56 20 -100t8.5 -98t-11.5 -99.5t-38 -92t-72.5 -88.5t-113.5 -77z" />
    <glyph glyph-name="at.ss04" horiz-adv-x="1681" 
d="M1055 268v142q-78 -160 -273 -160q-165 0 -265.5 114.5t-100.5 303.5q0 187 100.5 300t265.5 113q195 0 273 -159v139h139v-670h18q98 0 156.5 85t58.5 253q0 113 -34 210t-101 173.5t-177.5 120t-254.5 43.5q-139 0 -254 -47.5t-191.5 -130.5t-118.5 -193.5t-42 -236.5
q0 -169 71.5 -305.5t211 -218t323.5 -81.5h502v-147h-502q-163 0 -306 61t-241 163.5t-154.5 240t-56.5 287.5t56.5 288t154.5 241t241 164.5t306 61.5q169 0 307.5 -57.5t227 -154t136.5 -221t48 -261.5q0 -216 -97 -338.5t-288 -122.5h-139zM795 371q121 0 189.5 77
t68.5 218t-68.5 219t-189.5 78q-103 0 -168.5 -79t-65.5 -218q0 -138 66 -216.5t168 -78.5z" />
    <glyph glyph-name="acutecomb.circle" horiz-adv-x="0" 
d="M-473 1288l190 258h187l-246 -258h-131z" />
    <glyph glyph-name="SMILE" horiz-adv-x="2000" 
d="M1001 -207q-183 0 -350 71t-287 191t-191 286t-71 349t71 349t191 286t287 191t350 71t349 -71t286 -191t191 -286t71 -349t-71 -349t-191 -286t-286 -191t-349 -71zM1001 -88q127 0 246 39t214.5 111t167.5 168t111.5 214.5t39.5 245.5t-39.5 245.5t-111.5 214.5
t-167.5 168t-214.5 111t-246 39q-159 0 -303.5 -61.5t-249 -165.5t-166 -248.5t-61.5 -302.5t61.5 -302.5t166 -248.5t249 -165.5t303.5 -61.5zM604 600q-47 0 -79.5 88t-32.5 213t32.5 213t79.5 88q44 0 76.5 -88.5t32.5 -212.5t-32.5 -212.5t-76.5 -88.5zM1405 600
q-46 0 -79.5 88.5t-33.5 212.5t33.5 212.5t79.5 88.5q44 0 76 -88.5t32 -212.5t-32 -212.5t-76 -88.5zM1001 84q-232 0 -408 138t-231 364h119q51 -172 193.5 -277.5t326.5 -105.5q175 0 312.5 105.5t187.5 277.5h119q-56 -226 -225.5 -364t-393.5 -138z" />
    </font>
</defs>
</svg>
